STARTFONT 2.1
FONT -FontForge-Hack-Book-R-Normal--16-150-75-75-P-99-ISO10646-1
SIZE 15 75 75
FONTBOUNDINGBOX 18 21 -7 -5
COMMENT "Generated by fontforge, http://fontforge.sourceforge.net"
COMMENT "Copyright (c) 2018 Source Foundry Authors / Copyright (c) 2003 by Bitstream, Inc. All Rights Reserved."
STARTPROPERTIES 41
FOUNDRY "FontForge"
FAMILY_NAME "Hack"
WEIGHT_NAME "Book"
SLANT "R"
SETWIDTH_NAME "Normal"
ADD_STYLE_NAME ""
PIXEL_SIZE 16
POINT_SIZE 150
RESOLUTION_X 75
RESOLUTION_Y 75
SPACING "P"
AVERAGE_WIDTH 99
CHARSET_REGISTRY "ISO10646"
CHARSET_ENCODING "1"
FONTNAME_REGISTRY ""
CHARSET_COLLECTIONS "ASCII ISOLatin1Encoding ISO8859-2 ISO8859-5 ISO8859-7 ISO8859-9 ISO8859-4 ISO10646-1"
FONT_NAME "Hack-Regular"
FACE_NAME "Hack Regular"
COPYRIGHT "Copyright (c) 2018 Source Foundry Authors / Copyright (c) 2003 by Bitstream, Inc. All Rights Reserved."
FONT_VERSION "3.003;[3114f1256]-release; ttfautohint (v1.7) -l 6 -r 50 -G 200 -x 10 -H 181 -D latn -f latn -m "Hack-Regular-TA.txt" -w G -W -t -X """
FONT_ASCENT 12
FONT_DESCENT 4
UNDERLINE_POSITION -2
UNDERLINE_THICKNESS 1
X_HEIGHT 8
CAP_HEIGHT 11
DEFAULT_CHAR 1
RAW_ASCENT 759
RAW_DESCENT 240
NORM_SPACE 10
RELATIVE_WEIGHT 40
RELATIVE_SETWIDTH 50
SUPERSCRIPT_X 0
SUPERSCRIPT_Y 5
SUPERSCRIPT_SIZE 9
SUBSCRIPT_X 0
SUBSCRIPT_Y 1
SUBSCRIPT_SIZE 9
FIGURE_WIDTH 10
AVG_LOWERCASE_WIDTH 100
AVG_UPPERCASE_WIDTH 100
ENDPROPERTIES
CHARS 1573
STARTCHAR uni0000.dup1
ENCODING 0
SWIDTH 0 0
DWIDTH 0 0
BBX 1 1 0 0
BITMAP
00
ENDCHAR
STARTCHAR uni000D
ENCODING 13
SWIDTH 602 0
DWIDTH 10 0
BBX 1 1 0 0
BITMAP
00
ENDCHAR
STARTCHAR uni0020
ENCODING 32
SWIDTH 602 0
DWIDTH 10 0
BBX 1 1 0 0
BITMAP
00
ENDCHAR
STARTCHAR uni0021
ENCODING 33
SWIDTH 602 0
DWIDTH 10 0
BBX 2 12 4 0
BITMAP
C0
C0
C0
C0
C0
C0
80
80
00
C0
C0
C0
ENDCHAR
STARTCHAR uni0022
ENCODING 34
SWIDTH 602 0
DWIDTH 10 0
BBX 4 4 3 8
BITMAP
90
90
90
90
ENDCHAR
STARTCHAR uni0023
ENCODING 35
SWIDTH 602 0
DWIDTH 10 0
BBX 10 12 0 0
BITMAP
0980
0900
0900
1900
7FC0
1200
1200
3200
FF80
2400
2400
6C00
ENDCHAR
STARTCHAR uni0024
ENCODING 36
SWIDTH 602 0
DWIDTH 10 0
BBX 8 14 1 -2
BITMAP
18
18
3E
4A
C8
48
7C
0E
0B
0B
CA
7C
18
18
ENDCHAR
STARTCHAR uni0025
ENCODING 37
SWIDTH 602 0
DWIDTH 10 0
BBX 9 11 0 0
BITMAP
7000
C800
8800
C880
7380
0C00
7700
8480
0880
0480
0700
ENDCHAR
STARTCHAR uni0026
ENCODING 38
SWIDTH 602 0
DWIDTH 10 0
BBX 10 12 0 0
BITMAP
1E00
3200
2000
2000
3000
3800
4C80
4480
C680
4380
6380
3CC0
ENDCHAR
STARTCHAR uni0027
ENCODING 39
SWIDTH 602 0
DWIDTH 10 0
BBX 1 4 4 8
BITMAP
80
80
80
80
ENDCHAR
STARTCHAR uni0028
ENCODING 40
SWIDTH 602 0
DWIDTH 10 0
BBX 4 14 2 -2
BITMAP
30
20
60
40
40
C0
C0
C0
C0
40
40
60
20
30
ENDCHAR
STARTCHAR uni0029
ENCODING 41
SWIDTH 602 0
DWIDTH 10 0
BBX 3 14 4 -2
BITMAP
80
40
40
60
20
20
20
20
20
20
60
60
40
C0
ENDCHAR
STARTCHAR uni002A
ENCODING 42
SWIDTH 602 0
DWIDTH 10 0
BBX 8 8 1 3
BITMAP
10
10
91
7E
18
28
64
42
ENDCHAR
STARTCHAR uni002B
ENCODING 43
SWIDTH 602 0
DWIDTH 10 0
BBX 8 8 1 1
BITMAP
10
10
10
FF
10
10
10
10
ENDCHAR
STARTCHAR uni002C
ENCODING 44
SWIDTH 602 0
DWIDTH 10 0
BBX 3 5 3 -3
BITMAP
60
60
20
20
C0
ENDCHAR
STARTCHAR uni002D
ENCODING 45
SWIDTH 602 0
DWIDTH 10 0
BBX 6 1 2 4
BITMAP
FC
ENDCHAR
STARTCHAR uni002E
ENCODING 46
SWIDTH 602 0
DWIDTH 10 0
BBX 2 3 4 0
BITMAP
C0
C0
C0
ENDCHAR
STARTCHAR uni002F
ENCODING 47
SWIDTH 602 0
DWIDTH 10 0
BBX 7 13 1 -1
BITMAP
02
06
04
0C
08
18
10
30
20
60
40
40
C0
ENDCHAR
STARTCHAR uni0030
ENCODING 48
SWIDTH 602 0
DWIDTH 10 0
BBX 8 12 1 0
BITMAP
3C
66
42
D2
DB
DB
DB
D3
C2
42
66
3C
ENDCHAR
STARTCHAR uni0031
ENCODING 49
SWIDTH 602 0
DWIDTH 10 0
BBX 7 12 2 0
BITMAP
30
70
D0
90
10
10
10
10
10
10
10
FE
ENDCHAR
STARTCHAR uni0032
ENCODING 50
SWIDTH 602 0
DWIDTH 10 0
BBX 7 12 1 0
BITMAP
7C
C6
06
02
06
06
0C
18
30
60
C0
FE
ENDCHAR
STARTCHAR uni0033
ENCODING 51
SWIDTH 602 0
DWIDTH 10 0
BBX 8 12 1 0
BITMAP
7C
46
02
02
06
38
06
02
03
02
86
FC
ENDCHAR
STARTCHAR uni0034
ENCODING 52
SWIDTH 602 0
DWIDTH 10 0
BBX 8 12 1 0
BITMAP
0C
0C
14
34
24
44
44
84
FF
04
04
04
ENDCHAR
STARTCHAR uni0035
ENCODING 53
SWIDTH 602 0
DWIDTH 10 0
BBX 7 12 1 0
BITMAP
7E
40
40
40
7C
8E
06
02
02
06
8E
F8
ENDCHAR
STARTCHAR uni0036
ENCODING 54
SWIDTH 602 0
DWIDTH 10 0
BBX 8 12 1 0
BITMAP
3E
62
40
C0
FC
E6
C2
C3
C3
C2
66
3C
ENDCHAR
STARTCHAR uni0037
ENCODING 55
SWIDTH 602 0
DWIDTH 10 0
BBX 7 12 1 0
BITMAP
FE
02
06
04
0C
0C
08
18
18
10
30
20
ENDCHAR
STARTCHAR uni0038
ENCODING 56
SWIDTH 602 0
DWIDTH 10 0
BBX 8 12 1 0
BITMAP
3C
66
C2
C2
46
38
66
C2
C3
C3
E6
3C
ENDCHAR
STARTCHAR uni0039
ENCODING 57
SWIDTH 602 0
DWIDTH 10 0
BBX 8 12 1 0
BITMAP
3C
66
C2
C2
C2
C3
47
7A
02
06
4C
78
ENDCHAR
STARTCHAR uni003A
ENCODING 58
SWIDTH 602 0
DWIDTH 10 0
BBX 2 9 4 0
BITMAP
C0
C0
C0
00
00
00
C0
C0
C0
ENDCHAR
STARTCHAR uni003B
ENCODING 59
SWIDTH 602 0
DWIDTH 10 0
BBX 3 12 3 -4
BITMAP
60
E0
60
00
00
00
60
60
20
20
C0
80
ENDCHAR
STARTCHAR uni003C
ENCODING 60
SWIDTH 602 0
DWIDTH 10 0
BBX 8 8 1 1
BITMAP
01
0F
38
E0
E0
38
0F
01
ENDCHAR
STARTCHAR uni003D
ENCODING 61
SWIDTH 602 0
DWIDTH 10 0
BBX 8 4 1 3
BITMAP
FF
00
00
FF
ENDCHAR
STARTCHAR uni003E
ENCODING 62
SWIDTH 602 0
DWIDTH 10 0
BBX 8 8 1 1
BITMAP
80
E0
3C
07
07
3C
E0
80
ENDCHAR
STARTCHAR uni003F
ENCODING 63
SWIDTH 602 0
DWIDTH 10 0
BBX 6 12 2 0
BITMAP
78
8C
04
0C
08
10
30
20
00
00
70
30
ENDCHAR
STARTCHAR uni0040
ENCODING 64
SWIDTH 602 0
DWIDTH 10 0
BBX 9 13 0 -2
BITMAP
1F00
3180
6080
4780
C980
9880
9080
9880
C980
4F80
6000
3000
1F00
ENDCHAR
STARTCHAR uni0041
ENCODING 65
SWIDTH 602 0
DWIDTH 10 0
BBX 9 12 0 0
BITMAP
0C00
1C00
1E00
1600
1200
3200
3300
2300
7F00
6180
4180
C080
ENDCHAR
STARTCHAR uni0042
ENCODING 66
SWIDTH 602 0
DWIDTH 10 0
BBX 8 12 1 0
BITMAP
FC
C6
C2
C2
C6
FC
C6
C3
C3
C3
C6
FC
ENDCHAR
STARTCHAR uni0043
ENCODING 67
SWIDTH 602 0
DWIDTH 10 0
BBX 7 12 1 0
BITMAP
1E
62
40
C0
C0
C0
C0
C0
C0
40
72
1E
ENDCHAR
STARTCHAR uni0044
ENCODING 68
SWIDTH 602 0
DWIDTH 10 0
BBX 8 12 1 0
BITMAP
F8
CC
C6
C2
C3
C3
C3
C3
C2
C6
CC
F8
ENDCHAR
STARTCHAR uni0045
ENCODING 69
SWIDTH 602 0
DWIDTH 10 0
BBX 7 12 2 0
BITMAP
FC
80
80
80
80
FC
80
80
80
80
80
FE
ENDCHAR
STARTCHAR uni0046
ENCODING 70
SWIDTH 602 0
DWIDTH 10 0
BBX 7 12 2 0
BITMAP
FE
80
80
80
80
FC
80
80
80
80
80
80
ENDCHAR
STARTCHAR uni0047
ENCODING 71
SWIDTH 602 0
DWIDTH 10 0
BBX 8 12 1 0
BITMAP
3E
62
C0
C0
C0
80
8F
C3
C3
C3
63
3E
ENDCHAR
STARTCHAR uni0048
ENCODING 72
SWIDTH 602 0
DWIDTH 10 0
BBX 8 12 1 0
BITMAP
C3
C3
C3
C3
C3
FF
C3
C3
C3
C3
C3
C3
ENDCHAR
STARTCHAR uni0049
ENCODING 73
SWIDTH 602 0
DWIDTH 10 0
BBX 6 12 2 0
BITMAP
FC
30
30
30
30
30
30
30
30
30
30
FC
ENDCHAR
STARTCHAR uni004A
ENCODING 74
SWIDTH 602 0
DWIDTH 10 0
BBX 6 12 1 0
BITMAP
3C
04
04
04
04
04
04
04
04
84
8C
F8
ENDCHAR
STARTCHAR uni004B
ENCODING 75
SWIDTH 602 0
DWIDTH 10 0
BBX 9 12 1 0
BITMAP
C300
C600
CC00
D800
F000
F000
D800
CC00
CC00
C600
C300
C380
ENDCHAR
STARTCHAR uni004C
ENCODING 76
SWIDTH 602 0
DWIDTH 10 0
BBX 7 12 2 0
BITMAP
80
80
80
80
80
80
80
80
80
80
80
FE
ENDCHAR
STARTCHAR uni004D
ENCODING 77
SWIDTH 602 0
DWIDTH 10 0
BBX 8 12 1 0
BITMAP
C3
C7
E7
A7
AB
BB
9B
93
83
83
83
83
ENDCHAR
STARTCHAR uni004E
ENCODING 78
SWIDTH 602 0
DWIDTH 10 0
BBX 8 12 1 0
BITMAP
C3
E3
E3
E3
D3
D3
DB
CB
CB
C7
C7
C7
ENDCHAR
STARTCHAR uni004F
ENCODING 79
SWIDTH 602 0
DWIDTH 10 0
BBX 8 12 1 0
BITMAP
3C
66
C2
C3
C3
C3
C3
C3
C3
C2
66
3C
ENDCHAR
STARTCHAR uni0050
ENCODING 80
SWIDTH 602 0
DWIDTH 10 0
BBX 8 12 1 0
BITMAP
FC
C6
C3
C3
C3
C6
FC
C0
C0
C0
C0
C0
ENDCHAR
STARTCHAR uni0051
ENCODING 81
SWIDTH 602 0
DWIDTH 10 0
BBX 8 14 1 -2
BITMAP
3C
66
C2
C3
C3
C3
C3
C3
C3
C2
66
3C
04
03
ENDCHAR
STARTCHAR uni0052
ENCODING 82
SWIDTH 602 0
DWIDTH 10 0
BBX 9 12 1 0
BITMAP
FC00
C600
C600
C200
C200
C600
FC00
CC00
C600
C200
C300
C180
ENDCHAR
STARTCHAR uni0053
ENCODING 83
SWIDTH 602 0
DWIDTH 10 0
BBX 8 12 1 0
BITMAP
3E
62
C0
C0
C0
7C
1E
02
03
02
C6
7C
ENDCHAR
STARTCHAR uni0054
ENCODING 84
SWIDTH 602 0
DWIDTH 10 0
BBX 9 12 0 0
BITMAP
FF80
0C00
0C00
0C00
0C00
0C00
0C00
0C00
0C00
0C00
0C00
0C00
ENDCHAR
STARTCHAR uni0055
ENCODING 85
SWIDTH 602 0
DWIDTH 10 0
BBX 7 12 1 0
BITMAP
C2
C2
C2
C2
C2
C2
C2
C2
C2
C2
66
3C
ENDCHAR
STARTCHAR uni0056
ENCODING 86
SWIDTH 602 0
DWIDTH 10 0
BBX 9 12 0 0
BITMAP
C180
4180
6100
6100
2300
2300
3200
1200
1600
1C00
1C00
0C00
ENDCHAR
STARTCHAR uni0057
ENCODING 87
SWIDTH 602 0
DWIDTH 10 0
BBX 10 12 0 0
BITMAP
C0C0
C080
C080
4C80
4C80
5D80
5580
5780
7300
7300
3300
2300
ENDCHAR
STARTCHAR uni0058
ENCODING 88
SWIDTH 602 0
DWIDTH 10 0
BBX 9 12 0 0
BITMAP
6180
2100
3300
1200
1C00
0C00
0C00
1E00
3200
2300
6180
C080
ENDCHAR
STARTCHAR uni0059
ENCODING 89
SWIDTH 602 0
DWIDTH 10 0
BBX 9 12 0 0
BITMAP
C180
6180
2300
3200
1600
1C00
0C00
0C00
0C00
0C00
0C00
0C00
ENDCHAR
STARTCHAR uni005A
ENCODING 90
SWIDTH 602 0
DWIDTH 10 0
BBX 8 12 1 0
BITMAP
FF
02
06
0C
08
18
10
30
60
40
C0
FF
ENDCHAR
STARTCHAR uni005B
ENCODING 91
SWIDTH 602 0
DWIDTH 10 0
BBX 4 15 3 -2
BITMAP
F0
80
80
80
80
80
80
80
80
80
80
80
80
80
F0
ENDCHAR
STARTCHAR uni005C
ENCODING 92
SWIDTH 602 0
DWIDTH 10 0
BBX 8 13 1 -1
BITMAP
C0
40
60
20
30
10
18
08
0C
04
04
06
03
ENDCHAR
STARTCHAR uni005D
ENCODING 93
SWIDTH 602 0
DWIDTH 10 0
BBX 5 15 2 -2
BITMAP
F8
08
08
08
08
08
08
08
08
08
08
08
08
08
F8
ENDCHAR
STARTCHAR uni005E
ENCODING 94
SWIDTH 602 0
DWIDTH 10 0
BBX 8 5 1 7
BITMAP
18
38
2C
46
83
ENDCHAR
STARTCHAR uni005F
ENCODING 95
SWIDTH 602 0
DWIDTH 10 0
BBX 8 1 1 -2
BITMAP
FF
ENDCHAR
STARTCHAR uni0060
ENCODING 96
SWIDTH 602 0
DWIDTH 10 0
BBX 4 3 2 10
BITMAP
C0
60
30
ENDCHAR
STARTCHAR uni0061
ENCODING 97
SWIDTH 602 0
DWIDTH 10 0
BBX 8 9 1 0
BITMAP
7C
46
02
7E
C2
C2
C6
C6
7B
ENDCHAR
STARTCHAR uni0062
ENCODING 98
SWIDTH 602 0
DWIDTH 10 0
BBX 7 12 2 0
BITMAP
80
80
80
B8
CC
84
86
86
86
84
CC
B8
ENDCHAR
STARTCHAR uni0063
ENCODING 99
SWIDTH 602 0
DWIDTH 10 0
BBX 7 9 1 0
BITMAP
3E
62
40
C0
C0
C0
40
62
3E
ENDCHAR
STARTCHAR uni0064
ENCODING 100
SWIDTH 602 0
DWIDTH 10 0
BBX 7 12 1 0
BITMAP
02
02
02
3A
66
C6
C2
82
C2
C6
66
3A
ENDCHAR
STARTCHAR uni0065
ENCODING 101
SWIDTH 602 0
DWIDTH 10 0
BBX 8 9 1 0
BITMAP
3C
66
C2
C3
FF
80
C0
62
3E
ENDCHAR
STARTCHAR uni0066
ENCODING 102
SWIDTH 602 0
DWIDTH 10 0
BBX 7 12 1 0
BITMAP
1E
10
10
FE
10
10
10
10
10
10
10
10
ENDCHAR
STARTCHAR uni0067
ENCODING 103
SWIDTH 602 0
DWIDTH 10 0
BBX 7 12 1 -3
BITMAP
3A
66
C2
C2
C2
C2
C2
66
3A
02
46
7C
ENDCHAR
STARTCHAR uni0068
ENCODING 104
SWIDTH 602 0
DWIDTH 10 0
BBX 6 12 2 0
BITMAP
80
80
80
B8
CC
84
84
84
84
84
84
84
ENDCHAR
STARTCHAR uni0069
ENCODING 105
SWIDTH 602 0
DWIDTH 10 0
BBX 7 12 2 0
BITMAP
20
00
00
E0
20
20
20
20
20
30
30
1E
ENDCHAR
STARTCHAR uni006A
ENCODING 106
SWIDTH 602 0
DWIDTH 10 0
BBX 5 15 2 -3
BITMAP
10
00
00
78
18
18
18
18
18
18
18
18
10
10
E0
ENDCHAR
STARTCHAR uni006B
ENCODING 107
SWIDTH 602 0
DWIDTH 10 0
BBX 7 12 2 0
BITMAP
80
80
80
86
88
90
A0
F0
98
8C
84
86
ENDCHAR
STARTCHAR uni006C
ENCODING 108
SWIDTH 602 0
DWIDTH 10 0
BBX 7 12 1 0
BITMAP
F0
10
10
10
10
10
10
10
10
10
18
0E
ENDCHAR
STARTCHAR uni006D
ENCODING 109
SWIDTH 602 0
DWIDTH 10 0
BBX 8 9 1 0
BITMAP
F6
DB
99
99
99
99
99
99
99
ENDCHAR
STARTCHAR uni006E
ENCODING 110
SWIDTH 602 0
DWIDTH 10 0
BBX 6 9 2 0
BITMAP
B8
CC
84
84
84
84
84
84
84
ENDCHAR
STARTCHAR uni006F
ENCODING 111
SWIDTH 602 0
DWIDTH 10 0
BBX 8 9 1 0
BITMAP
3C
66
C2
C3
C3
C3
C2
66
3C
ENDCHAR
STARTCHAR uni0070
ENCODING 112
SWIDTH 602 0
DWIDTH 10 0
BBX 8 12 1 -3
BITMAP
DC
E6
C2
C3
C3
C3
C2
E6
DC
C0
C0
C0
ENDCHAR
STARTCHAR uni0071
ENCODING 113
SWIDTH 602 0
DWIDTH 10 0
BBX 7 12 1 -3
BITMAP
3A
66
C6
C2
C2
C2
C6
66
3A
02
02
02
ENDCHAR
STARTCHAR uni0072
ENCODING 114
SWIDTH 602 0
DWIDTH 10 0
BBX 7 9 2 0
BITMAP
DE
E2
C0
C0
C0
C0
C0
C0
C0
ENDCHAR
STARTCHAR uni0073
ENCODING 115
SWIDTH 602 0
DWIDTH 10 0
BBX 6 9 2 0
BITMAP
7C
C4
80
C0
78
0C
04
8C
F8
ENDCHAR
STARTCHAR uni0074
ENCODING 116
SWIDTH 602 0
DWIDTH 10 0
BBX 7 12 1 0
BITMAP
10
30
30
FE
30
30
30
30
30
30
10
1E
ENDCHAR
STARTCHAR uni0075
ENCODING 117
SWIDTH 602 0
DWIDTH 10 0
BBX 6 9 2 0
BITMAP
84
84
84
84
84
84
84
CC
74
ENDCHAR
STARTCHAR uni0076
ENCODING 118
SWIDTH 602 0
DWIDTH 10 0
BBX 8 9 1 0
BITMAP
83
C2
42
46
64
24
2C
38
18
ENDCHAR
STARTCHAR uni0077
ENCODING 119
SWIDTH 602 0
DWIDTH 10 0
BBX 10 9 0 0
BITMAP
C0C0
C080
4080
4D80
4D80
7500
7500
3300
3300
ENDCHAR
STARTCHAR uni0078
ENCODING 120
SWIDTH 602 0
DWIDTH 10 0
BBX 8 9 1 0
BITMAP
C3
66
2C
38
18
38
64
46
C3
ENDCHAR
STARTCHAR uni0079
ENCODING 121
SWIDTH 602 0
DWIDTH 10 0
BBX 8 12 1 -3
BITMAP
C3
C2
42
66
24
2C
38
18
18
10
30
E0
ENDCHAR
STARTCHAR uni007A
ENCODING 122
SWIDTH 602 0
DWIDTH 10 0
BBX 6 9 2 0
BITMAP
FC
0C
08
18
30
60
C0
80
FC
ENDCHAR
STARTCHAR uni007B
ENCODING 123
SWIDTH 602 0
DWIDTH 10 0
BBX 7 15 1 -2
BITMAP
0E
18
10
10
10
10
30
E0
30
10
10
10
10
18
1E
ENDCHAR
STARTCHAR uni007C
ENCODING 124
SWIDTH 602 0
DWIDTH 10 0
BBX 1 16 4 -4
BITMAP
80
80
80
80
80
80
80
80
80
80
80
80
80
80
80
80
ENDCHAR
STARTCHAR uni007D
ENCODING 125
SWIDTH 602 0
DWIDTH 10 0
BBX 7 15 2 -2
BITMAP
E0
30
30
30
30
30
10
0E
18
30
30
30
30
30
E0
ENDCHAR
STARTCHAR uni007E
ENCODING 126
SWIDTH 602 0
DWIDTH 10 0
BBX 8 4 1 3
BITMAP
61
91
9B
8E
ENDCHAR
STARTCHAR uni00A0
ENCODING 160
SWIDTH 602 0
DWIDTH 10 0
BBX 1 1 0 0
BITMAP
00
ENDCHAR
STARTCHAR uni00A1
ENCODING 161
SWIDTH 602 0
DWIDTH 10 0
BBX 2 12 4 0
BITMAP
C0
C0
C0
00
80
C0
C0
C0
C0
C0
C0
C0
ENDCHAR
STARTCHAR uni00A2
ENCODING 162
SWIDTH 602 0
DWIDTH 10 0
BBX 6 14 2 -2
BITMAP
10
10
10
7C
D4
D0
90
90
90
D0
74
3C
10
10
ENDCHAR
STARTCHAR uni00A3
ENCODING 163
SWIDTH 602 0
DWIDTH 10 0
BBX 8 12 1 0
BITMAP
1F
31
30
30
30
30
FC
30
30
30
30
FF
ENDCHAR
STARTCHAR uni00A4
ENCODING 164
SWIDTH 602 0
DWIDTH 10 0
BBX 7 7 2 1
BITMAP
86
FC
48
84
4C
FC
86
ENDCHAR
STARTCHAR uni00A5
ENCODING 165
SWIDTH 602 0
DWIDTH 10 0
BBX 9 12 0 0
BITMAP
C180
6180
2300
3300
1600
7F80
0C00
7F80
0C00
0C00
0C00
0C00
ENDCHAR
STARTCHAR uni00A6
ENCODING 166
SWIDTH 602 0
DWIDTH 10 0
BBX 1 14 4 -3
BITMAP
80
80
80
80
80
80
00
00
80
80
80
80
80
80
ENDCHAR
STARTCHAR uni00A7
ENCODING 167
SWIDTH 602 0
DWIDTH 10 0
BBX 6 13 2 -1
BITMAP
78
C8
C0
C0
F0
9C
84
C4
68
18
0C
8C
F8
ENDCHAR
STARTCHAR uni00A8
ENCODING 168
SWIDTH 602 0
DWIDTH 10 0
BBX 5 1 2 11
BITMAP
C8
ENDCHAR
STARTCHAR uni00A9
ENCODING 169
SWIDTH 602 0
DWIDTH 10 0
BBX 10 10 0 1
BITMAP
1E00
6300
5E80
B280
A040
A040
B040
5E80
6100
3E00
ENDCHAR
STARTCHAR uni00AA
ENCODING 170
SWIDTH 602 0
DWIDTH 10 0
BBX 6 8 2 4
BITMAP
70
08
78
88
88
78
00
FC
ENDCHAR
STARTCHAR uni00AB
ENCODING 171
SWIDTH 602 0
DWIDTH 10 0
BBX 7 7 1 1
BITMAP
22
64
C8
98
4C
26
12
ENDCHAR
STARTCHAR uni00AC
ENCODING 172
SWIDTH 602 0
DWIDTH 10 0
BBX 8 4 1 3
BITMAP
FF
01
01
01
ENDCHAR
STARTCHAR uni00AD
ENCODING 173
SWIDTH 602 0
DWIDTH 10 0
BBX 4 1 3 4
BITMAP
F0
ENDCHAR
STARTCHAR uni00AE
ENCODING 174
SWIDTH 602 0
DWIDTH 10 0
BBX 10 10 0 1
BITMAP
1E00
6300
5C80
9280
9240
9C40
9440
5280
6100
3E00
ENDCHAR
STARTCHAR uni00AF
ENCODING 175
SWIDTH 602 0
DWIDTH 10 0
BBX 5 1 2 11
BITMAP
F8
ENDCHAR
STARTCHAR uni00B0
ENCODING 176
SWIDTH 602 0
DWIDTH 10 0
BBX 5 5 2 7
BITMAP
70
48
88
C8
78
ENDCHAR
STARTCHAR uni00B1
ENCODING 177
SWIDTH 602 0
DWIDTH 10 0
BBX 8 9 1 0
BITMAP
10
10
FF
10
10
10
10
00
FF
ENDCHAR
STARTCHAR uni00B2
ENCODING 178
SWIDTH 602 0
DWIDTH 10 0
BBX 4 6 3 9
BITMAP
E0
10
30
20
C0
F0
ENDCHAR
STARTCHAR uni00B3
ENCODING 179
SWIDTH 602 0
DWIDTH 10 0
BBX 4 6 3 9
BITMAP
F0
10
60
10
10
E0
ENDCHAR
STARTCHAR uni00B4
ENCODING 180
SWIDTH 602 0
DWIDTH 10 0
BBX 3 3 4 10
BITMAP
20
40
80
ENDCHAR
STARTCHAR uni00B5
ENCODING 181
SWIDTH 602 0
DWIDTH 10 0
BBX 8 12 1 -3
BITMAP
C2
C2
C2
C2
C2
C2
C6
E6
FB
C0
C0
C0
ENDCHAR
STARTCHAR uni00B6
ENCODING 182
SWIDTH 602 0
DWIDTH 10 0
BBX 7 14 1 -2
BITMAP
7E
F2
F2
F2
F2
F2
32
12
12
12
12
12
12
12
ENDCHAR
STARTCHAR uni00B7
ENCODING 183
SWIDTH 602 0
DWIDTH 10 0
BBX 2 3 4 5
BITMAP
C0
C0
C0
ENDCHAR
STARTCHAR uni00B8
ENCODING 184
SWIDTH 602 0
DWIDTH 10 0
BBX 3 3 3 -3
BITMAP
20
20
E0
ENDCHAR
STARTCHAR uni00B9
ENCODING 185
SWIDTH 602 0
DWIDTH 10 0
BBX 4 6 3 9
BITMAP
E0
60
60
60
60
F0
ENDCHAR
STARTCHAR uni00BA
ENCODING 186
SWIDTH 602 0
DWIDTH 10 0
BBX 6 8 2 4
BITMAP
70
C8
8C
8C
C8
70
00
F8
ENDCHAR
STARTCHAR uni00BB
ENCODING 187
SWIDTH 602 0
DWIDTH 10 0
BBX 7 7 2 1
BITMAP
90
C8
64
26
4C
98
90
ENDCHAR
STARTCHAR uni00BC
ENCODING 188
SWIDTH 602 0
DWIDTH 10 0
BBX 9 15 0 -2
BITMAP
3000
7000
3000
3000
3000
3000
7880
0F00
F000
0300
0500
0900
0900
0F80
0100
ENDCHAR
STARTCHAR uni00BD
ENCODING 189
SWIDTH 602 0
DWIDTH 10 0
BBX 9 15 0 -2
BITMAP
7000
B000
3000
3000
3000
3000
7880
1F00
EF00
0980
0100
0100
0200
0400
0F80
ENDCHAR
STARTCHAR uni00BE
ENCODING 190
SWIDTH 602 0
DWIDTH 10 0
BBX 9 15 0 -2
BITMAP
7800
4800
0800
3000
0800
0800
7880
0F00
F000
0300
0500
0900
0900
0F80
0100
ENDCHAR
STARTCHAR uni00BF
ENCODING 191
SWIDTH 602 0
DWIDTH 10 0
BBX 6 12 2 0
BITMAP
30
30
00
30
30
30
60
C0
80
80
CC
78
ENDCHAR
STARTCHAR uni00C0
ENCODING 192
SWIDTH 602 0
DWIDTH 10 0
BBX 9 15 0 0
BITMAP
1000
0800
0400
0C00
1C00
1E00
1600
1200
3200
3300
2300
7F00
6180
4180
C080
ENDCHAR
STARTCHAR uni00C1
ENCODING 193
SWIDTH 602 0
DWIDTH 10 0
BBX 9 15 0 0
BITMAP
0600
0C00
0000
0C00
1C00
1E00
1600
1200
3200
3300
2300
7F00
6180
4180
C080
ENDCHAR
STARTCHAR uni00C2
ENCODING 194
SWIDTH 602 0
DWIDTH 10 0
BBX 9 15 0 0
BITMAP
0C00
1600
2000
0C00
1C00
1E00
1600
1200
3200
3300
2300
7F00
6180
4180
C080
ENDCHAR
STARTCHAR uni00C3
ENCODING 195
SWIDTH 602 0
DWIDTH 10 0
BBX 9 14 0 0
BITMAP
1A00
2600
0C00
1C00
1E00
1600
1200
3200
3300
2300
7F00
6180
4180
C080
ENDCHAR
STARTCHAR uni00C4
ENCODING 196
SWIDTH 602 0
DWIDTH 10 0
BBX 9 14 0 0
BITMAP
3200
0000
0C00
1C00
1E00
1600
1200
3200
3300
2300
7F00
6180
4180
C080
ENDCHAR
STARTCHAR uni00C5
ENCODING 197
SWIDTH 602 0
DWIDTH 10 0
BBX 9 15 0 0
BITMAP
1C00
1200
1200
1C00
1C00
1E00
1600
1200
3200
3300
2300
7F00
6180
4180
C080
ENDCHAR
STARTCHAR uni00C6
ENCODING 198
SWIDTH 602 0
DWIDTH 10 0
BBX 9 12 0 0
BITMAP
1F80
1400
1400
3400
2400
2780
6400
6400
7C00
4400
C400
C780
ENDCHAR
STARTCHAR uni00C7
ENCODING 199
SWIDTH 602 0
DWIDTH 10 0
BBX 7 15 1 -3
BITMAP
1E
62
40
C0
C0
C0
C0
C0
C0
40
62
3E
04
04
1C
ENDCHAR
STARTCHAR uni00C8
ENCODING 200
SWIDTH 602 0
DWIDTH 10 0
BBX 7 15 2 0
BITMAP
60
30
00
FC
80
80
80
80
FC
80
80
80
80
80
FE
ENDCHAR
STARTCHAR uni00C9
ENCODING 201
SWIDTH 602 0
DWIDTH 10 0
BBX 7 15 2 0
BITMAP
18
30
00
FC
80
80
80
80
FC
80
80
80
80
80
FE
ENDCHAR
STARTCHAR uni00CA
ENCODING 202
SWIDTH 602 0
DWIDTH 10 0
BBX 7 15 2 0
BITMAP
30
48
00
FC
80
80
80
80
FC
80
80
80
80
80
FE
ENDCHAR
STARTCHAR uni00CB
ENCODING 203
SWIDTH 602 0
DWIDTH 10 0
BBX 7 14 2 0
BITMAP
48
00
FC
80
80
80
80
FC
80
80
80
80
80
FE
ENDCHAR
STARTCHAR uni00CC
ENCODING 204
SWIDTH 602 0
DWIDTH 10 0
BBX 6 15 2 0
BITMAP
60
30
00
FC
30
30
30
30
30
30
30
30
30
30
FC
ENDCHAR
STARTCHAR uni00CD
ENCODING 205
SWIDTH 602 0
DWIDTH 10 0
BBX 6 15 2 0
BITMAP
18
30
00
FC
30
30
30
30
30
30
30
30
30
30
FC
ENDCHAR
STARTCHAR uni00CE
ENCODING 206
SWIDTH 602 0
DWIDTH 10 0
BBX 6 15 2 0
BITMAP
30
58
80
FC
30
30
30
30
30
30
30
30
30
30
FC
ENDCHAR
STARTCHAR uni00CF
ENCODING 207
SWIDTH 602 0
DWIDTH 10 0
BBX 6 14 2 0
BITMAP
C8
00
FC
30
30
30
30
30
30
30
30
30
30
FC
ENDCHAR
STARTCHAR uni00D0
ENCODING 208
SWIDTH 602 0
DWIDTH 10 0
BBX 9 12 0 0
BITMAP
7C00
6600
6300
6100
6180
F980
6180
6180
6100
6300
6600
7C00
ENDCHAR
STARTCHAR uni00D1
ENCODING 209
SWIDTH 602 0
DWIDTH 10 0
BBX 8 15 1 0
BITMAP
34
4C
00
C3
E3
E3
E3
D3
D3
DB
CB
CB
C7
C7
C7
ENDCHAR
STARTCHAR uni00D2
ENCODING 210
SWIDTH 602 0
DWIDTH 10 0
BBX 8 15 1 0
BITMAP
30
10
08
3C
66
C2
C3
C3
C3
C3
C3
C3
C2
66
3C
ENDCHAR
STARTCHAR uni00D3
ENCODING 211
SWIDTH 602 0
DWIDTH 10 0
BBX 8 15 1 0
BITMAP
0C
18
00
3C
66
C2
C3
C3
C3
C3
C3
C3
C2
66
3C
ENDCHAR
STARTCHAR uni00D4
ENCODING 212
SWIDTH 602 0
DWIDTH 10 0
BBX 8 15 1 0
BITMAP
18
24
00
3C
66
C2
C3
C3
C3
C3
C3
C3
C2
66
3C
ENDCHAR
STARTCHAR uni00D5
ENCODING 213
SWIDTH 602 0
DWIDTH 10 0
BBX 8 15 1 0
BITMAP
34
4C
00
3C
66
C2
C3
C3
C3
C3
C3
C3
C2
66
3C
ENDCHAR
STARTCHAR uni00D6
ENCODING 214
SWIDTH 602 0
DWIDTH 10 0
BBX 8 15 1 0
BITMAP
64
00
00
3C
66
C2
C3
C3
C3
C3
C3
C3
C2
66
3C
ENDCHAR
STARTCHAR uni00D7
ENCODING 215
SWIDTH 602 0
DWIDTH 10 0
BBX 7 8 1 1
BITMAP
42
C6
6C
38
38
6C
C6
42
ENDCHAR
STARTCHAR uni00D8
ENCODING 216
SWIDTH 602 0
DWIDTH 10 0
BBX 9 12 0 0
BITMAP
1E80
3300
6100
6380
6580
6D80
6980
7180
7180
6100
7300
9E00
ENDCHAR
STARTCHAR uni00D9
ENCODING 217
SWIDTH 602 0
DWIDTH 10 0
BBX 7 15 1 0
BITMAP
30
18
00
C2
C2
C2
C2
C2
C2
C2
C2
C2
C2
66
3C
ENDCHAR
STARTCHAR uni00DA
ENCODING 218
SWIDTH 602 0
DWIDTH 10 0
BBX 7 15 1 0
BITMAP
0C
10
00
C2
C2
C2
C2
C2
C2
C2
C2
C2
C2
66
3C
ENDCHAR
STARTCHAR uni00DB
ENCODING 219
SWIDTH 602 0
DWIDTH 10 0
BBX 7 15 1 0
BITMAP
18
2C
40
C2
C2
C2
C2
C2
C2
C2
C2
C2
C2
66
3C
ENDCHAR
STARTCHAR uni00DC
ENCODING 220
SWIDTH 602 0
DWIDTH 10 0
BBX 7 15 1 0
BITMAP
64
00
00
C2
C2
C2
C2
C2
C2
C2
C2
C2
C2
66
3C
ENDCHAR
STARTCHAR uni00DD
ENCODING 221
SWIDTH 602 0
DWIDTH 10 0
BBX 9 15 0 0
BITMAP
0600
0800
0000
C180
6180
2300
3200
1600
1C00
0C00
0C00
0C00
0C00
0C00
0C00
ENDCHAR
STARTCHAR uni00DE
ENCODING 222
SWIDTH 602 0
DWIDTH 10 0
BBX 7 12 2 0
BITMAP
80
80
FC
8E
86
86
86
86
FC
80
80
80
ENDCHAR
STARTCHAR uni00DF
ENCODING 223
SWIDTH 602 0
DWIDTH 10 0
BBX 8 12 1 0
BITMAP
3C
66
42
CC
D8
D8
CC
C6
C3
C1
E3
DE
ENDCHAR
STARTCHAR uni00E0
ENCODING 224
SWIDTH 602 0
DWIDTH 10 0
BBX 8 14 1 0
BITMAP
60
20
10
08
00
7C
46
02
7E
C2
C2
C6
CE
7B
ENDCHAR
STARTCHAR uni00E1
ENCODING 225
SWIDTH 602 0
DWIDTH 10 0
BBX 8 14 1 0
BITMAP
04
0C
18
10
00
7C
46
02
3E
C2
C2
C6
CE
7B
ENDCHAR
STARTCHAR uni00E2
ENCODING 226
SWIDTH 602 0
DWIDTH 10 0
BBX 8 14 1 0
BITMAP
10
18
24
44
00
7C
46
02
7E
C2
C2
C6
CE
7B
ENDCHAR
STARTCHAR uni00E3
ENCODING 227
SWIDTH 602 0
DWIDTH 10 0
BBX 8 13 1 0
BITMAP
34
4C
00
00
7C
46
02
7E
C2
C2
C6
CE
7B
ENDCHAR
STARTCHAR uni00E4
ENCODING 228
SWIDTH 602 0
DWIDTH 10 0
BBX 8 12 1 0
BITMAP
24
00
00
7C
46
02
7E
C2
C2
C6
CE
7B
ENDCHAR
STARTCHAR uni00E5
ENCODING 229
SWIDTH 602 0
DWIDTH 10 0
BBX 8 14 1 0
BITMAP
38
24
24
38
00
7C
46
02
7E
C2
C2
C6
CE
7B
ENDCHAR
STARTCHAR uni00E6
ENCODING 230
SWIDTH 602 0
DWIDTH 10 0
BBX 9 9 0 0
BITMAP
7700
4C80
0C80
0C80
7F80
CC00
CC00
CC80
7780
ENDCHAR
STARTCHAR uni00E7
ENCODING 231
SWIDTH 602 0
DWIDTH 10 0
BBX 7 12 1 -3
BITMAP
3E
62
40
C0
C0
C0
40
62
3E
04
04
1C
ENDCHAR
STARTCHAR uni00E8
ENCODING 232
SWIDTH 602 0
DWIDTH 10 0
BBX 8 14 1 0
BITMAP
60
30
10
08
00
3C
66
C2
C3
FF
80
C0
62
3E
ENDCHAR
STARTCHAR uni00E9
ENCODING 233
SWIDTH 602 0
DWIDTH 10 0
BBX 8 14 1 0
BITMAP
06
0C
08
10
00
3C
66
C2
C3
FF
80
C0
62
3E
ENDCHAR
STARTCHAR uni00EA
ENCODING 234
SWIDTH 602 0
DWIDTH 10 0
BBX 8 14 1 0
BITMAP
18
18
24
64
00
3C
66
C2
C3
FF
80
C0
62
3E
ENDCHAR
STARTCHAR uni00EB
ENCODING 235
SWIDTH 602 0
DWIDTH 10 0
BBX 8 12 1 0
BITMAP
24
00
00
3C
66
C2
C3
FF
80
C0
62
3E
ENDCHAR
STARTCHAR uni00EC
ENCODING 236
SWIDTH 602 0
DWIDTH 10 0
BBX 7 13 2 0
BITMAP
C0
40
20
00
E0
20
20
20
20
20
30
30
1E
ENDCHAR
STARTCHAR uni00ED
ENCODING 237
SWIDTH 602 0
DWIDTH 10 0
BBX 7 13 2 0
BITMAP
0C
10
30
00
E0
20
20
20
20
20
30
30
1E
ENDCHAR
STARTCHAR uni00EE
ENCODING 238
SWIDTH 602 0
DWIDTH 10 0
BBX 7 13 2 0
BITMAP
20
50
C8
00
E0
20
20
20
20
20
30
30
1E
ENDCHAR
STARTCHAR uni00EF
ENCODING 239
SWIDTH 602 0
DWIDTH 10 0
BBX 7 12 2 0
BITMAP
D8
00
00
E0
20
20
20
20
20
30
30
1E
ENDCHAR
STARTCHAR uni00F0
ENCODING 240
SWIDTH 602 0
DWIDTH 10 0
BBX 8 12 1 0
BITMAP
76
38
48
3C
66
C2
C2
C3
C3
C2
66
3C
ENDCHAR
STARTCHAR uni00F1
ENCODING 241
SWIDTH 602 0
DWIDTH 10 0
BBX 6 12 2 0
BITMAP
68
B8
00
B8
CC
84
84
84
84
84
84
84
ENDCHAR
STARTCHAR uni00F2
ENCODING 242
SWIDTH 602 0
DWIDTH 10 0
BBX 8 14 1 0
BITMAP
60
20
10
08
00
3C
66
C2
C3
C3
C3
C2
66
3C
ENDCHAR
STARTCHAR uni00F3
ENCODING 243
SWIDTH 602 0
DWIDTH 10 0
BBX 8 14 1 0
BITMAP
04
0C
18
10
00
3C
66
C2
C3
C3
C3
C2
66
3C
ENDCHAR
STARTCHAR uni00F4
ENCODING 244
SWIDTH 602 0
DWIDTH 10 0
BBX 8 14 1 0
BITMAP
10
18
24
44
00
3C
66
C2
C3
C3
C3
C2
66
3C
ENDCHAR
STARTCHAR uni00F5
ENCODING 245
SWIDTH 602 0
DWIDTH 10 0
BBX 8 12 1 0
BITMAP
34
5C
00
3C
66
C2
C3
C3
C3
C2
66
3C
ENDCHAR
STARTCHAR uni00F6
ENCODING 246
SWIDTH 602 0
DWIDTH 10 0
BBX 8 12 1 0
BITMAP
64
00
00
3C
66
C2
C3
C3
C3
C2
66
3C
ENDCHAR
STARTCHAR uni00F7
ENCODING 247
SWIDTH 602 0
DWIDTH 10 0
BBX 8 8 1 1
BITMAP
18
18
00
FF
00
00
18
18
ENDCHAR
STARTCHAR uni00F8
ENCODING 248
SWIDTH 602 0
DWIDTH 10 0
BBX 9 11 0 -1
BITMAP
0080
1E80
3300
6300
6580
6980
7980
7100
3300
DE00
4000
ENDCHAR
STARTCHAR uni00F9
ENCODING 249
SWIDTH 602 0
DWIDTH 10 0
BBX 6 13 2 0
BITMAP
C0
60
30
00
84
84
84
84
84
84
84
CC
74
ENDCHAR
STARTCHAR uni00FA
ENCODING 250
SWIDTH 602 0
DWIDTH 10 0
BBX 6 13 2 0
BITMAP
08
10
20
00
84
84
84
84
84
84
84
CC
74
ENDCHAR
STARTCHAR uni00FB
ENCODING 251
SWIDTH 602 0
DWIDTH 10 0
BBX 6 13 2 0
BITMAP
30
50
C8
00
84
84
84
84
84
84
84
CC
74
ENDCHAR
STARTCHAR uni00FC
ENCODING 252
SWIDTH 602 0
DWIDTH 10 0
BBX 6 12 2 0
BITMAP
C8
00
00
84
84
84
84
84
84
84
CC
74
ENDCHAR
STARTCHAR uni00FD
ENCODING 253
SWIDTH 602 0
DWIDTH 10 0
BBX 8 16 1 -3
BITMAP
0C
08
10
00
C3
C2
42
66
24
2C
38
18
18
10
30
E0
ENDCHAR
STARTCHAR uni00FE
ENCODING 254
SWIDTH 602 0
DWIDTH 10 0
BBX 8 15 1 -3
BITMAP
C0
C0
C0
DC
E6
C2
C3
C3
C3
C2
E6
DC
C0
C0
C0
ENDCHAR
STARTCHAR uni00FF
ENCODING 255
SWIDTH 602 0
DWIDTH 10 0
BBX 8 15 1 -3
BITMAP
64
00
00
C3
C2
42
66
24
2C
38
18
18
10
30
E0
ENDCHAR
STARTCHAR uni0100
ENCODING 256
SWIDTH 602 0
DWIDTH 10 0
BBX 9 14 0 0
BITMAP
3E00
0000
0C00
1C00
1E00
1600
1200
3200
3300
2300
7F00
6180
4180
C080
ENDCHAR
STARTCHAR uni0101
ENCODING 257
SWIDTH 602 0
DWIDTH 10 0
BBX 8 12 1 0
BITMAP
7C
00
00
7C
46
02
7E
C2
C2
C6
CE
7B
ENDCHAR
STARTCHAR uni0102
ENCODING 258
SWIDTH 602 0
DWIDTH 10 0
BBX 9 15 0 0
BITMAP
2200
1E00
0000
0C00
1C00
1E00
1600
1200
3200
3300
2300
7F00
6180
4180
C080
ENDCHAR
STARTCHAR uni0103
ENCODING 259
SWIDTH 602 0
DWIDTH 10 0
BBX 8 12 1 0
BITMAP
7C
00
00
7C
46
02
7E
C2
C2
C6
CE
7B
ENDCHAR
STARTCHAR uni0104
ENCODING 260
SWIDTH 602 0
DWIDTH 10 0
BBX 10 15 0 -3
BITMAP
0C00
1C00
1E00
1600
1200
3200
3300
2300
7F00
6180
4180
C080
0100
0100
01C0
ENDCHAR
STARTCHAR uni0105
ENCODING 261
SWIDTH 602 0
DWIDTH 10 0
BBX 8 12 1 -3
BITMAP
7C
46
02
7E
C2
C2
C6
CE
7B
02
06
03
ENDCHAR
STARTCHAR uni0106
ENCODING 262
SWIDTH 602 0
DWIDTH 10 0
BBX 7 15 1 0
BITMAP
04
08
10
1E
62
40
C0
C0
C0
C0
C0
C0
40
62
1E
ENDCHAR
STARTCHAR uni0107
ENCODING 263
SWIDTH 602 0
DWIDTH 10 0
BBX 7 14 1 0
BITMAP
06
04
08
10
00
3E
62
40
C0
C0
C0
40
62
3E
ENDCHAR
STARTCHAR uni0108
ENCODING 264
SWIDTH 602 0
DWIDTH 10 0
BBX 7 15 1 0
BITMAP
18
34
02
1E
62
40
C0
C0
C0
C0
C0
C0
40
62
1E
ENDCHAR
STARTCHAR uni0109
ENCODING 265
SWIDTH 602 0
DWIDTH 10 0
BBX 7 14 1 0
BITMAP
08
18
24
26
00
3E
62
40
C0
C0
C0
40
62
3E
ENDCHAR
STARTCHAR uni010A
ENCODING 266
SWIDTH 602 0
DWIDTH 10 0
BBX 7 15 1 0
BITMAP
08
00
00
1E
62
40
C0
C0
C0
C0
C0
C0
40
62
1E
ENDCHAR
STARTCHAR uni010B
ENCODING 267
SWIDTH 602 0
DWIDTH 10 0
BBX 7 12 1 0
BITMAP
18
00
00
3E
62
40
C0
C0
C0
40
62
3E
ENDCHAR
STARTCHAR uni010C
ENCODING 268
SWIDTH 602 0
DWIDTH 10 0
BBX 7 15 1 0
BITMAP
36
14
08
1E
62
40
C0
C0
C0
C0
C0
C0
40
62
1E
ENDCHAR
STARTCHAR uni010D
ENCODING 269
SWIDTH 602 0
DWIDTH 10 0
BBX 7 14 1 0
BITMAP
22
34
1C
08
00
3E
62
40
C0
C0
C0
40
62
3E
ENDCHAR
STARTCHAR uni010E
ENCODING 270
SWIDTH 602 0
DWIDTH 10 0
BBX 8 15 1 0
BITMAP
4C
30
00
F8
CC
C6
C2
C3
C3
C3
C3
C2
C6
CC
F8
ENDCHAR
STARTCHAR uni010F
ENCODING 271
SWIDTH 602 0
DWIDTH 10 0
BBX 9 12 1 0
BITMAP
0680
0780
0780
7E00
CE00
C600
8600
8600
8600
C600
CE00
7A00
ENDCHAR
STARTCHAR uni0110
ENCODING 272
SWIDTH 602 0
DWIDTH 10 0
BBX 9 12 0 0
BITMAP
7C00
6600
6300
6100
6180
F980
6180
6180
6100
6300
6600
7C00
ENDCHAR
STARTCHAR uni0111
ENCODING 273
SWIDTH 602 0
DWIDTH 10 0
BBX 9 12 1 0
BITMAP
0200
1F80
0200
3A00
6600
C600
C200
8200
C200
C600
6600
3A00
ENDCHAR
STARTCHAR uni0112
ENCODING 274
SWIDTH 602 0
DWIDTH 10 0
BBX 7 14 2 0
BITMAP
78
00
FC
80
80
80
80
FC
80
80
80
80
80
FE
ENDCHAR
STARTCHAR uni0113
ENCODING 275
SWIDTH 602 0
DWIDTH 10 0
BBX 8 12 1 0
BITMAP
3C
00
00
3C
66
C2
C3
FF
80
C0
62
3E
ENDCHAR
STARTCHAR uni0114
ENCODING 276
SWIDTH 602 0
DWIDTH 10 0
BBX 7 15 2 0
BITMAP
4C
78
00
FC
80
80
80
80
FC
80
80
80
80
80
FE
ENDCHAR
STARTCHAR uni0115
ENCODING 277
SWIDTH 602 0
DWIDTH 10 0
BBX 8 12 1 0
BITMAP
3C
00
00
3C
66
C2
C3
FF
80
C0
62
3E
ENDCHAR
STARTCHAR uni0116
ENCODING 278
SWIDTH 602 0
DWIDTH 10 0
BBX 7 15 2 0
BITMAP
30
00
00
FC
80
80
80
80
FC
80
80
80
80
80
FE
ENDCHAR
STARTCHAR uni0117
ENCODING 279
SWIDTH 602 0
DWIDTH 10 0
BBX 8 12 1 0
BITMAP
18
00
00
3C
66
C2
C3
FF
80
C0
62
3E
ENDCHAR
STARTCHAR uni0118
ENCODING 280
SWIDTH 602 0
DWIDTH 10 0
BBX 7 15 2 -3
BITMAP
FC
80
80
80
80
FC
80
80
80
80
80
FE
08
08
0E
ENDCHAR
STARTCHAR uni0119
ENCODING 281
SWIDTH 602 0
DWIDTH 10 0
BBX 8 12 1 -3
BITMAP
3C
66
C2
C3
FF
80
C0
62
3E
04
08
06
ENDCHAR
STARTCHAR uni011A
ENCODING 282
SWIDTH 602 0
DWIDTH 10 0
BBX 7 15 2 0
BITMAP
48
30
00
FC
80
80
80
80
FC
80
80
80
80
80
FE
ENDCHAR
STARTCHAR uni011B
ENCODING 283
SWIDTH 602 0
DWIDTH 10 0
BBX 8 14 1 0
BITMAP
22
24
18
08
00
3C
66
C2
C3
FF
80
C0
62
3E
ENDCHAR
STARTCHAR uni011C
ENCODING 284
SWIDTH 602 0
DWIDTH 10 0
BBX 8 15 1 0
BITMAP
18
34
02
3E
62
C0
C0
C0
80
8F
C3
C3
C3
63
3E
ENDCHAR
STARTCHAR uni011D
ENCODING 285
SWIDTH 602 0
DWIDTH 10 0
BBX 7 17 1 -3
BITMAP
18
18
24
26
00
3A
66
C2
C2
C2
C2
C2
66
3A
02
46
7C
ENDCHAR
STARTCHAR uni011E
ENCODING 286
SWIDTH 602 0
DWIDTH 10 0
BBX 8 15 1 0
BITMAP
22
3C
00
3E
62
C0
C0
C0
80
8F
C3
C3
C3
63
3E
ENDCHAR
STARTCHAR uni011F
ENCODING 287
SWIDTH 602 0
DWIDTH 10 0
BBX 7 15 1 -3
BITMAP
3C
00
00
3A
66
C2
C2
C2
C2
C2
66
3A
02
46
7C
ENDCHAR
STARTCHAR uni0120
ENCODING 288
SWIDTH 602 0
DWIDTH 10 0
BBX 8 15 1 0
BITMAP
08
00
00
3E
62
C0
C0
C0
80
8F
C3
C3
C3
63
3E
ENDCHAR
STARTCHAR uni0121
ENCODING 289
SWIDTH 602 0
DWIDTH 10 0
BBX 7 15 1 -3
BITMAP
18
00
00
3A
66
C2
C2
C2
C2
C2
66
3A
02
46
7C
ENDCHAR
STARTCHAR uni0122
ENCODING 290
SWIDTH 602 0
DWIDTH 10 0
BBX 8 16 1 -4
BITMAP
3E
62
C0
C0
C0
80
8F
C3
C3
C3
63
3E
00
0C
08
18
ENDCHAR
STARTCHAR uni0123
ENCODING 291
SWIDTH 602 0
DWIDTH 10 0
BBX 7 16 1 -3
BITMAP
0C
08
18
00
3A
66
C2
C2
C2
C2
C2
66
3A
02
46
7C
ENDCHAR
STARTCHAR uni0124
ENCODING 292
SWIDTH 602 0
DWIDTH 10 0
BBX 8 15 1 0
BITMAP
18
2C
40
C3
C3
C3
C3
C3
FF
C3
C3
C3
C3
C3
C3
ENDCHAR
STARTCHAR uni0125
ENCODING 293
SWIDTH 602 0
DWIDTH 10 0
BBX 6 15 2 0
BITMAP
18
28
64
80
80
80
B8
CC
84
84
84
84
84
84
84
ENDCHAR
STARTCHAR uni0126
ENCODING 294
SWIDTH 602 0
DWIDTH 10 0
BBX 10 12 0 0
BITMAP
6180
6180
FFC0
6180
6180
7F80
6180
6180
6180
6180
6180
6180
ENDCHAR
STARTCHAR uni0127
ENCODING 295
SWIDTH 602 0
DWIDTH 10 0
BBX 7 12 1 0
BITMAP
40
F8
40
5C
66
42
42
42
42
42
42
42
ENDCHAR
STARTCHAR uni0128
ENCODING 296
SWIDTH 602 0
DWIDTH 10 0
BBX 6 15 2 0
BITMAP
68
98
00
FC
30
30
30
30
30
30
30
30
30
30
FC
ENDCHAR
STARTCHAR uni0129
ENCODING 297
SWIDTH 602 0
DWIDTH 10 0
BBX 7 12 2 0
BITMAP
68
B8
00
E0
20
20
20
20
20
30
30
1E
ENDCHAR
STARTCHAR uni012A
ENCODING 298
SWIDTH 602 0
DWIDTH 10 0
BBX 6 14 2 0
BITMAP
78
00
FC
30
30
30
30
30
30
30
30
30
30
FC
ENDCHAR
STARTCHAR uni012B
ENCODING 299
SWIDTH 602 0
DWIDTH 10 0
BBX 7 12 2 0
BITMAP
F8
00
00
E0
20
20
20
20
20
30
30
1E
ENDCHAR
STARTCHAR uni012C
ENCODING 300
SWIDTH 602 0
DWIDTH 10 0
BBX 6 15 2 0
BITMAP
88
78
00
FC
30
30
30
30
30
30
30
30
30
30
FC
ENDCHAR
STARTCHAR uni012D
ENCODING 301
SWIDTH 602 0
DWIDTH 10 0
BBX 7 12 2 0
BITMAP
88
78
00
E0
20
20
20
20
20
30
30
1E
ENDCHAR
STARTCHAR uni012E
ENCODING 302
SWIDTH 602 0
DWIDTH 10 0
BBX 6 15 2 -3
BITMAP
FC
30
30
30
30
30
30
30
30
30
30
FC
20
20
38
ENDCHAR
STARTCHAR uni012F
ENCODING 303
SWIDTH 602 0
DWIDTH 10 0
BBX 7 15 2 -3
BITMAP
20
00
00
E0
20
20
20
20
20
30
30
1E
08
08
0E
ENDCHAR
STARTCHAR uni0130
ENCODING 304
SWIDTH 602 0
DWIDTH 10 0
BBX 6 15 2 0
BITMAP
30
00
00
FC
30
30
30
30
30
30
30
30
30
30
FC
ENDCHAR
STARTCHAR uni0131
ENCODING 305
SWIDTH 602 0
DWIDTH 10 0
BBX 7 9 2 0
BITMAP
E0
20
20
20
20
20
30
30
1E
ENDCHAR
STARTCHAR uni0132
ENCODING 306
SWIDTH 602 0
DWIDTH 10 0
BBX 8 12 1 0
BITMAP
DF
C3
C3
C3
C3
C3
C3
C3
C3
03
06
FC
ENDCHAR
STARTCHAR uni0133
ENCODING 307
SWIDTH 602 0
DWIDTH 10 0
BBX 7 15 1 -3
BITMAP
C2
00
00
CE
C2
C2
C2
C2
C2
C2
C2
C2
02
06
3C
ENDCHAR
STARTCHAR uni0134
ENCODING 308
SWIDTH 602 0
DWIDTH 10 0
BBX 8 15 1 0
BITMAP
06
0B
10
3C
04
04
04
04
04
04
04
04
84
8C
F8
ENDCHAR
STARTCHAR uni0135
ENCODING 309
SWIDTH 602 0
DWIDTH 10 0
BBX 6 16 2 -3
BITMAP
18
2C
44
00
78
18
18
18
18
18
18
18
18
10
10
F0
ENDCHAR
STARTCHAR uni0136
ENCODING 310
SWIDTH 602 0
DWIDTH 10 0
BBX 9 16 1 -4
BITMAP
C300
C600
CC00
D800
F000
F000
D800
CC00
CC00
C600
C300
C380
0000
0C00
1800
1000
ENDCHAR
STARTCHAR uni0137
ENCODING 311
SWIDTH 602 0
DWIDTH 10 0
BBX 7 16 2 -4
BITMAP
80
80
80
86
88
90
A0
F0
98
8C
84
86
00
18
10
30
ENDCHAR
STARTCHAR uni0138
ENCODING 312
SWIDTH 602 0
DWIDTH 10 0
BBX 8 9 1 0
BITMAP
C6
CC
D8
F0
F8
C8
CC
C6
C3
ENDCHAR
STARTCHAR uni0139
ENCODING 313
SWIDTH 602 0
DWIDTH 10 0
BBX 7 15 2 0
BITMAP
60
80
00
80
80
80
80
80
80
80
80
80
80
80
FE
ENDCHAR
STARTCHAR uni013A
ENCODING 314
SWIDTH 602 0
DWIDTH 10 0
BBX 7 15 1 0
BITMAP
18
10
20
F0
10
10
10
10
10
10
10
10
10
18
0E
ENDCHAR
STARTCHAR uni013B
ENCODING 315
SWIDTH 602 0
DWIDTH 10 0
BBX 7 16 2 -4
BITMAP
80
80
80
80
80
80
80
80
80
80
80
FE
00
18
30
20
ENDCHAR
STARTCHAR uni013C
ENCODING 316
SWIDTH 602 0
DWIDTH 10 0
BBX 7 16 1 -4
BITMAP
F0
10
10
10
10
10
10
10
10
10
18
0E
00
18
10
30
ENDCHAR
STARTCHAR uni013D
ENCODING 317
SWIDTH 602 0
DWIDTH 10 0
BBX 7 12 2 0
BITMAP
88
98
90
80
80
80
80
80
80
80
80
FE
ENDCHAR
STARTCHAR uni013E
ENCODING 318
SWIDTH 602 0
DWIDTH 10 0
BBX 8 12 1 0
BITMAP
F3
13
12
10
10
10
10
10
10
10
18
0E
ENDCHAR
STARTCHAR uni013F
ENCODING 319
SWIDTH 602 0
DWIDTH 10 0
BBX 7 12 2 0
BITMAP
80
80
80
80
80
80
98
80
80
80
80
FE
ENDCHAR
STARTCHAR uni0140
ENCODING 320
SWIDTH 602 0
DWIDTH 10 0
BBX 7 12 1 0
BITMAP
F0
10
10
10
10
10
12
10
10
10
18
0E
ENDCHAR
STARTCHAR uni0141
ENCODING 321
SWIDTH 602 0
DWIDTH 10 0
BBX 9 12 0 0
BITMAP
2000
2000
2000
2400
2C00
3000
6000
E000
2000
2000
2000
3F80
ENDCHAR
STARTCHAR uni0142
ENCODING 322
SWIDTH 602 0
DWIDTH 10 0
BBX 7 12 1 0
BITMAP
F0
10
10
12
1C
10
70
90
10
10
18
0E
ENDCHAR
STARTCHAR uni0143
ENCODING 323
SWIDTH 602 0
DWIDTH 10 0
BBX 8 15 1 0
BITMAP
0C
18
00
C3
E3
E3
E3
D3
D3
DB
CB
CB
C7
C7
C7
ENDCHAR
STARTCHAR uni0144
ENCODING 324
SWIDTH 602 0
DWIDTH 10 0
BBX 6 13 2 0
BITMAP
0C
10
30
00
B8
CC
84
84
84
84
84
84
84
ENDCHAR
STARTCHAR uni0145
ENCODING 325
SWIDTH 602 0
DWIDTH 10 0
BBX 8 16 1 -4
BITMAP
C3
E3
E3
E3
D3
D3
DB
CB
CB
C7
C7
C7
00
18
10
10
ENDCHAR
STARTCHAR uni0146
ENCODING 326
SWIDTH 602 0
DWIDTH 10 0
BBX 6 13 2 -4
BITMAP
B8
CC
84
84
84
84
84
84
84
00
30
20
20
ENDCHAR
STARTCHAR uni0147
ENCODING 327
SWIDTH 602 0
DWIDTH 10 0
BBX 8 15 1 0
BITMAP
24
18
00
C3
E3
E3
E3
D3
D3
DB
CB
CB
C7
C7
C7
ENDCHAR
STARTCHAR uni0148
ENCODING 328
SWIDTH 602 0
DWIDTH 10 0
BBX 6 13 2 0
BITMAP
C8
50
30
00
B8
CC
84
84
84
84
84
84
84
ENDCHAR
STARTCHAR uni0149
ENCODING 329
SWIDTH 602 0
DWIDTH 10 0
BBX 10 12 0 0
BITMAP
6000
6000
C000
9780
1880
18C0
10C0
10C0
10C0
10C0
10C0
10C0
ENDCHAR
STARTCHAR uni014A
ENCODING 330
SWIDTH 602 0
DWIDTH 10 0
BBX 7 15 1 -3
BITMAP
DC
E6
C2
C2
C2
C2
C2
C2
C2
C2
C2
C2
02
06
1C
ENDCHAR
STARTCHAR uni014B
ENCODING 331
SWIDTH 602 0
DWIDTH 10 0
BBX 6 12 2 -3
BITMAP
B8
CC
84
84
84
84
84
84
84
04
0C
38
ENDCHAR
STARTCHAR uni014C
ENCODING 332
SWIDTH 602 0
DWIDTH 10 0
BBX 8 14 1 0
BITMAP
7C
00
3C
66
C2
C3
C3
C3
C3
C3
C3
C2
66
3C
ENDCHAR
STARTCHAR uni014D
ENCODING 333
SWIDTH 602 0
DWIDTH 10 0
BBX 8 12 1 0
BITMAP
7C
00
00
3C
66
C2
C3
C3
C3
C2
66
3C
ENDCHAR
STARTCHAR uni014E
ENCODING 334
SWIDTH 602 0
DWIDTH 10 0
BBX 8 15 1 0
BITMAP
44
3C
00
3C
66
C2
C3
C3
C3
C3
C3
C3
C2
66
3C
ENDCHAR
STARTCHAR uni014F
ENCODING 335
SWIDTH 602 0
DWIDTH 10 0
BBX 8 12 1 0
BITMAP
7C
00
00
3C
66
C2
C3
C3
C3
C2
66
3C
ENDCHAR
STARTCHAR uni0150
ENCODING 336
SWIDTH 602 0
DWIDTH 10 0
BBX 8 15 1 0
BITMAP
1E
2C
00
3C
66
C2
C3
C3
C3
C3
C3
C3
C2
66
3C
ENDCHAR
STARTCHAR uni0151
ENCODING 337
SWIDTH 602 0
DWIDTH 10 0
BBX 8 13 1 0
BITMAP
1A
34
2C
00
3C
66
C2
C3
C3
C3
C2
66
3C
ENDCHAR
STARTCHAR uni0152
ENCODING 338
SWIDTH 602 0
DWIDTH 10 0
BBX 9 12 1 0
BITMAP
7F00
CC00
CC00
8C00
8C00
8F00
8C00
8C00
8C00
CC00
CC00
7F80
ENDCHAR
STARTCHAR uni0153
ENCODING 339
SWIDTH 602 0
DWIDTH 10 0
BBX 9 9 0 0
BITMAP
7780
4C80
CC80
CC80
8F80
CC00
CC00
4C80
7380
ENDCHAR
STARTCHAR uni0154
ENCODING 340
SWIDTH 602 0
DWIDTH 10 0
BBX 9 15 1 0
BITMAP
0800
1000
2000
FC00
C600
C600
C200
C200
C600
FC00
CC00
C600
C200
C300
C180
ENDCHAR
STARTCHAR uni0155
ENCODING 341
SWIDTH 602 0
DWIDTH 10 0
BBX 7 13 2 0
BITMAP
0C
18
30
00
DE
E2
C0
C0
C0
C0
C0
C0
C0
ENDCHAR
STARTCHAR uni0156
ENCODING 342
SWIDTH 602 0
DWIDTH 10 0
BBX 9 16 1 -4
BITMAP
FC00
C600
C600
C200
C200
C600
FC00
CC00
C600
C200
C300
C180
0000
0C00
1800
1000
ENDCHAR
STARTCHAR uni0157
ENCODING 343
SWIDTH 602 0
DWIDTH 10 0
BBX 7 13 2 -4
BITMAP
DE
E2
C0
C0
C0
C0
C0
C0
C0
00
C0
C0
80
ENDCHAR
STARTCHAR uni0158
ENCODING 344
SWIDTH 602 0
DWIDTH 10 0
BBX 9 15 1 0
BITMAP
6C00
3800
0000
FC00
C600
C600
C200
C200
C600
FC00
CC00
C600
C200
C300
C180
ENDCHAR
STARTCHAR uni0159
ENCODING 345
SWIDTH 602 0
DWIDTH 10 0
BBX 7 13 2 0
BITMAP
4C
38
30
00
DE
E2
C0
C0
C0
C0
C0
C0
C0
ENDCHAR
STARTCHAR uni015A
ENCODING 346
SWIDTH 602 0
DWIDTH 10 0
BBX 8 15 1 0
BITMAP
0C
18
00
3E
62
C0
C0
C0
7C
1E
02
03
02
C6
7C
ENDCHAR
STARTCHAR uni015B
ENCODING 347
SWIDTH 602 0
DWIDTH 10 0
BBX 6 14 2 0
BITMAP
0C
18
10
20
00
7C
C4
80
C0
78
0C
04
8C
F8
ENDCHAR
STARTCHAR uni015C
ENCODING 348
SWIDTH 602 0
DWIDTH 10 0
BBX 8 15 1 0
BITMAP
18
24
00
3E
62
C0
C0
C0
7C
1E
02
03
02
C6
7C
ENDCHAR
STARTCHAR uni015D
ENCODING 349
SWIDTH 602 0
DWIDTH 10 0
BBX 6 14 2 0
BITMAP
20
30
48
88
00
7C
C4
80
C0
78
0C
04
8C
F8
ENDCHAR
STARTCHAR uni015E
ENCODING 350
SWIDTH 602 0
DWIDTH 10 0
BBX 8 15 1 -3
BITMAP
3E
62
C0
C0
C0
78
1E
02
03
02
C6
7C
08
08
38
ENDCHAR
STARTCHAR uni015F
ENCODING 351
SWIDTH 602 0
DWIDTH 10 0
BBX 6 12 2 -3
BITMAP
7C
C4
80
C0
78
0C
04
8C
F8
10
10
70
ENDCHAR
STARTCHAR uni0160
ENCODING 352
SWIDTH 602 0
DWIDTH 10 0
BBX 8 15 1 0
BITMAP
24
18
00
3E
62
C0
C0
C0
7C
1E
02
03
02
C6
7C
ENDCHAR
STARTCHAR uni0161
ENCODING 353
SWIDTH 602 0
DWIDTH 10 0
BBX 6 14 2 0
BITMAP
88
48
30
20
00
7C
C4
80
C0
78
0C
04
8C
F8
ENDCHAR
STARTCHAR uni0162
ENCODING 354
SWIDTH 602 0
DWIDTH 10 0
BBX 9 15 0 -3
BITMAP
FF80
0C00
0C00
0C00
0C00
0C00
0C00
0C00
0C00
0C00
0C00
0C00
0400
0400
1C00
ENDCHAR
STARTCHAR uni0163
ENCODING 355
SWIDTH 602 0
DWIDTH 10 0
BBX 7 15 1 -3
BITMAP
10
30
30
FE
30
30
30
30
30
30
10
1E
08
04
18
ENDCHAR
STARTCHAR uni0164
ENCODING 356
SWIDTH 602 0
DWIDTH 10 0
BBX 9 15 0 0
BITMAP
3200
0C00
0000
FF80
0C00
0C00
0C00
0C00
0C00
0C00
0C00
0C00
0C00
0C00
0C00
ENDCHAR
STARTCHAR uni0165
ENCODING 357
SWIDTH 602 0
DWIDTH 10 0
BBX 7 13 1 0
BITMAP
06
16
34
30
FE
30
30
30
30
30
30
10
1E
ENDCHAR
STARTCHAR uni0166
ENCODING 358
SWIDTH 602 0
DWIDTH 10 0
BBX 9 12 0 0
BITMAP
FF80
0C00
0C00
0C00
0C00
0C00
3F00
0C00
0C00
0C00
0C00
0C00
ENDCHAR
STARTCHAR uni0167
ENCODING 359
SWIDTH 602 0
DWIDTH 10 0
BBX 7 12 1 0
BITMAP
10
30
30
FE
30
30
7C
30
30
30
10
1E
ENDCHAR
STARTCHAR uni0168
ENCODING 360
SWIDTH 602 0
DWIDTH 10 0
BBX 7 15 1 0
BITMAP
34
4C
00
C2
C2
C2
C2
C2
C2
C2
C2
C2
C2
66
3C
ENDCHAR
STARTCHAR uni0169
ENCODING 361
SWIDTH 602 0
DWIDTH 10 0
BBX 6 12 2 0
BITMAP
68
B8
00
84
84
84
84
84
84
84
CC
74
ENDCHAR
STARTCHAR uni016A
ENCODING 362
SWIDTH 602 0
DWIDTH 10 0
BBX 7 14 1 0
BITMAP
7C
00
C2
C2
C2
C2
C2
C2
C2
C2
C2
C2
66
3C
ENDCHAR
STARTCHAR uni016B
ENCODING 363
SWIDTH 602 0
DWIDTH 10 0
BBX 6 12 2 0
BITMAP
F8
00
00
84
84
84
84
84
84
84
CC
74
ENDCHAR
STARTCHAR uni016C
ENCODING 364
SWIDTH 602 0
DWIDTH 10 0
BBX 7 15 1 0
BITMAP
44
3C
00
C2
C2
C2
C2
C2
C2
C2
C2
C2
C2
66
3C
ENDCHAR
STARTCHAR uni016D
ENCODING 365
SWIDTH 602 0
DWIDTH 10 0
BBX 6 12 2 0
BITMAP
F8
00
00
84
84
84
84
84
84
84
CC
74
ENDCHAR
STARTCHAR uni016E
ENCODING 366
SWIDTH 602 0
DWIDTH 10 0
BBX 7 15 1 0
BITMAP
18
24
24
FE
C2
C2
C2
C2
C2
C2
C2
C2
C2
66
3C
ENDCHAR
STARTCHAR uni016F
ENCODING 367
SWIDTH 602 0
DWIDTH 10 0
BBX 6 14 2 0
BITMAP
30
48
48
78
00
84
84
84
84
84
84
84
CC
74
ENDCHAR
STARTCHAR uni0170
ENCODING 368
SWIDTH 602 0
DWIDTH 10 0
BBX 7 15 1 0
BITMAP
1E
2C
00
C2
C2
C2
C2
C2
C2
C2
C2
C2
C2
66
3C
ENDCHAR
STARTCHAR uni0171
ENCODING 369
SWIDTH 602 0
DWIDTH 10 0
BBX 6 13 2 0
BITMAP
34
68
58
00
84
84
84
84
84
84
84
CC
74
ENDCHAR
STARTCHAR uni0172
ENCODING 370
SWIDTH 602 0
DWIDTH 10 0
BBX 7 15 1 -3
BITMAP
C2
C2
C2
C2
C2
C2
C2
C2
C2
C2
66
3C
10
30
18
ENDCHAR
STARTCHAR uni0173
ENCODING 371
SWIDTH 602 0
DWIDTH 10 0
BBX 7 12 2 -3
BITMAP
84
84
84
84
84
84
84
8C
74
04
0C
06
ENDCHAR
STARTCHAR uni0174
ENCODING 372
SWIDTH 602 0
DWIDTH 10 0
BBX 10 15 0 0
BITMAP
0C00
1600
2000
C0C0
C080
C080
4C80
4C80
5D80
5580
5780
7300
7300
3300
2300
ENDCHAR
STARTCHAR uni0175
ENCODING 373
SWIDTH 602 0
DWIDTH 10 0
BBX 10 13 0 0
BITMAP
0C00
1400
3200
0000
C0C0
C080
4080
4D80
4D80
7500
7500
3300
3300
ENDCHAR
STARTCHAR uni0176
ENCODING 374
SWIDTH 602 0
DWIDTH 10 0
BBX 9 15 0 0
BITMAP
0C00
1600
2000
C180
6180
2300
3200
1600
1C00
0C00
0C00
0C00
0C00
0C00
0C00
ENDCHAR
STARTCHAR uni0177
ENCODING 375
SWIDTH 602 0
DWIDTH 10 0
BBX 8 16 1 -3
BITMAP
18
2C
64
00
C3
C2
42
66
24
2C
38
18
18
10
30
E0
ENDCHAR
STARTCHAR uni0178
ENCODING 376
SWIDTH 602 0
DWIDTH 10 0
BBX 9 15 0 0
BITMAP
3200
0000
0000
C180
6180
2300
3200
1600
1C00
0C00
0C00
0C00
0C00
0C00
0C00
ENDCHAR
STARTCHAR uni0179
ENCODING 377
SWIDTH 602 0
DWIDTH 10 0
BBX 8 15 1 0
BITMAP
0C
10
00
FF
02
06
0C
08
18
10
30
60
40
C0
FF
ENDCHAR
STARTCHAR uni017A
ENCODING 378
SWIDTH 602 0
DWIDTH 10 0
BBX 6 13 2 0
BITMAP
0C
18
30
00
FC
0C
08
18
30
60
C0
80
FC
ENDCHAR
STARTCHAR uni017B
ENCODING 379
SWIDTH 602 0
DWIDTH 10 0
BBX 8 15 1 0
BITMAP
18
00
00
FF
02
06
0C
08
18
10
30
60
40
C0
FF
ENDCHAR
STARTCHAR uni017C
ENCODING 380
SWIDTH 602 0
DWIDTH 10 0
BBX 6 12 2 0
BITMAP
30
00
00
FC
0C
08
18
30
60
C0
80
FC
ENDCHAR
STARTCHAR uni017D
ENCODING 381
SWIDTH 602 0
DWIDTH 10 0
BBX 8 15 1 0
BITMAP
6C
38
00
FF
02
06
0C
08
18
10
30
60
40
C0
FF
ENDCHAR
STARTCHAR uni017E
ENCODING 382
SWIDTH 602 0
DWIDTH 10 0
BBX 6 13 2 0
BITMAP
C8
50
30
00
FC
0C
08
18
30
60
C0
80
FC
ENDCHAR
STARTCHAR uni017F
ENCODING 383
SWIDTH 602 0
DWIDTH 10 0
BBX 7 14 2 -2
BITMAP
1E
10
30
F0
30
30
30
30
30
30
30
30
30
30
ENDCHAR
STARTCHAR uni0192
ENCODING 402
SWIDTH 602 0
DWIDTH 10 0
BBX 9 15 0 -3
BITMAP
0380
0680
0400
0400
0400
3F00
0C00
0C00
0800
0800
0800
1800
1800
B000
E000
ENDCHAR
STARTCHAR uni01A0
ENCODING 416
SWIDTH 602 0
DWIDTH 10 0
BBX 9 12 0 0
BITMAP
3C80
6780
4300
C300
C300
C300
C300
C300
C300
4200
6600
3C00
ENDCHAR
STARTCHAR uni01A1
ENCODING 417
SWIDTH 602 0
DWIDTH 10 0
BBX 9 9 0 0
BITMAP
3C80
6680
4380
C300
C300
C300
4300
6600
3C00
ENDCHAR
STARTCHAR uni01A4
ENCODING 420
SWIDTH 602 0
DWIDTH 10 0
BBX 10 12 0 0
BITMAP
7F00
F180
B080
30C0
30C0
3180
3F00
3000
3000
3000
3000
3000
ENDCHAR
STARTCHAR uni01AF
ENCODING 431
SWIDTH 602 0
DWIDTH 10 0
BBX 10 12 0 0
BITMAP
C2C0
C380
C200
C200
C200
C200
C200
C200
C200
C200
6600
3C00
ENDCHAR
STARTCHAR uni01B0
ENCODING 432
SWIDTH 602 0
DWIDTH 10 0
BBX 9 9 0 0
BITMAP
C280
C280
C380
C200
C200
C200
C600
4600
7A00
ENDCHAR
STARTCHAR uni01E6
ENCODING 486
SWIDTH 602 0
DWIDTH 10 0
BBX 8 15 1 0
BITMAP
36
14
08
3E
62
C0
C0
C0
80
8F
C3
C3
C3
63
3E
ENDCHAR
STARTCHAR uni01E7
ENCODING 487
SWIDTH 602 0
DWIDTH 10 0
BBX 7 17 1 -3
BITMAP
26
24
18
18
00
3A
66
C2
C2
C2
C2
C2
66
3A
02
46
7C
ENDCHAR
STARTCHAR uni01FE
ENCODING 510
SWIDTH 602 0
DWIDTH 10 0
BBX 9 15 0 0
BITMAP
0600
0C00
0000
1E80
3300
6100
6380
6580
6D80
6980
7180
7180
6100
7300
9E00
ENDCHAR
STARTCHAR uni01FF
ENCODING 511
SWIDTH 602 0
DWIDTH 10 0
BBX 9 15 0 -1
BITMAP
0200
0600
0C00
0800
0080
1E80
3300
6300
6580
6980
7980
7100
3300
DE00
4000
ENDCHAR
STARTCHAR uni0218
ENCODING 536
SWIDTH 602 0
DWIDTH 10 0
BBX 8 16 1 -4
BITMAP
3E
62
C0
C0
C0
7C
1E
02
03
02
C6
7C
00
18
10
30
ENDCHAR
STARTCHAR uni0219
ENCODING 537
SWIDTH 602 0
DWIDTH 10 0
BBX 6 13 2 -4
BITMAP
7C
C4
80
C0
78
0C
04
8C
F8
00
30
20
60
ENDCHAR
STARTCHAR uni021A
ENCODING 538
SWIDTH 602 0
DWIDTH 10 0
BBX 9 15 0 -3
BITMAP
FF80
0C00
0C00
0C00
0C00
0C00
0C00
0C00
0C00
0C00
0C00
0C00
0400
0400
1C00
ENDCHAR
STARTCHAR uni021B
ENCODING 539
SWIDTH 602 0
DWIDTH 10 0
BBX 7 15 1 -3
BITMAP
10
30
30
FE
30
30
30
30
30
30
10
1E
04
04
1C
ENDCHAR
STARTCHAR uni02C6
ENCODING 710
SWIDTH 602 0
DWIDTH 10 0
BBX 5 3 2 10
BITMAP
30
50
C8
ENDCHAR
STARTCHAR uni02C7
ENCODING 711
SWIDTH 602 0
DWIDTH 10 0
BBX 5 3 2 10
BITMAP
C8
50
30
ENDCHAR
STARTCHAR uni02D8
ENCODING 728
SWIDTH 602 0
DWIDTH 10 0
BBX 5 2 2 10
BITMAP
C8
78
ENDCHAR
STARTCHAR uni02D9
ENCODING 729
SWIDTH 602 0
DWIDTH 10 0
BBX 2 1 4 11
BITMAP
C0
ENDCHAR
STARTCHAR uni02DA
ENCODING 730
SWIDTH 602 0
DWIDTH 10 0
BBX 4 4 3 10
BITMAP
E0
90
90
E0
ENDCHAR
STARTCHAR uni02DB
ENCODING 731
SWIDTH 602 0
DWIDTH 10 0
BBX 3 3 3 -3
BITMAP
40
80
60
ENDCHAR
STARTCHAR uni02DC
ENCODING 732
SWIDTH 602 0
DWIDTH 10 0
BBX 5 2 2 10
BITMAP
68
98
ENDCHAR
STARTCHAR uni02DD
ENCODING 733
SWIDTH 602 0
DWIDTH 10 0
BBX 5 3 3 10
BITMAP
68
D0
B0
ENDCHAR
STARTCHAR uni0300
ENCODING 768
SWIDTH 0 0
DWIDTH 0 0
BBX 3 3 -7 10
BITMAP
80
40
20
ENDCHAR
STARTCHAR uni0301
ENCODING 769
SWIDTH 0 0
DWIDTH 0 0
BBX 4 3 -6 10
BITMAP
30
60
C0
ENDCHAR
STARTCHAR uni0303
ENCODING 771
SWIDTH 0 0
DWIDTH 0 0
BBX 5 2 -7 10
BITMAP
E8
B0
ENDCHAR
STARTCHAR uni0309
ENCODING 777
SWIDTH 0 0
DWIDTH 0 0
BBX 3 4 -6 10
BITMAP
C0
20
40
40
ENDCHAR
STARTCHAR uni0323
ENCODING 803
SWIDTH 0 0
DWIDTH 0 0
BBX 2 1 -6 -3
BITMAP
C0
ENDCHAR
STARTCHAR uni0384
ENCODING 900
SWIDTH 602 0
DWIDTH 10 0
BBX 3 3 4 10
BITMAP
20
40
80
ENDCHAR
STARTCHAR uni0385
ENCODING 901
SWIDTH 602 0
DWIDTH 10 0
BBX 6 5 2 10
BITMAP
0C
18
30
88
88
ENDCHAR
STARTCHAR uni0386
ENCODING 902
SWIDTH 602 0
DWIDTH 10 0
BBX 9 12 0 0
BITMAP
6C00
5C00
9E00
1600
1200
3200
3300
2300
7F00
6180
4180
C080
ENDCHAR
STARTCHAR uni0388
ENCODING 904
SWIDTH 602 0
DWIDTH 10 0
BBX 12 12 -2 0
BITMAP
37E0
6400
C400
0400
0400
07E0
0400
0400
0400
0400
0400
07F0
ENDCHAR
STARTCHAR uni0389
ENCODING 905
SWIDTH 602 0
DWIDTH 10 0
BBX 12 12 -2 0
BITMAP
2C30
4C30
8C30
0C30
0C30
0FF0
0C30
0C30
0C30
0C30
0C30
0C30
ENDCHAR
STARTCHAR uni038A
ENCODING 906
SWIDTH 602 0
DWIDTH 10 0
BBX 11 12 -2 0
BITMAP
37E0
6180
C180
0180
0180
0180
0180
0180
0180
0180
0180
07E0
ENDCHAR
STARTCHAR uni038C
ENCODING 908
SWIDTH 602 0
DWIDTH 10 0
BBX 10 12 -1 0
BITMAP
6F00
5980
90C0
10C0
30C0
3040
3040
30C0
10C0
10C0
1980
0F00
ENDCHAR
STARTCHAR uni038E
ENCODING 910
SWIDTH 602 0
DWIDTH 10 0
BBX 14 12 -4 0
BITMAP
3E18
633C
41E8
81C0
00C0
00C0
00C0
00C0
00C0
00C0
00C0
00C0
ENDCHAR
STARTCHAR uni038F
ENCODING 911
SWIDTH 602 0
DWIDTH 10 0
BBX 11 12 -2 0
BITMAP
3780
2CC0
4860
9820
1820
1820
1820
1820
0860
0840
04C0
1EE0
ENDCHAR
STARTCHAR uni0390
ENCODING 912
SWIDTH 602 0
DWIDTH 10 0
BBX 6 15 2 0
BITMAP
0C
10
20
88
00
00
F0
30
30
30
30
30
30
30
1C
ENDCHAR
STARTCHAR uni0391
ENCODING 913
SWIDTH 602 0
DWIDTH 10 0
BBX 9 12 0 0
BITMAP
0C00
1C00
1E00
1600
1200
3200
3300
2300
7F00
6180
4180
C080
ENDCHAR
STARTCHAR uni0392
ENCODING 914
SWIDTH 602 0
DWIDTH 10 0
BBX 8 12 1 0
BITMAP
FC
C6
C2
C2
C6
FC
C6
C3
C3
C3
C6
FC
ENDCHAR
STARTCHAR uni0393
ENCODING 915
SWIDTH 602 0
DWIDTH 10 0
BBX 7 12 2 0
BITMAP
FE
80
80
80
80
80
80
80
80
80
80
80
ENDCHAR
STARTCHAR uni0394
ENCODING 916
SWIDTH 602 0
DWIDTH 10 0
BBX 9 12 0 0
BITMAP
0C00
1C00
1E00
1600
1200
3200
2300
2300
6100
6180
4180
FF80
ENDCHAR
STARTCHAR uni0395
ENCODING 917
SWIDTH 602 0
DWIDTH 10 0
BBX 7 12 2 0
BITMAP
FC
80
80
80
80
FC
80
80
80
80
80
FE
ENDCHAR
STARTCHAR uni0396
ENCODING 918
SWIDTH 602 0
DWIDTH 10 0
BBX 8 12 1 0
BITMAP
FF
02
06
0C
08
18
10
30
60
40
C0
FF
ENDCHAR
STARTCHAR uni0397
ENCODING 919
SWIDTH 602 0
DWIDTH 10 0
BBX 8 12 1 0
BITMAP
C3
C3
C3
C3
C3
FF
C3
C3
C3
C3
C3
C3
ENDCHAR
STARTCHAR uni0398
ENCODING 920
SWIDTH 602 0
DWIDTH 10 0
BBX 9 11 0 0
BITMAP
1E00
3300
6180
4180
C080
DE80
C080
4180
6180
3300
1E00
ENDCHAR
STARTCHAR uni0399
ENCODING 921
SWIDTH 602 0
DWIDTH 10 0
BBX 6 12 2 0
BITMAP
FC
30
30
30
30
30
30
30
30
30
30
FC
ENDCHAR
STARTCHAR uni039A
ENCODING 922
SWIDTH 602 0
DWIDTH 10 0
BBX 9 12 1 0
BITMAP
C300
C600
CC00
D800
F000
F000
D800
CC00
CC00
C600
C300
C380
ENDCHAR
STARTCHAR uni039B
ENCODING 923
SWIDTH 602 0
DWIDTH 10 0
BBX 9 12 0 0
BITMAP
0C00
1C00
1E00
1600
1200
3200
2300
2300
6100
6180
4180
C080
ENDCHAR
STARTCHAR uni039C
ENCODING 924
SWIDTH 602 0
DWIDTH 10 0
BBX 8 12 1 0
BITMAP
C3
C7
E7
A7
AB
BB
9B
9B
83
83
83
83
ENDCHAR
STARTCHAR uni039D
ENCODING 925
SWIDTH 602 0
DWIDTH 10 0
BBX 8 12 1 0
BITMAP
C3
E3
E3
E3
D3
D3
DB
CB
CB
C7
C7
C7
ENDCHAR
STARTCHAR uni039E
ENCODING 926
SWIDTH 602 0
DWIDTH 10 0
BBX 8 12 1 0
BITMAP
FF
00
00
00
00
3C
00
00
00
00
00
FF
ENDCHAR
STARTCHAR uni039F
ENCODING 927
SWIDTH 602 0
DWIDTH 10 0
BBX 8 12 1 0
BITMAP
3C
66
C2
C3
C3
C3
C3
C3
C3
C2
66
3C
ENDCHAR
STARTCHAR uni03A0
ENCODING 928
SWIDTH 602 0
DWIDTH 10 0
BBX 8 12 1 0
BITMAP
FF
C3
C3
C3
C3
C3
C3
C3
C3
C3
C3
C3
ENDCHAR
STARTCHAR uni03A1
ENCODING 929
SWIDTH 602 0
DWIDTH 10 0
BBX 8 12 1 0
BITMAP
FC
C6
C3
C3
C3
C6
FC
C0
C0
C0
C0
C0
ENDCHAR
STARTCHAR uni03A3
ENCODING 931
SWIDTH 602 0
DWIDTH 10 0
BBX 8 12 1 0
BITMAP
FF
C0
60
20
30
18
18
30
20
60
C0
FF
ENDCHAR
STARTCHAR uni03A4
ENCODING 932
SWIDTH 602 0
DWIDTH 10 0
BBX 9 12 0 0
BITMAP
FF80
0C00
0C00
0C00
0C00
0C00
0C00
0C00
0C00
0C00
0C00
0C00
ENDCHAR
STARTCHAR uni03A5
ENCODING 933
SWIDTH 602 0
DWIDTH 10 0
BBX 9 12 0 0
BITMAP
E180
3380
1680
1C00
0C00
0C00
0C00
0C00
0C00
0C00
0C00
0C00
ENDCHAR
STARTCHAR uni03A6
ENCODING 934
SWIDTH 602 0
DWIDTH 10 0
BBX 8 12 1 0
BITMAP
3C
18
3C
7E
DB
DB
DB
DB
7E
3C
18
3C
ENDCHAR
STARTCHAR uni03A7
ENCODING 935
SWIDTH 602 0
DWIDTH 10 0
BBX 9 12 0 0
BITMAP
6180
2100
3300
1200
1C00
0C00
0C00
1E00
3200
2300
6180
C080
ENDCHAR
STARTCHAR uni03A8
ENCODING 936
SWIDTH 602 0
DWIDTH 10 0
BBX 8 12 1 0
BITMAP
DB
DB
DB
DB
DB
DA
DA
7E
3C
18
18
3C
ENDCHAR
STARTCHAR uni03A9
ENCODING 937
SWIDTH 602 0
DWIDTH 10 0
BBX 8 12 1 0
BITMAP
3C
66
C2
83
83
83
83
83
C2
42
64
EF
ENDCHAR
STARTCHAR uni03AA
ENCODING 938
SWIDTH 602 0
DWIDTH 10 0
BBX 6 15 2 0
BITMAP
C8
00
00
FC
30
30
30
30
30
30
30
30
30
30
FC
ENDCHAR
STARTCHAR uni03AB
ENCODING 939
SWIDTH 602 0
DWIDTH 10 0
BBX 9 15 0 0
BITMAP
3200
0000
0000
E180
3380
1680
1C00
0C00
0C00
0C00
0C00
0C00
0C00
0C00
0C00
ENDCHAR
STARTCHAR uni03AC
ENCODING 940
SWIDTH 602 0
DWIDTH 10 0
BBX 8 14 1 0
BITMAP
04
0C
18
10
00
7B
CA
86
86
84
84
8E
DA
7B
ENDCHAR
STARTCHAR uni03AD
ENCODING 941
SWIDTH 602 0
DWIDTH 10 0
BBX 7 14 1 0
BITMAP
04
0C
18
10
00
3E
62
40
40
38
40
C0
62
3E
ENDCHAR
STARTCHAR uni03AE
ENCODING 942
SWIDTH 602 0
DWIDTH 10 0
BBX 6 17 2 -3
BITMAP
08
18
30
20
00
B8
CC
84
84
84
84
84
84
84
04
04
04
ENDCHAR
STARTCHAR uni03AF
ENCODING 943
SWIDTH 602 0
DWIDTH 10 0
BBX 6 13 2 0
BITMAP
08
10
20
00
F0
30
30
30
30
30
30
30
1C
ENDCHAR
STARTCHAR uni03B0
ENCODING 944
SWIDTH 602 0
DWIDTH 10 0
BBX 9 15 0 0
BITMAP
0300
0400
0800
2200
0000
0000
F300
3100
3180
3180
3180
3180
3100
3300
1E00
ENDCHAR
STARTCHAR uni03B1
ENCODING 945
SWIDTH 602 0
DWIDTH 10 0
BBX 8 9 1 0
BITMAP
7B
CA
86
86
84
84
8E
DA
7B
ENDCHAR
STARTCHAR uni03B2
ENCODING 946
SWIDTH 602 0
DWIDTH 10 0
BBX 8 15 1 -3
BITMAP
38
66
C6
C6
C6
DC
C6
C3
C3
C3
E6
FC
C0
C0
C0
ENDCHAR
STARTCHAR uni03B3
ENCODING 947
SWIDTH 602 0
DWIDTH 10 0
BBX 8 12 1 -3
BITMAP
C3
43
62
66
24
34
1C
18
18
18
18
18
ENDCHAR
STARTCHAR uni03B4
ENCODING 948
SWIDTH 602 0
DWIDTH 10 0
BBX 8 12 1 0
BITMAP
3C
62
40
7C
66
C2
C3
C3
C3
C2
66
3C
ENDCHAR
STARTCHAR uni03B5
ENCODING 949
SWIDTH 602 0
DWIDTH 10 0
BBX 7 9 1 0
BITMAP
3E
62
40
40
38
60
C0
62
3E
ENDCHAR
STARTCHAR uni03B6
ENCODING 950
SWIDTH 602 0
DWIDTH 10 0
BBX 7 15 1 -3
BITMAP
FE
0E
18
30
60
40
C0
C0
C0
C0
70
1E
02
02
04
ENDCHAR
STARTCHAR uni03B7
ENCODING 951
SWIDTH 602 0
DWIDTH 10 0
BBX 6 12 2 -3
BITMAP
B8
CC
84
84
84
84
84
84
84
04
04
04
ENDCHAR
STARTCHAR uni03B8
ENCODING 952
SWIDTH 602 0
DWIDTH 10 0
BBX 8 12 1 0
BITMAP
3C
66
42
C2
C2
FF
C3
C2
C2
46
66
3C
ENDCHAR
STARTCHAR uni03B9
ENCODING 953
SWIDTH 602 0
DWIDTH 10 0
BBX 6 9 2 0
BITMAP
F0
30
30
30
30
30
30
30
1C
ENDCHAR
STARTCHAR uni03BA
ENCODING 954
SWIDTH 602 0
DWIDTH 10 0
BBX 8 9 1 0
BITMAP
C6
CC
D8
F0
F8
C8
CC
C6
C3
ENDCHAR
STARTCHAR uni03BB
ENCODING 955
SWIDTH 602 0
DWIDTH 10 0
BBX 8 12 1 0
BITMAP
60
30
10
18
18
1C
3C
24
66
42
C2
83
ENDCHAR
STARTCHAR uni03BC
ENCODING 956
SWIDTH 602 0
DWIDTH 10 0
BBX 7 12 2 -3
BITMAP
84
84
84
84
84
84
84
CE
F6
80
80
80
ENDCHAR
STARTCHAR uni03BD
ENCODING 957
SWIDTH 602 0
DWIDTH 10 0
BBX 8 9 1 0
BITMAP
C6
C2
42
43
62
26
24
38
38
ENDCHAR
STARTCHAR uni03BE
ENCODING 958
SWIDTH 602 0
DWIDTH 10 0
BBX 7 15 1 -3
BITMAP
7E
30
40
40
60
3C
78
40
C0
C0
60
3E
02
02
06
ENDCHAR
STARTCHAR uni03BF
ENCODING 959
SWIDTH 602 0
DWIDTH 10 0
BBX 8 9 1 0
BITMAP
3C
66
C2
C3
C3
C3
C2
66
3C
ENDCHAR
STARTCHAR uni03C0
ENCODING 960
SWIDTH 602 0
DWIDTH 10 0
BBX 8 9 1 0
BITMAP
FF
46
46
46
46
46
46
42
43
ENDCHAR
STARTCHAR uni03C1
ENCODING 961
SWIDTH 602 0
DWIDTH 10 0
BBX 8 12 1 -3
BITMAP
3C
66
42
C3
C3
C3
C2
E6
DC
C0
C0
C0
ENDCHAR
STARTCHAR uni03C2
ENCODING 962
SWIDTH 602 0
DWIDTH 10 0
BBX 7 12 1 -3
BITMAP
3E
62
40
C0
C0
C0
40
60
1C
06
06
0C
ENDCHAR
STARTCHAR uni03C3
ENCODING 963
SWIDTH 602 0
DWIDTH 10 0
BBX 8 9 1 0
BITMAP
3F
4C
C6
82
82
C2
C2
66
3C
ENDCHAR
STARTCHAR uni03C4
ENCODING 964
SWIDTH 602 0
DWIDTH 10 0
BBX 7 9 1 0
BITMAP
FE
18
18
18
18
18
18
18
0E
ENDCHAR
STARTCHAR uni03C5
ENCODING 965
SWIDTH 602 0
DWIDTH 10 0
BBX 9 9 0 0
BITMAP
F300
3100
3180
3180
3180
3180
3100
3300
1E00
ENDCHAR
STARTCHAR uni03C6
ENCODING 966
SWIDTH 602 0
DWIDTH 10 0
BBX 8 12 1 -3
BITMAP
6C
DA
9B
9B
99
9B
9B
DE
7C
18
18
18
ENDCHAR
STARTCHAR uni03C7
ENCODING 967
SWIDTH 602 0
DWIDTH 10 0
BBX 8 12 1 -3
BITMAP
C2
66
24
3C
18
18
18
38
28
6C
46
C7
ENDCHAR
STARTCHAR uni03C8
ENCODING 968
SWIDTH 602 0
DWIDTH 10 0
BBX 8 12 1 -3
BITMAP
9B
9B
9B
9B
9B
9B
DA
7E
3C
18
18
18
ENDCHAR
STARTCHAR uni03C9
ENCODING 969
SWIDTH 602 0
DWIDTH 10 0
BBX 8 9 1 0
BITMAP
C2
83
83
91
91
99
9B
DB
6E
ENDCHAR
STARTCHAR uni03CA
ENCODING 970
SWIDTH 602 0
DWIDTH 10 0
BBX 6 12 2 0
BITMAP
C8
00
00
F0
30
30
30
30
30
30
30
1C
ENDCHAR
STARTCHAR uni03CB
ENCODING 971
SWIDTH 602 0
DWIDTH 10 0
BBX 9 12 0 0
BITMAP
3200
0000
0000
F300
3100
3180
3180
3180
3180
3100
3300
1E00
ENDCHAR
STARTCHAR uni03CC
ENCODING 972
SWIDTH 602 0
DWIDTH 10 0
BBX 8 14 1 0
BITMAP
04
0C
18
10
00
3C
66
C2
C3
C3
C3
C2
66
3C
ENDCHAR
STARTCHAR uni03CD
ENCODING 973
SWIDTH 602 0
DWIDTH 10 0
BBX 9 13 0 0
BITMAP
0200
0400
0800
0000
F300
3100
3180
3180
3180
3180
3100
3300
1E00
ENDCHAR
STARTCHAR uni03CE
ENCODING 974
SWIDTH 602 0
DWIDTH 10 0
BBX 8 13 1 0
BITMAP
04
08
10
00
C2
83
83
91
91
99
9B
DB
6E
ENDCHAR
STARTCHAR uni03F4
ENCODING 1012
SWIDTH 602 0
DWIDTH 10 0
BBX 8 12 1 0
BITMAP
3C
66
C2
C3
C3
FF
C3
C3
C3
C2
66
3C
ENDCHAR
STARTCHAR uni03F6
ENCODING 1014
SWIDTH 602 0
DWIDTH 10 0
BBX 7 9 1 0
BITMAP
F8
8C
06
06
FE
02
06
8C
F8
ENDCHAR
STARTCHAR uni0400
ENCODING 1024
SWIDTH 602 0
DWIDTH 10 0
BBX 7 15 2 0
BITMAP
60
30
00
FC
80
80
80
80
FC
80
80
80
80
80
FE
ENDCHAR
STARTCHAR uni0401
ENCODING 1025
SWIDTH 602 0
DWIDTH 10 0
BBX 7 15 2 0
BITMAP
6C
00
00
FC
80
80
80
80
FC
80
80
80
80
80
FE
ENDCHAR
STARTCHAR uni0402
ENCODING 1026
SWIDTH 602 0
DWIDTH 10 0
BBX 9 16 0 -4
BITMAP
FC00
6000
6000
6000
6000
6F00
7180
6180
6180
6180
6180
6180
0180
0180
0100
0F00
ENDCHAR
STARTCHAR uni0403
ENCODING 1027
SWIDTH 602 0
DWIDTH 10 0
BBX 7 15 2 0
BITMAP
18
10
20
FE
80
80
80
80
80
80
80
80
80
80
80
ENDCHAR
STARTCHAR uni0404
ENCODING 1028
SWIDTH 602 0
DWIDTH 10 0
BBX 7 12 1 0
BITMAP
1E
62
40
C0
C0
FE
C0
C0
C0
40
62
1E
ENDCHAR
STARTCHAR uni0405
ENCODING 1029
SWIDTH 602 0
DWIDTH 10 0
BBX 8 12 1 0
BITMAP
3E
62
C0
C0
C0
7C
1E
02
03
02
C6
7C
ENDCHAR
STARTCHAR uni0406
ENCODING 1030
SWIDTH 602 0
DWIDTH 10 0
BBX 6 12 2 0
BITMAP
FC
30
30
30
30
30
30
30
30
30
30
FC
ENDCHAR
STARTCHAR uni0407
ENCODING 1031
SWIDTH 602 0
DWIDTH 10 0
BBX 6 15 2 0
BITMAP
C8
00
00
FC
30
30
30
30
30
30
30
30
30
30
FC
ENDCHAR
STARTCHAR uni0408
ENCODING 1032
SWIDTH 602 0
DWIDTH 10 0
BBX 6 12 1 0
BITMAP
3C
04
04
04
04
04
04
04
04
84
8C
F8
ENDCHAR
STARTCHAR uni0409
ENCODING 1033
SWIDTH 602 0
DWIDTH 10 0
BBX 10 12 0 0
BITMAP
3C00
3400
3400
3400
3400
3700
3580
24C0
24C0
24C0
6580
C700
ENDCHAR
STARTCHAR uni040A
ENCODING 1034
SWIDTH 602 0
DWIDTH 10 0
BBX 10 12 0 0
BITMAP
C400
C400
C400
C400
C400
FF00
C580
C4C0
C4C0
C4C0
C580
C700
ENDCHAR
STARTCHAR uni040B
ENCODING 1035
SWIDTH 602 0
DWIDTH 10 0
BBX 9 12 0 0
BITMAP
FC00
6000
6000
6000
6000
6F00
7180
6180
6180
6180
6180
6180
ENDCHAR
STARTCHAR uni040C
ENCODING 1036
SWIDTH 602 0
DWIDTH 10 0
BBX 9 15 1 0
BITMAP
0C00
1800
0000
C300
C600
CC00
D800
F000
F000
D800
CC00
CC00
C600
C300
C380
ENDCHAR
STARTCHAR uni040D
ENCODING 1037
SWIDTH 602 0
DWIDTH 10 0
BBX 8 15 1 0
BITMAP
30
18
00
C7
C7
C7
CF
CB
DB
D3
D3
F3
E3
E3
C3
ENDCHAR
STARTCHAR uni040E
ENCODING 1038
SWIDTH 602 0
DWIDTH 10 0
BBX 8 15 1 0
BITMAP
24
3C
00
C3
43
62
66
24
34
3C
18
18
18
30
60
ENDCHAR
STARTCHAR uni040F
ENCODING 1039
SWIDTH 602 0
DWIDTH 10 0
BBX 8 14 1 -2
BITMAP
C3
C3
C3
C3
C3
C3
C3
C3
C3
C3
C3
FF
10
10
ENDCHAR
STARTCHAR uni0410
ENCODING 1040
SWIDTH 602 0
DWIDTH 10 0
BBX 9 12 0 0
BITMAP
0C00
1C00
1E00
1600
1200
3200
3300
2300
7F00
6180
4180
C080
ENDCHAR
STARTCHAR uni0411
ENCODING 1041
SWIDTH 602 0
DWIDTH 10 0
BBX 8 12 1 0
BITMAP
FE
C0
C0
C0
C0
FC
C6
C3
C3
C3
C6
FC
ENDCHAR
STARTCHAR uni0412
ENCODING 1042
SWIDTH 602 0
DWIDTH 10 0
BBX 8 12 1 0
BITMAP
FC
C6
C2
C2
C6
FC
C6
C3
C3
C3
C6
FC
ENDCHAR
STARTCHAR uni0413
ENCODING 1043
SWIDTH 602 0
DWIDTH 10 0
BBX 7 12 2 0
BITMAP
FE
80
80
80
80
80
80
80
80
80
80
80
ENDCHAR
STARTCHAR uni0414
ENCODING 1044
SWIDTH 602 0
DWIDTH 10 0
BBX 9 15 0 -3
BITMAP
3F00
2100
2100
2100
2100
2100
2100
2100
6100
6100
6100
FF80
C080
C080
C080
ENDCHAR
STARTCHAR uni0415
ENCODING 1045
SWIDTH 602 0
DWIDTH 10 0
BBX 7 12 2 0
BITMAP
FC
80
80
80
80
FC
80
80
80
80
80
FE
ENDCHAR
STARTCHAR uni0416
ENCODING 1046
SWIDTH 602 0
DWIDTH 10 0
BBX 10 12 0 0
BITMAP
CC80
6D80
6D00
2F00
3E00
3E00
3F00
2F00
6D00
4D80
4D80
CCC0
ENDCHAR
STARTCHAR uni0417
ENCODING 1047
SWIDTH 602 0
DWIDTH 10 0
BBX 7 12 1 0
BITMAP
FC
C6
02
02
06
38
06
02
02
02
86
FC
ENDCHAR
STARTCHAR uni0418
ENCODING 1048
SWIDTH 602 0
DWIDTH 10 0
BBX 8 12 1 0
BITMAP
C7
C7
C7
CF
CB
DB
D3
D3
F3
E3
E3
C3
ENDCHAR
STARTCHAR uni0419
ENCODING 1049
SWIDTH 602 0
DWIDTH 10 0
BBX 8 15 1 0
BITMAP
44
3C
00
C7
C7
C7
CF
CB
DB
D3
D3
F3
E3
E3
C3
ENDCHAR
STARTCHAR uni041A
ENCODING 1050
SWIDTH 602 0
DWIDTH 10 0
BBX 9 12 1 0
BITMAP
C300
C600
CC00
D800
F000
F000
D800
CC00
CC00
C600
C300
C380
ENDCHAR
STARTCHAR uni041B
ENCODING 1051
SWIDTH 602 0
DWIDTH 10 0
BBX 9 12 0 0
BITMAP
3F80
3180
3180
3180
3180
3180
3180
3180
3180
3180
6180
C180
ENDCHAR
STARTCHAR uni041C
ENCODING 1052
SWIDTH 602 0
DWIDTH 10 0
BBX 8 12 1 0
BITMAP
C3
C7
E7
A7
AB
BB
9B
93
83
83
83
83
ENDCHAR
STARTCHAR uni041D
ENCODING 1053
SWIDTH 602 0
DWIDTH 10 0
BBX 8 12 1 0
BITMAP
C3
C3
C3
C3
C3
FF
C3
C3
C3
C3
C3
C3
ENDCHAR
STARTCHAR uni041E
ENCODING 1054
SWIDTH 602 0
DWIDTH 10 0
BBX 8 12 1 0
BITMAP
3C
66
C2
C3
C3
C3
C3
C3
C3
C2
66
3C
ENDCHAR
STARTCHAR uni041F
ENCODING 1055
SWIDTH 602 0
DWIDTH 10 0
BBX 8 12 1 0
BITMAP
FF
C3
C3
C3
C3
C3
C3
C3
C3
C3
C3
C3
ENDCHAR
STARTCHAR uni0420
ENCODING 1056
SWIDTH 602 0
DWIDTH 10 0
BBX 7 12 2 0
BITMAP
F8
8C
86
86
86
86
FC
80
80
80
80
80
ENDCHAR
STARTCHAR uni0421
ENCODING 1057
SWIDTH 602 0
DWIDTH 10 0
BBX 7 12 1 0
BITMAP
1E
62
40
C0
C0
C0
C0
C0
C0
40
72
1E
ENDCHAR
STARTCHAR uni0422
ENCODING 1058
SWIDTH 602 0
DWIDTH 10 0
BBX 9 12 0 0
BITMAP
FF80
0C00
0C00
0C00
0C00
0C00
0C00
0C00
0C00
0C00
0C00
0C00
ENDCHAR
STARTCHAR uni0423
ENCODING 1059
SWIDTH 602 0
DWIDTH 10 0
BBX 8 12 1 0
BITMAP
C3
43
62
66
24
34
3C
18
18
18
30
60
ENDCHAR
STARTCHAR uni0424
ENCODING 1060
SWIDTH 602 0
DWIDTH 10 0
BBX 8 12 1 0
BITMAP
18
7E
DE
9B
9B
9B
9B
9B
9B
DE
7E
18
ENDCHAR
STARTCHAR uni0425
ENCODING 1061
SWIDTH 602 0
DWIDTH 10 0
BBX 9 12 0 0
BITMAP
6180
2100
3300
1200
1C00
0C00
0C00
1E00
3200
2300
6180
C080
ENDCHAR
STARTCHAR uni0426
ENCODING 1062
SWIDTH 602 0
DWIDTH 10 0
BBX 8 15 1 -3
BITMAP
82
82
82
82
82
82
82
82
82
82
82
FF
01
01
01
ENDCHAR
STARTCHAR uni0427
ENCODING 1063
SWIDTH 602 0
DWIDTH 10 0
BBX 8 12 1 0
BITMAP
C3
C3
C3
C3
C3
C3
7F
03
03
03
03
03
ENDCHAR
STARTCHAR uni0428
ENCODING 1064
SWIDTH 602 0
DWIDTH 10 0
BBX 8 12 1 0
BITMAP
9B
9B
9B
9B
9B
9B
9B
9B
9B
9B
9B
FF
ENDCHAR
STARTCHAR uni0429
ENCODING 1065
SWIDTH 602 0
DWIDTH 10 0
BBX 9 15 1 -3
BITMAP
9300
9300
9300
9300
9300
9300
9300
9300
9300
9300
9300
FF80
0180
0180
0180
ENDCHAR
STARTCHAR uni042A
ENCODING 1066
SWIDTH 602 0
DWIDTH 10 0
BBX 9 12 0 0
BITMAP
F000
3000
3000
3000
3000
3F00
3380
3180
3180
3180
3380
3F00
ENDCHAR
STARTCHAR uni042B
ENCODING 1067
SWIDTH 602 0
DWIDTH 10 0
BBX 8 12 1 0
BITMAP
83
83
83
83
83
F3
9B
8B
8B
8B
9B
F3
ENDCHAR
STARTCHAR uni042C
ENCODING 1068
SWIDTH 602 0
DWIDTH 10 0
BBX 7 12 2 0
BITMAP
80
80
80
80
80
F8
8C
86
86
86
8C
F8
ENDCHAR
STARTCHAR uni042D
ENCODING 1069
SWIDTH 602 0
DWIDTH 10 0
BBX 8 12 1 0
BITMAP
78
8C
06
02
03
7F
03
03
02
06
CC
78
ENDCHAR
STARTCHAR uni042E
ENCODING 1070
SWIDTH 602 0
DWIDTH 10 0
BBX 8 12 1 0
BITMAP
8E
93
B3
B1
B1
F1
B1
B1
B1
93
93
8E
ENDCHAR
STARTCHAR uni042F
ENCODING 1071
SWIDTH 602 0
DWIDTH 10 0
BBX 9 12 0 0
BITMAP
1F80
3180
6180
6180
6180
2180
1F80
1980
3180
2180
6180
C180
ENDCHAR
STARTCHAR uni0430
ENCODING 1072
SWIDTH 602 0
DWIDTH 10 0
BBX 8 9 1 0
BITMAP
7C
46
02
7E
C2
C2
C6
CE
7B
ENDCHAR
STARTCHAR uni0431
ENCODING 1073
SWIDTH 602 0
DWIDTH 10 0
BBX 8 12 1 0
BITMAP
3E
60
C0
BC
E6
C2
C3
C3
C3
C2
66
3C
ENDCHAR
STARTCHAR uni0432
ENCODING 1074
SWIDTH 602 0
DWIDTH 10 0
BBX 6 9 2 0
BITMAP
F8
8C
8C
8C
F0
8C
84
8C
F8
ENDCHAR
STARTCHAR uni0433
ENCODING 1075
SWIDTH 602 0
DWIDTH 10 0
BBX 6 9 2 0
BITMAP
FC
C0
C0
C0
C0
C0
C0
C0
C0
ENDCHAR
STARTCHAR uni0434
ENCODING 1076
SWIDTH 602 0
DWIDTH 10 0
BBX 8 11 1 -2
BITMAP
7E
46
46
46
46
46
46
46
FF
81
81
ENDCHAR
STARTCHAR uni0435
ENCODING 1077
SWIDTH 602 0
DWIDTH 10 0
BBX 8 9 1 0
BITMAP
3C
66
C2
C3
FF
80
C0
62
3E
ENDCHAR
STARTCHAR uni0436
ENCODING 1078
SWIDTH 602 0
DWIDTH 10 0
BBX 9 9 0 0
BITMAP
4980
6900
3B00
3A00
3F00
2D00
6900
4980
C880
ENDCHAR
STARTCHAR uni0437
ENCODING 1079
SWIDTH 602 0
DWIDTH 10 0
BBX 7 9 1 0
BITMAP
7C
46
02
06
38
06
02
86
FC
ENDCHAR
STARTCHAR uni0438
ENCODING 1080
SWIDTH 602 0
DWIDTH 10 0
BBX 6 9 2 0
BITMAP
8C
8C
9C
94
B4
A4
C4
C4
84
ENDCHAR
STARTCHAR uni0439
ENCODING 1081
SWIDTH 602 0
DWIDTH 10 0
BBX 6 12 2 0
BITMAP
C8
78
00
8C
8C
9C
94
B4
A4
C4
C4
84
ENDCHAR
STARTCHAR uni043A
ENCODING 1082
SWIDTH 602 0
DWIDTH 10 0
BBX 7 9 2 0
BITMAP
86
88
90
A0
F0
98
8C
84
86
ENDCHAR
STARTCHAR uni043B
ENCODING 1083
SWIDTH 602 0
DWIDTH 10 0
BBX 8 9 0 0
BITMAP
3F
31
31
31
31
31
21
21
C1
ENDCHAR
STARTCHAR uni043C
ENCODING 1084
SWIDTH 602 0
DWIDTH 10 0
BBX 9 9 0 0
BITMAP
C080
E180
E380
F380
D680
DC80
CC80
C080
C080
ENDCHAR
STARTCHAR uni043D
ENCODING 1085
SWIDTH 602 0
DWIDTH 10 0
BBX 7 9 1 0
BITMAP
C2
C2
C2
C2
FE
C2
C2
C2
C2
ENDCHAR
STARTCHAR uni043E
ENCODING 1086
SWIDTH 602 0
DWIDTH 10 0
BBX 8 9 1 0
BITMAP
3C
66
C2
C3
C3
C3
C2
66
3C
ENDCHAR
STARTCHAR uni043F
ENCODING 1087
SWIDTH 602 0
DWIDTH 10 0
BBX 7 9 1 0
BITMAP
FE
C2
C2
C2
C2
C2
C2
C2
C2
ENDCHAR
STARTCHAR uni0440
ENCODING 1088
SWIDTH 602 0
DWIDTH 10 0
BBX 8 12 1 -3
BITMAP
DC
E6
C2
C3
C3
C3
C2
E6
DC
C0
C0
C0
ENDCHAR
STARTCHAR uni0441
ENCODING 1089
SWIDTH 602 0
DWIDTH 10 0
BBX 7 9 1 0
BITMAP
3E
62
40
C0
C0
C0
40
62
3E
ENDCHAR
STARTCHAR uni0442
ENCODING 1090
SWIDTH 602 0
DWIDTH 10 0
BBX 6 9 2 0
BITMAP
FC
30
30
30
30
30
30
30
30
ENDCHAR
STARTCHAR uni0443
ENCODING 1091
SWIDTH 602 0
DWIDTH 10 0
BBX 8 12 1 -3
BITMAP
C3
C3
42
66
24
34
3C
18
18
10
30
60
ENDCHAR
STARTCHAR uni0444
ENCODING 1092
SWIDTH 602 0
DWIDTH 10 0
BBX 8 16 1 -3
BITMAP
18
18
18
18
7E
DA
9B
9B
9B
9B
DB
FE
3C
18
18
18
ENDCHAR
STARTCHAR uni0445
ENCODING 1093
SWIDTH 602 0
DWIDTH 10 0
BBX 8 9 1 0
BITMAP
C3
66
2C
38
18
38
64
46
C3
ENDCHAR
STARTCHAR uni0446
ENCODING 1094
SWIDTH 602 0
DWIDTH 10 0
BBX 8 11 1 -2
BITMAP
C2
C2
C2
C2
C2
C2
C2
C2
FF
01
01
ENDCHAR
STARTCHAR uni0447
ENCODING 1095
SWIDTH 602 0
DWIDTH 10 0
BBX 7 9 1 0
BITMAP
C2
C2
C2
C2
C6
7E
02
02
02
ENDCHAR
STARTCHAR uni0448
ENCODING 1096
SWIDTH 602 0
DWIDTH 10 0
BBX 8 9 1 0
BITMAP
93
93
93
93
93
93
93
93
FF
ENDCHAR
STARTCHAR uni0449
ENCODING 1097
SWIDTH 602 0
DWIDTH 10 0
BBX 9 11 1 -2
BITMAP
9300
9300
9300
9300
9300
9300
9300
9300
FF80
0180
0180
ENDCHAR
STARTCHAR uni044A
ENCODING 1098
SWIDTH 602 0
DWIDTH 10 0
BBX 9 9 0 0
BITMAP
F000
3000
3000
3000
3F00
3180
3080
3180
3F00
ENDCHAR
STARTCHAR uni044B
ENCODING 1099
SWIDTH 602 0
DWIDTH 10 0
BBX 8 9 1 0
BITMAP
83
83
83
83
F3
9B
8B
9B
F3
ENDCHAR
STARTCHAR uni044C
ENCODING 1100
SWIDTH 602 0
DWIDTH 10 0
BBX 7 9 2 0
BITMAP
80
80
80
80
FC
84
86
84
FC
ENDCHAR
STARTCHAR uni044D
ENCODING 1101
SWIDTH 602 0
DWIDTH 10 0
BBX 7 9 2 0
BITMAP
F0
8C
04
04
7E
04
04
8C
F0
ENDCHAR
STARTCHAR uni044E
ENCODING 1102
SWIDTH 602 0
DWIDTH 10 0
BBX 8 9 1 0
BITMAP
8E
9B
91
91
F1
B1
91
9B
8E
ENDCHAR
STARTCHAR uni044F
ENCODING 1103
SWIDTH 602 0
DWIDTH 10 0
BBX 7 9 1 0
BITMAP
3E
66
46
66
7E
36
26
66
C6
ENDCHAR
STARTCHAR uni0450
ENCODING 1104
SWIDTH 602 0
DWIDTH 10 0
BBX 8 14 1 0
BITMAP
60
20
10
18
00
3C
66
C2
C3
FF
80
C0
62
3E
ENDCHAR
STARTCHAR uni0451
ENCODING 1105
SWIDTH 602 0
DWIDTH 10 0
BBX 8 12 1 0
BITMAP
24
00
00
3C
66
C2
C3
FF
80
C0
62
3E
ENDCHAR
STARTCHAR uni0452
ENCODING 1106
SWIDTH 602 0
DWIDTH 10 0
BBX 8 15 1 -3
BITMAP
60
60
60
FC
60
60
7E
73
63
63
63
63
03
06
0C
ENDCHAR
STARTCHAR uni0453
ENCODING 1107
SWIDTH 602 0
DWIDTH 10 0
BBX 6 13 2 0
BITMAP
04
08
10
00
FC
C0
C0
C0
C0
C0
C0
C0
C0
ENDCHAR
STARTCHAR uni0454
ENCODING 1108
SWIDTH 602 0
DWIDTH 10 0
BBX 7 9 1 0
BITMAP
3E
62
40
C0
FC
C0
40
62
3E
ENDCHAR
STARTCHAR uni0455
ENCODING 1109
SWIDTH 602 0
DWIDTH 10 0
BBX 6 9 2 0
BITMAP
7C
C4
80
C0
78
0C
04
8C
F8
ENDCHAR
STARTCHAR uni0456
ENCODING 1110
SWIDTH 602 0
DWIDTH 10 0
BBX 6 12 2 0
BITMAP
20
00
00
E0
20
20
20
20
20
20
30
1C
ENDCHAR
STARTCHAR uni0457
ENCODING 1111
SWIDTH 602 0
DWIDTH 10 0
BBX 6 12 2 0
BITMAP
90
00
00
E0
20
20
20
20
20
20
30
1C
ENDCHAR
STARTCHAR uni0458
ENCODING 1112
SWIDTH 602 0
DWIDTH 10 0
BBX 5 15 2 -3
BITMAP
18
00
00
78
18
18
18
18
18
18
18
18
10
10
F0
ENDCHAR
STARTCHAR uni0459
ENCODING 1113
SWIDTH 602 0
DWIDTH 10 0
BBX 10 9 0 0
BITMAP
3C00
2400
2400
2400
2780
2480
24C0
6480
C780
ENDCHAR
STARTCHAR uni045A
ENCODING 1114
SWIDTH 602 0
DWIDTH 10 0
BBX 9 9 1 0
BITMAP
8800
8800
8800
8800
FE00
8900
8980
8900
8E00
ENDCHAR
STARTCHAR uni045B
ENCODING 1115
SWIDTH 602 0
DWIDTH 10 0
BBX 8 12 1 0
BITMAP
40
40
40
FC
40
40
5E
62
63
43
43
43
ENDCHAR
STARTCHAR uni045C
ENCODING 1116
SWIDTH 602 0
DWIDTH 10 0
BBX 7 13 2 0
BITMAP
0C
18
30
00
86
88
90
A0
F0
98
8C
84
86
ENDCHAR
STARTCHAR uni045D
ENCODING 1117
SWIDTH 602 0
DWIDTH 10 0
BBX 6 13 2 0
BITMAP
60
20
10
00
8C
8C
9C
94
B4
A4
C4
C4
84
ENDCHAR
STARTCHAR uni045E
ENCODING 1118
SWIDTH 602 0
DWIDTH 10 0
BBX 8 15 1 -3
BITMAP
64
3C
00
C3
C3
42
66
24
34
3C
18
18
10
30
60
ENDCHAR
STARTCHAR uni045F
ENCODING 1119
SWIDTH 602 0
DWIDTH 10 0
BBX 7 11 1 -2
BITMAP
C2
C2
C2
C2
C2
C2
C2
C2
FE
10
10
ENDCHAR
STARTCHAR uni0462
ENCODING 1122
SWIDTH 602 0
DWIDTH 10 0
BBX 9 12 0 0
BITMAP
3000
3000
FE00
3000
3000
3E00
3300
3180
3180
3180
3300
3E00
ENDCHAR
STARTCHAR uni0463
ENCODING 1123
SWIDTH 602 0
DWIDTH 10 0
BBX 9 12 0 0
BITMAP
3000
3000
3000
FE00
3000
3000
3000
3F00
3180
3080
3180
3F00
ENDCHAR
STARTCHAR uni0472
ENCODING 1138
SWIDTH 602 0
DWIDTH 10 0
BBX 8 12 1 0
BITMAP
3C
66
C2
C3
C3
FF
C3
C3
C3
C2
66
3C
ENDCHAR
STARTCHAR uni0473
ENCODING 1139
SWIDTH 602 0
DWIDTH 10 0
BBX 8 9 1 0
BITMAP
3C
66
C2
C3
FF
C3
C2
66
3C
ENDCHAR
STARTCHAR uni0490
ENCODING 1168
SWIDTH 602 0
DWIDTH 10 0
BBX 7 14 2 0
BITMAP
02
02
FE
80
80
80
80
80
80
80
80
80
80
80
ENDCHAR
STARTCHAR uni0491
ENCODING 1169
SWIDTH 602 0
DWIDTH 10 0
BBX 6 11 2 0
BITMAP
04
04
FC
C0
C0
C0
C0
C0
C0
C0
C0
ENDCHAR
STARTCHAR uni0492
ENCODING 1170
SWIDTH 602 0
DWIDTH 10 0
BBX 8 12 1 0
BITMAP
7F
40
40
40
FE
40
40
40
40
40
40
40
ENDCHAR
STARTCHAR uni0493
ENCODING 1171
SWIDTH 602 0
DWIDTH 10 0
BBX 7 9 1 0
BITMAP
7E
60
60
60
FC
60
60
60
60
ENDCHAR
STARTCHAR uni0494
ENCODING 1172
SWIDTH 602 0
DWIDTH 10 0
BBX 8 15 1 -3
BITMAP
FF
C0
C0
C0
C0
FC
C6
C2
C3
C3
C3
C3
02
06
0C
ENDCHAR
STARTCHAR uni0495
ENCODING 1173
SWIDTH 602 0
DWIDTH 10 0
BBX 6 12 2 -3
BITMAP
FC
80
80
80
FC
84
84
84
84
04
04
3C
ENDCHAR
STARTCHAR uni0496
ENCODING 1174
SWIDTH 602 0
DWIDTH 10 0
BBX 10 15 0 -3
BITMAP
CC80
6D80
6D00
2F00
3E00
3E00
3F00
2F00
6D00
6D80
4D80
CCC0
00C0
00C0
00C0
ENDCHAR
STARTCHAR uni0497
ENCODING 1175
SWIDTH 602 0
DWIDTH 10 0
BBX 9 11 0 -2
BITMAP
4980
6900
3B00
3A00
3F00
2D00
6900
4980
C880
0080
0080
ENDCHAR
STARTCHAR uni0498
ENCODING 1176
SWIDTH 602 0
DWIDTH 10 0
BBX 7 15 1 -3
BITMAP
FC
C6
02
02
06
38
06
02
02
02
86
FC
10
08
30
ENDCHAR
STARTCHAR uni0499
ENCODING 1177
SWIDTH 602 0
DWIDTH 10 0
BBX 7 12 1 -3
BITMAP
7C
46
02
06
38
06
02
86
FC
10
08
30
ENDCHAR
STARTCHAR uni049A
ENCODING 1178
SWIDTH 602 0
DWIDTH 10 0
BBX 9 15 1 -3
BITMAP
C300
C600
CC00
D800
D000
F000
F800
C800
CC00
C600
C200
C380
0180
0180
0180
ENDCHAR
STARTCHAR uni049B
ENCODING 1179
SWIDTH 602 0
DWIDTH 10 0
BBX 7 11 2 -2
BITMAP
8E
98
B0
F0
D0
98
8C
86
86
02
02
ENDCHAR
STARTCHAR uni04A2
ENCODING 1186
SWIDTH 602 0
DWIDTH 10 0
BBX 10 15 0 -3
BITMAP
C300
C300
C300
C300
C300
FF00
C300
C300
C300
C300
C300
C3C0
00C0
00C0
00C0
ENDCHAR
STARTCHAR uni04A3
ENCODING 1187
SWIDTH 602 0
DWIDTH 10 0
BBX 9 11 1 -2
BITMAP
C200
C200
C200
C200
FE00
C200
C200
C380
C380
0180
0180
ENDCHAR
STARTCHAR uni04A4
ENCODING 1188
SWIDTH 602 0
DWIDTH 10 0
BBX 8 12 2 0
BITMAP
8F
88
88
88
88
F8
88
88
88
88
88
88
ENDCHAR
STARTCHAR uni04A5
ENCODING 1189
SWIDTH 602 0
DWIDTH 10 0
BBX 9 9 1 0
BITMAP
C780
C400
C400
C400
FC00
C400
C400
C400
C400
ENDCHAR
STARTCHAR uni04AA
ENCODING 1194
SWIDTH 602 0
DWIDTH 10 0
BBX 7 15 1 -3
BITMAP
1E
62
40
C0
C0
C0
C0
C0
C0
40
62
3E
04
04
1C
ENDCHAR
STARTCHAR uni04AB
ENCODING 1195
SWIDTH 602 0
DWIDTH 10 0
BBX 7 12 1 -3
BITMAP
3E
62
40
C0
C0
C0
40
62
3E
04
04
1C
ENDCHAR
STARTCHAR uni04AC
ENCODING 1196
SWIDTH 602 0
DWIDTH 10 0
BBX 9 15 0 -3
BITMAP
FF80
0C00
0C00
0C00
0C00
0C00
0C00
0C00
0C00
0C00
0C00
0E00
0200
0200
0200
ENDCHAR
STARTCHAR uni04AD
ENCODING 1197
SWIDTH 602 0
DWIDTH 10 0
BBX 6 11 2 -2
BITMAP
FC
30
30
30
30
30
30
38
38
08
08
ENDCHAR
STARTCHAR uni04AE
ENCODING 1198
SWIDTH 602 0
DWIDTH 10 0
BBX 9 12 0 0
BITMAP
C180
6180
2300
3200
1600
1C00
0C00
0C00
0C00
0C00
0C00
0C00
ENDCHAR
STARTCHAR uni04AF
ENCODING 1199
SWIDTH 602 0
DWIDTH 10 0
BBX 8 12 1 -3
BITMAP
83
C2
46
66
64
2C
38
18
18
18
18
18
ENDCHAR
STARTCHAR uni04B0
ENCODING 1200
SWIDTH 602 0
DWIDTH 10 0
BBX 9 12 0 0
BITMAP
C180
6100
2300
3200
1600
0C00
0C00
3F00
0C00
0C00
0C00
0C00
ENDCHAR
STARTCHAR uni04B1
ENCODING 1201
SWIDTH 602 0
DWIDTH 10 0
BBX 8 12 1 -3
BITMAP
83
C2
46
66
64
2C
38
18
18
7C
18
18
ENDCHAR
STARTCHAR uni04B2
ENCODING 1202
SWIDTH 602 0
DWIDTH 10 0
BBX 9 15 0 -3
BITMAP
6180
2100
3300
1200
1E00
0C00
0C00
1E00
3200
2300
6100
C080
0080
0080
0080
ENDCHAR
STARTCHAR uni04B3
ENCODING 1203
SWIDTH 602 0
DWIDTH 10 0
BBX 8 11 1 -2
BITMAP
C3
66
3C
18
18
3C
66
43
C3
01
01
ENDCHAR
STARTCHAR uni04BA
ENCODING 1210
SWIDTH 602 0
DWIDTH 10 0
BBX 8 12 1 0
BITMAP
C0
C0
C0
C0
C0
FE
E6
C3
C3
C3
C3
C3
ENDCHAR
STARTCHAR uni04BB
ENCODING 1211
SWIDTH 602 0
DWIDTH 10 0
BBX 6 12 2 0
BITMAP
80
80
80
B8
CC
84
84
84
84
84
84
84
ENDCHAR
STARTCHAR uni04C0
ENCODING 1216
SWIDTH 602 0
DWIDTH 10 0
BBX 6 12 2 0
BITMAP
FC
30
30
30
30
30
30
30
30
30
30
FC
ENDCHAR
STARTCHAR uni04C1
ENCODING 1217
SWIDTH 602 0
DWIDTH 10 0
BBX 10 15 0 0
BITMAP
2200
1E00
0000
CC80
6D80
6D00
2F00
3E00
3E00
3F00
2F00
6D00
4D80
4D80
CCC0
ENDCHAR
STARTCHAR uni04C2
ENCODING 1218
SWIDTH 602 0
DWIDTH 10 0
BBX 9 13 0 0
BITMAP
3200
1E00
0000
0000
4980
6900
3B00
3A00
3F00
2D00
6900
4980
C880
ENDCHAR
STARTCHAR uni04C3
ENCODING 1219
SWIDTH 602 0
DWIDTH 10 0
BBX 8 15 1 -3
BITMAP
C3
C6
CC
D8
F0
FC
C6
C2
C2
C2
C2
C2
02
06
1C
ENDCHAR
STARTCHAR uni04C4
ENCODING 1220
SWIDTH 602 0
DWIDTH 10 0
BBX 7 12 2 -3
BITMAP
8E
98
B0
E0
FC
84
84
84
84
04
04
38
ENDCHAR
STARTCHAR uni04C7
ENCODING 1223
SWIDTH 602 0
DWIDTH 10 0
BBX 8 15 1 -3
BITMAP
C3
C3
C3
C3
C3
FF
C3
C3
C3
C3
C3
C3
02
06
0C
ENDCHAR
STARTCHAR uni04C8
ENCODING 1224
SWIDTH 602 0
DWIDTH 10 0
BBX 6 12 2 -3
BITMAP
84
84
84
FC
84
84
84
84
84
04
0C
38
ENDCHAR
STARTCHAR uni04CB
ENCODING 1227
SWIDTH 602 0
DWIDTH 10 0
BBX 7 15 1 -3
BITMAP
C2
C2
C2
C2
C2
C6
7E
02
02
02
02
0E
0C
0C
0C
ENDCHAR
STARTCHAR uni04CC
ENCODING 1228
SWIDTH 602 0
DWIDTH 10 0
BBX 7 11 1 -2
BITMAP
C2
C2
C2
C6
46
7A
02
0E
0E
0C
0C
ENDCHAR
STARTCHAR uni04CF
ENCODING 1231
SWIDTH 602 0
DWIDTH 10 0
BBX 1 12 4 0
BITMAP
80
80
80
80
80
80
80
80
80
80
80
80
ENDCHAR
STARTCHAR uni04D0
ENCODING 1232
SWIDTH 602 0
DWIDTH 10 0
BBX 9 15 0 0
BITMAP
2200
1E00
0000
0C00
1C00
1E00
1600
1200
3200
3300
2300
7F00
6180
4180
C080
ENDCHAR
STARTCHAR uni04D1
ENCODING 1233
SWIDTH 602 0
DWIDTH 10 0
BBX 8 13 1 0
BITMAP
64
3C
00
00
7C
46
02
3E
C2
C2
C6
C6
7B
ENDCHAR
STARTCHAR uni04D2
ENCODING 1234
SWIDTH 602 0
DWIDTH 10 0
BBX 9 15 0 0
BITMAP
3200
0000
0000
0C00
1C00
1E00
1600
1200
3200
3300
2300
7F00
6180
4180
C080
ENDCHAR
STARTCHAR uni04D3
ENCODING 1235
SWIDTH 602 0
DWIDTH 10 0
BBX 8 12 1 0
BITMAP
64
00
00
7C
46
02
3E
C2
C2
C6
C6
7B
ENDCHAR
STARTCHAR uni04D4
ENCODING 1236
SWIDTH 602 0
DWIDTH 10 0
BBX 9 12 0 0
BITMAP
1F80
1400
1400
3400
2400
2780
6400
6400
7C00
4400
C400
C780
ENDCHAR
STARTCHAR uni04D5
ENCODING 1237
SWIDTH 602 0
DWIDTH 10 0
BBX 9 9 0 0
BITMAP
7700
4C80
0C80
0C80
7F80
CC00
CC00
CC80
7780
ENDCHAR
STARTCHAR uni04D6
ENCODING 1238
SWIDTH 602 0
DWIDTH 10 0
BBX 7 15 2 0
BITMAP
48
78
00
FC
80
80
80
80
FC
80
80
80
80
80
FE
ENDCHAR
STARTCHAR uni04D7
ENCODING 1239
SWIDTH 602 0
DWIDTH 10 0
BBX 8 13 1 0
BITMAP
64
3C
00
00
3C
66
C2
C3
FF
80
C0
62
3E
ENDCHAR
STARTCHAR uni04D8
ENCODING 1240
SWIDTH 602 0
DWIDTH 10 0
BBX 8 12 1 0
BITMAP
7C
46
02
03
03
FF
C3
C3
C3
C2
66
3C
ENDCHAR
STARTCHAR uni04D9
ENCODING 1241
SWIDTH 602 0
DWIDTH 10 0
BBX 8 9 1 0
BITMAP
7C
C6
03
03
FF
C3
C2
66
3C
ENDCHAR
STARTCHAR uni04DA
ENCODING 1242
SWIDTH 602 0
DWIDTH 10 0
BBX 8 15 1 0
BITMAP
64
00
00
7C
46
02
03
03
FF
C3
C3
C3
C2
66
3C
ENDCHAR
STARTCHAR uni04DB
ENCODING 1243
SWIDTH 602 0
DWIDTH 10 0
BBX 8 12 1 0
BITMAP
24
00
00
7C
C6
03
03
FF
C3
C2
66
3C
ENDCHAR
STARTCHAR uni04DC
ENCODING 1244
SWIDTH 602 0
DWIDTH 10 0
BBX 10 15 0 0
BITMAP
3200
0000
0000
CC80
6D80
6D00
2F00
3E00
3E00
3F00
2F00
6D00
4D80
4D80
CCC0
ENDCHAR
STARTCHAR uni04DD
ENCODING 1245
SWIDTH 602 0
DWIDTH 10 0
BBX 9 12 0 0
BITMAP
3200
0000
0000
4980
6900
3B00
3A00
3F00
2D00
6900
4980
C880
ENDCHAR
STARTCHAR uni04DE
ENCODING 1246
SWIDTH 602 0
DWIDTH 10 0
BBX 7 15 1 0
BITMAP
6C
00
00
FC
C6
02
02
06
38
06
02
02
02
86
FC
ENDCHAR
STARTCHAR uni04DF
ENCODING 1247
SWIDTH 602 0
DWIDTH 10 0
BBX 7 12 1 0
BITMAP
6C
00
00
7C
46
02
06
38
06
02
86
FC
ENDCHAR
STARTCHAR uni04E0
ENCODING 1248
SWIDTH 602 0
DWIDTH 10 0
BBX 9 12 0 0
BITMAP
7F00
0300
0200
0600
0C00
0F00
0180
0080
C080
C080
6180
3F00
ENDCHAR
STARTCHAR uni04E1
ENCODING 1249
SWIDTH 602 0
DWIDTH 10 0
BBX 8 12 1 -3
BITMAP
FE
06
0C
18
10
3C
06
03
03
03
86
FC
ENDCHAR
STARTCHAR uni04E2
ENCODING 1250
SWIDTH 602 0
DWIDTH 10 0
BBX 8 15 1 0
BITMAP
7C
00
00
C7
C7
C7
CF
CB
DB
D3
D3
F3
E3
E3
C3
ENDCHAR
STARTCHAR uni04E3
ENCODING 1251
SWIDTH 602 0
DWIDTH 10 0
BBX 6 12 2 0
BITMAP
F8
00
00
8C
8C
9C
94
B4
A4
C4
C4
84
ENDCHAR
STARTCHAR uni04E4
ENCODING 1252
SWIDTH 602 0
DWIDTH 10 0
BBX 8 15 1 0
BITMAP
64
00
00
C7
C7
C7
CF
CB
DB
D3
D3
F3
E3
E3
C3
ENDCHAR
STARTCHAR uni04E5
ENCODING 1253
SWIDTH 602 0
DWIDTH 10 0
BBX 6 12 2 0
BITMAP
C8
00
00
8C
8C
9C
94
B4
A4
C4
C4
84
ENDCHAR
STARTCHAR uni04E6
ENCODING 1254
SWIDTH 602 0
DWIDTH 10 0
BBX 8 15 1 0
BITMAP
64
00
00
3C
66
C2
C3
C3
C3
C3
C3
C3
C2
66
3C
ENDCHAR
STARTCHAR uni04E7
ENCODING 1255
SWIDTH 602 0
DWIDTH 10 0
BBX 8 12 1 0
BITMAP
64
00
00
3C
66
C2
C3
C3
C3
C2
66
3C
ENDCHAR
STARTCHAR uni04E8
ENCODING 1256
SWIDTH 602 0
DWIDTH 10 0
BBX 8 12 1 0
BITMAP
3C
66
C2
C3
C3
FF
C3
C3
C3
C2
66
3C
ENDCHAR
STARTCHAR uni04E9
ENCODING 1257
SWIDTH 602 0
DWIDTH 10 0
BBX 8 9 1 0
BITMAP
3C
66
C2
C3
FF
C3
C2
66
3C
ENDCHAR
STARTCHAR uni04EA
ENCODING 1258
SWIDTH 602 0
DWIDTH 10 0
BBX 8 15 1 0
BITMAP
64
00
00
3C
66
C2
C3
C3
FF
C3
C3
C3
C2
66
3C
ENDCHAR
STARTCHAR uni04EB
ENCODING 1259
SWIDTH 602 0
DWIDTH 10 0
BBX 8 12 1 0
BITMAP
64
00
00
3C
66
C2
C3
FF
C3
C2
66
3C
ENDCHAR
STARTCHAR uni04EC
ENCODING 1260
SWIDTH 602 0
DWIDTH 10 0
BBX 8 15 1 0
BITMAP
6C
00
00
78
CC
06
02
03
7F
03
03
02
06
CC
78
ENDCHAR
STARTCHAR uni04ED
ENCODING 1261
SWIDTH 602 0
DWIDTH 10 0
BBX 6 12 2 0
BITMAP
D8
00
00
F0
9C
0C
04
7C
04
04
8C
F0
ENDCHAR
STARTCHAR uni04EE
ENCODING 1262
SWIDTH 602 0
DWIDTH 10 0
BBX 8 15 1 0
BITMAP
3C
00
00
C3
43
62
66
24
34
3C
18
18
18
30
60
ENDCHAR
STARTCHAR uni04EF
ENCODING 1263
SWIDTH 602 0
DWIDTH 10 0
BBX 8 15 1 -3
BITMAP
7C
00
00
C3
C2
42
66
24
2C
38
18
18
10
30
E0
ENDCHAR
STARTCHAR uni04F0
ENCODING 1264
SWIDTH 602 0
DWIDTH 10 0
BBX 8 15 1 0
BITMAP
24
00
00
C3
43
62
66
24
34
3C
18
18
18
30
60
ENDCHAR
STARTCHAR uni04F1
ENCODING 1265
SWIDTH 602 0
DWIDTH 10 0
BBX 8 15 1 -3
BITMAP
64
00
00
C3
C2
42
66
24
2C
38
18
18
10
30
E0
ENDCHAR
STARTCHAR uni04F2
ENCODING 1266
SWIDTH 602 0
DWIDTH 10 0
BBX 8 15 1 0
BITMAP
1A
3C
00
C3
43
62
66
24
34
3C
18
18
18
30
60
ENDCHAR
STARTCHAR uni04F3
ENCODING 1267
SWIDTH 602 0
DWIDTH 10 0
BBX 8 16 1 -3
BITMAP
1A
34
2C
00
C3
C2
42
66
24
2C
38
18
18
10
30
E0
ENDCHAR
STARTCHAR uni04F4
ENCODING 1268
SWIDTH 602 0
DWIDTH 10 0
BBX 7 15 1 0
BITMAP
6C
00
00
C2
C2
C2
C2
C2
C6
7E
02
02
02
02
02
ENDCHAR
STARTCHAR uni04F5
ENCODING 1269
SWIDTH 602 0
DWIDTH 10 0
BBX 7 12 1 0
BITMAP
24
00
00
C2
C2
C2
C2
C6
7E
02
02
02
ENDCHAR
STARTCHAR uni04F6
ENCODING 1270
SWIDTH 602 0
DWIDTH 10 0
BBX 7 15 2 -3
BITMAP
FE
80
80
80
80
80
80
80
80
80
80
E0
60
60
60
ENDCHAR
STARTCHAR uni04F7
ENCODING 1271
SWIDTH 602 0
DWIDTH 10 0
BBX 6 11 2 -2
BITMAP
FC
C0
C0
C0
C0
C0
C0
E0
E0
20
20
ENDCHAR
STARTCHAR uni04F8
ENCODING 1272
SWIDTH 602 0
DWIDTH 10 0
BBX 8 15 1 0
BITMAP
24
00
00
83
83
83
83
83
F3
9B
8B
8B
8B
9B
F3
ENDCHAR
STARTCHAR uni04F9
ENCODING 1273
SWIDTH 602 0
DWIDTH 10 0
BBX 8 12 1 0
BITMAP
64
00
00
83
83
83
83
F3
9B
8B
9B
F3
ENDCHAR
STARTCHAR uni0510
ENCODING 1296
SWIDTH 602 0
DWIDTH 10 0
BBX 7 12 1 0
BITMAP
3E
62
C0
C0
60
38
60
C0
C0
C0
62
3E
ENDCHAR
STARTCHAR uni0511
ENCODING 1297
SWIDTH 602 0
DWIDTH 10 0
BBX 7 9 1 0
BITMAP
3E
62
40
40
38
60
C0
62
3E
ENDCHAR
STARTCHAR uni051A
ENCODING 1306
SWIDTH 602 0
DWIDTH 10 0
BBX 8 14 1 -2
BITMAP
3C
66
C2
C3
C3
C3
C3
C3
C3
C2
66
3C
04
03
ENDCHAR
STARTCHAR uni051B
ENCODING 1307
SWIDTH 602 0
DWIDTH 10 0
BBX 7 12 1 -3
BITMAP
3A
66
C6
C2
C2
C2
C6
66
3A
02
02
02
ENDCHAR
STARTCHAR uni051C
ENCODING 1308
SWIDTH 602 0
DWIDTH 10 0
BBX 10 12 0 0
BITMAP
C0C0
C080
C080
4C80
4C80
5D80
5580
5780
7300
7300
3300
2300
ENDCHAR
STARTCHAR uni051D
ENCODING 1309
SWIDTH 602 0
DWIDTH 10 0
BBX 10 9 0 0
BITMAP
C0C0
C080
4080
4D80
4D80
7500
7500
3300
3300
ENDCHAR
STARTCHAR uni0531
ENCODING 1329
SWIDTH 602 0
DWIDTH 10 0
BBX 8 12 1 0
BITMAP
C2
C2
C2
C2
C2
C2
C2
C2
CA
DA
CE
7F
ENDCHAR
STARTCHAR uni0532
ENCODING 1330
SWIDTH 602 0
DWIDTH 10 0
BBX 8 12 1 0
BITMAP
3C
46
C2
C2
C2
C0
C0
FF
C0
C0
C0
C0
ENDCHAR
STARTCHAR uni0533
ENCODING 1331
SWIDTH 602 0
DWIDTH 10 0
BBX 8 12 1 0
BITMAP
78
C4
86
86
86
86
C6
7F
06
06
06
06
ENDCHAR
STARTCHAR uni0534
ENCODING 1332
SWIDTH 602 0
DWIDTH 10 0
BBX 9 12 0 0
BITMAP
3C00
6600
4300
C300
C300
0300
0300
0380
0300
0300
0300
0300
ENDCHAR
STARTCHAR uni0535
ENCODING 1333
SWIDTH 602 0
DWIDTH 10 0
BBX 8 12 1 0
BITMAP
C0
C0
C0
FF
C0
C0
C0
C2
C2
C2
66
3C
ENDCHAR
STARTCHAR uni0536
ENCODING 1334
SWIDTH 602 0
DWIDTH 10 0
BBX 8 12 1 0
BITMAP
3C
66
C3
83
83
03
03
02
06
CC
D8
FF
ENDCHAR
STARTCHAR uni0537
ENCODING 1335
SWIDTH 602 0
DWIDTH 10 0
BBX 8 12 1 0
BITMAP
C0
C0
C0
FF
C0
C0
C0
C0
C0
C0
C0
FE
ENDCHAR
STARTCHAR uni0538
ENCODING 1336
SWIDTH 602 0
DWIDTH 10 0
BBX 8 12 1 0
BITMAP
3C
46
C2
C2
C2
C0
C0
C0
C0
C0
C0
FF
ENDCHAR
STARTCHAR uni0539
ENCODING 1337
SWIDTH 602 0
DWIDTH 10 0
BBX 9 12 1 0
BITMAP
7C00
C600
8200
8200
8300
9F80
9300
B300
B300
B200
9600
9C00
ENDCHAR
STARTCHAR uni053A
ENCODING 1338
SWIDTH 602 0
DWIDTH 10 0
BBX 8 12 1 0
BITMAP
06
06
06
7F
C6
86
86
86
86
86
CC
78
ENDCHAR
STARTCHAR uni053B
ENCODING 1339
SWIDTH 602 0
DWIDTH 10 0
BBX 8 12 1 0
BITMAP
C0
C0
C0
FC
E6
C3
C3
C3
C0
C0
C0
C0
ENDCHAR
STARTCHAR uni053C
ENCODING 1340
SWIDTH 602 0
DWIDTH 10 0
BBX 8 12 1 0
BITMAP
C0
C0
C0
C0
C0
C0
C0
C0
C0
C0
C0
FF
ENDCHAR
STARTCHAR uni053D
ENCODING 1341
SWIDTH 602 0
DWIDTH 10 0
BBX 8 12 1 0
BITMAP
80
80
80
F3
93
93
93
93
93
93
93
9E
ENDCHAR
STARTCHAR uni053E
ENCODING 1342
SWIDTH 602 0
DWIDTH 10 0
BBX 9 12 0 0
BITMAP
CF80
D880
FE00
6300
6180
4180
4080
4080
4080
6180
3300
1E00
ENDCHAR
STARTCHAR uni053F
ENCODING 1343
SWIDTH 602 0
DWIDTH 10 0
BBX 7 12 1 0
BITMAP
C0
C0
C0
C2
C2
C2
C2
46
7E
02
02
02
ENDCHAR
STARTCHAR uni0540
ENCODING 1344
SWIDTH 602 0
DWIDTH 10 0
BBX 8 12 1 0
BITMAP
0C
06
03
0E
38
60
C0
80
E0
78
0F
03
ENDCHAR
STARTCHAR uni0541
ENCODING 1345
SWIDTH 602 0
DWIDTH 10 0
BBX 8 12 1 0
BITMAP
3C
66
C3
83
83
03
03
72
DE
86
DE
73
ENDCHAR
STARTCHAR uni0542
ENCODING 1346
SWIDTH 602 0
DWIDTH 10 0
BBX 9 12 0 0
BITMAP
3C00
6600
4300
C300
C300
0300
0300
0300
0300
0300
0300
0380
ENDCHAR
STARTCHAR uni0543
ENCODING 1347
SWIDTH 602 0
DWIDTH 10 0
BBX 8 12 1 0
BITMAP
C3
66
2C
38
30
38
6C
CC
C6
86
C3
FF
ENDCHAR
STARTCHAR uni0544
ENCODING 1348
SWIDTH 602 0
DWIDTH 10 0
BBX 8 12 1 0
BITMAP
87
86
86
86
86
86
86
86
86
86
C4
78
ENDCHAR
STARTCHAR uni0545
ENCODING 1349
SWIDTH 602 0
DWIDTH 10 0
BBX 9 12 0 0
BITMAP
1E00
3300
2180
0180
0300
FE00
0380
0180
6180
6180
3380
1E00
ENDCHAR
STARTCHAR uni0546
ENCODING 1350
SWIDTH 602 0
DWIDTH 10 0
BBX 9 12 0 0
BITMAP
E000
2000
2000
2000
2000
2000
2000
2080
2080
3080
3180
1F00
ENDCHAR
STARTCHAR uni0547
ENCODING 1351
SWIDTH 602 0
DWIDTH 10 0
BBX 8 12 1 0
BITMAP
E0
3C
7E
66
C0
C0
80
83
83
C3
66
3C
ENDCHAR
STARTCHAR uni0548
ENCODING 1352
SWIDTH 602 0
DWIDTH 10 0
BBX 7 12 1 0
BITMAP
3C
66
C2
C2
C2
C2
C2
C2
C2
C2
C2
C2
ENDCHAR
STARTCHAR uni0549
ENCODING 1353
SWIDTH 602 0
DWIDTH 10 0
BBX 8 12 1 0
BITMAP
3C
66
C3
83
83
03
03
02
46
7C
1E
06
ENDCHAR
STARTCHAR uni054A
ENCODING 1354
SWIDTH 602 0
DWIDTH 10 0
BBX 9 12 0 0
BITMAP
3E00
6B00
4980
C980
C980
0980
0980
0980
0180
0180
0180
0180
ENDCHAR
STARTCHAR uni054B
ENCODING 1355
SWIDTH 602 0
DWIDTH 10 0
BBX 8 12 1 0
BITMAP
3C
66
C2
83
83
F3
7B
0A
0E
CC
D8
FF
ENDCHAR
STARTCHAR uni054C
ENCODING 1356
SWIDTH 602 0
DWIDTH 10 0
BBX 9 12 1 0
BITMAP
7C00
C600
8600
8200
8200
8200
8200
8380
8200
8200
8200
8200
ENDCHAR
STARTCHAR uni054D
ENCODING 1357
SWIDTH 602 0
DWIDTH 10 0
BBX 7 12 1 0
BITMAP
C2
C2
C2
C2
C2
C2
C2
C2
C2
C2
66
3C
ENDCHAR
STARTCHAR uni054E
ENCODING 1358
SWIDTH 602 0
DWIDTH 10 0
BBX 9 12 0 0
BITMAP
0300
0300
0300
C300
C300
C300
C300
4700
3F00
0300
0300
0380
ENDCHAR
STARTCHAR uni054F
ENCODING 1359
SWIDTH 602 0
DWIDTH 10 0
BBX 8 12 1 0
BITMAP
3C
66
C2
C0
60
3C
0E
03
83
C3
E6
3C
ENDCHAR
STARTCHAR uni0550
ENCODING 1360
SWIDTH 602 0
DWIDTH 10 0
BBX 7 12 1 0
BITMAP
3C
66
C2
C2
C2
C0
C0
C0
C0
C0
C0
C0
ENDCHAR
STARTCHAR uni0551
ENCODING 1361
SWIDTH 602 0
DWIDTH 10 0
BBX 9 12 0 0
BITMAP
1E00
3300
2180
2180
3300
FE00
0380
0180
6180
6180
3380
1E00
ENDCHAR
STARTCHAR uni0552
ENCODING 1362
SWIDTH 602 0
DWIDTH 10 0
BBX 8 12 1 0
BITMAP
C0
C0
C0
FF
C0
C0
C0
C0
C0
C0
C0
C0
ENDCHAR
STARTCHAR uni0553
ENCODING 1363
SWIDTH 602 0
DWIDTH 10 0
BBX 8 12 1 0
BITMAP
18
18
7C
DE
9B
9B
99
99
9B
DB
7E
18
ENDCHAR
STARTCHAR uni0554
ENCODING 1364
SWIDTH 602 0
DWIDTH 10 0
BBX 9 12 0 0
BITMAP
1F00
3180
3180
2080
2180
3180
2F00
2000
2000
FF80
2000
2000
ENDCHAR
STARTCHAR uni0555
ENCODING 1365
SWIDTH 602 0
DWIDTH 10 0
BBX 8 12 1 0
BITMAP
3C
66
C2
C3
C3
C3
C3
C3
C3
C2
66
3C
ENDCHAR
STARTCHAR uni0556
ENCODING 1366
SWIDTH 602 0
DWIDTH 10 0
BBX 8 12 1 0
BITMAP
78
D8
D8
7E
1B
1B
19
99
9B
9B
DB
7E
ENDCHAR
STARTCHAR uni0559
ENCODING 1369
SWIDTH 602 0
DWIDTH 10 0
BBX 2 4 4 8
BITMAP
C0
80
80
C0
ENDCHAR
STARTCHAR uni055A
ENCODING 1370
SWIDTH 602 0
DWIDTH 10 0
BBX 2 4 4 8
BITMAP
C0
C0
80
80
ENDCHAR
STARTCHAR uni055B
ENCODING 1371
SWIDTH 602 0
DWIDTH 10 0
BBX 4 3 3 10
BITMAP
30
40
C0
ENDCHAR
STARTCHAR uni055C
ENCODING 1372
SWIDTH 602 0
DWIDTH 10 0
BBX 6 5 2 10
BITMAP
04
0C
78
C0
80
ENDCHAR
STARTCHAR uni055D
ENCODING 1373
SWIDTH 602 0
DWIDTH 10 0
BBX 4 3 3 10
BITMAP
C0
60
30
ENDCHAR
STARTCHAR uni055E
ENCODING 1374
SWIDTH 602 0
DWIDTH 10 0
BBX 7 4 1 10
BITMAP
3C
62
52
CE
ENDCHAR
STARTCHAR uni055F
ENCODING 1375
SWIDTH 602 0
DWIDTH 10 0
BBX 7 3 1 10
BITMAP
C0
C0
FE
ENDCHAR
STARTCHAR uni0561
ENCODING 1377
SWIDTH 602 0
DWIDTH 10 0
BBX 8 9 1 0
BITMAP
91
91
91
91
91
91
9B
9B
ED
ENDCHAR
STARTCHAR uni0562
ENCODING 1378
SWIDTH 602 0
DWIDTH 10 0
BBX 6 12 2 -3
BITMAP
B8
CC
84
84
84
80
80
80
FC
80
80
80
ENDCHAR
STARTCHAR uni0563
ENCODING 1379
SWIDTH 602 0
DWIDTH 10 0
BBX 8 12 1 -3
BITMAP
7E
CE
86
86
86
86
86
CE
7F
06
06
06
ENDCHAR
STARTCHAR uni0564
ENCODING 1380
SWIDTH 602 0
DWIDTH 10 0
BBX 8 12 1 -3
BITMAP
DC
E6
C2
C2
C2
C2
C2
C2
C3
02
02
02
ENDCHAR
STARTCHAR uni0565
ENCODING 1381
SWIDTH 602 0
DWIDTH 10 0
BBX 8 12 1 0
BITMAP
C0
C0
C0
FF
C0
C0
C2
C2
C2
C6
66
7A
ENDCHAR
STARTCHAR uni0566
ENCODING 1382
SWIDTH 602 0
DWIDTH 10 0
BBX 8 12 1 -3
BITMAP
7A
46
C6
86
82
86
C6
4E
7A
02
02
03
ENDCHAR
STARTCHAR uni0567
ENCODING 1383
SWIDTH 602 0
DWIDTH 10 0
BBX 6 12 2 0
BITMAP
80
80
80
FC
80
80
80
80
80
80
80
FC
ENDCHAR
STARTCHAR uni0568
ENCODING 1384
SWIDTH 602 0
DWIDTH 10 0
BBX 7 12 1 -3
BITMAP
DC
E6
C2
C2
C2
C2
C2
C2
C2
C0
C0
FE
ENDCHAR
STARTCHAR uni0569
ENCODING 1385
SWIDTH 602 0
DWIDTH 10 0
BBX 8 12 1 -3
BITMAP
BC
C6
C2
83
9F
B3
B2
B2
9C
80
80
80
ENDCHAR
STARTCHAR uni056A
ENCODING 1386
SWIDTH 602 0
DWIDTH 10 0
BBX 8 12 1 0
BITMAP
06
06
06
7F
C6
C6
86
86
86
C6
CC
78
ENDCHAR
STARTCHAR uni056B
ENCODING 1387
SWIDTH 602 0
DWIDTH 10 0
BBX 7 15 1 -3
BITMAP
C0
C0
C0
DC
E6
C2
C2
C2
C2
C2
C2
C2
C0
C0
C0
ENDCHAR
STARTCHAR uni056C
ENCODING 1388
SWIDTH 602 0
DWIDTH 10 0
BBX 5 12 3 -3
BITMAP
C0
C0
C0
C0
C0
C0
C0
C0
C0
C0
C0
F8
ENDCHAR
STARTCHAR uni056D
ENCODING 1389
SWIDTH 602 0
DWIDTH 10 0
BBX 8 15 1 -3
BITMAP
80
80
80
F1
91
91
91
91
91
9B
9B
8D
80
80
80
ENDCHAR
STARTCHAR uni056E
ENCODING 1390
SWIDTH 602 0
DWIDTH 10 0
BBX 8 13 1 0
BITMAP
20
30
60
38
3F
66
C2
C3
C3
C2
C2
66
3C
ENDCHAR
STARTCHAR uni056F
ENCODING 1391
SWIDTH 602 0
DWIDTH 10 0
BBX 7 15 1 -3
BITMAP
C0
C0
C0
C2
C2
C2
C2
C2
C2
46
66
7A
02
02
02
ENDCHAR
STARTCHAR uni0570
ENCODING 1392
SWIDTH 602 0
DWIDTH 10 0
BBX 7 12 1 0
BITMAP
C0
C0
C0
DC
E6
C2
C2
C2
C2
C2
C2
C2
ENDCHAR
STARTCHAR uni0571
ENCODING 1393
SWIDTH 602 0
DWIDTH 10 0
BBX 7 12 1 0
BITMAP
30
60
3C
18
3C
66
42
C2
C2
C2
66
3A
ENDCHAR
STARTCHAR uni0572
ENCODING 1394
SWIDTH 602 0
DWIDTH 10 0
BBX 7 12 2 -3
BITMAP
B8
CC
84
84
84
84
84
84
84
04
04
06
ENDCHAR
STARTCHAR uni0573
ENCODING 1395
SWIDTH 602 0
DWIDTH 10 0
BBX 7 12 1 0
BITMAP
0E
18
30
F8
6C
42
42
42
C2
42
66
3A
ENDCHAR
STARTCHAR uni0574
ENCODING 1396
SWIDTH 602 0
DWIDTH 10 0
BBX 8 12 1 0
BITMAP
07
06
06
C6
C6
C6
C6
C6
C6
C6
CE
7E
ENDCHAR
STARTCHAR uni0575
ENCODING 1397
SWIDTH 602 0
DWIDTH 10 0
BBX 4 12 2 -3
BITMAP
10
10
10
10
10
10
10
10
10
10
30
E0
ENDCHAR
STARTCHAR uni0576
ENCODING 1398
SWIDTH 602 0
DWIDTH 10 0
BBX 8 12 0 0
BITMAP
E0
60
60
61
61
61
61
61
61
21
33
3D
ENDCHAR
STARTCHAR uni0577
ENCODING 1399
SWIDTH 602 0
DWIDTH 10 0
BBX 7 12 1 -3
BITMAP
3C
E6
02
02
06
04
08
10
20
40
C0
7E
ENDCHAR
STARTCHAR uni0578
ENCODING 1400
SWIDTH 602 0
DWIDTH 10 0
BBX 7 9 1 0
BITMAP
DC
E6
C2
C2
C2
C2
C2
C2
C2
ENDCHAR
STARTCHAR uni0579
ENCODING 1401
SWIDTH 602 0
DWIDTH 10 0
BBX 6 12 2 -3
BITMAP
20
60
40
78
18
30
20
40
C0
C0
C0
FC
ENDCHAR
STARTCHAR uni057A
ENCODING 1402
SWIDTH 602 0
DWIDTH 10 0
BBX 8 12 1 -3
BITMAP
93
93
93
93
93
93
93
9B
EF
03
03
03
ENDCHAR
STARTCHAR uni057B
ENCODING 1403
SWIDTH 602 0
DWIDTH 10 0
BBX 7 12 1 -3
BITMAP
3C
66
C2
C2
62
24
2C
38
20
40
C0
7E
ENDCHAR
STARTCHAR uni057C
ENCODING 1404
SWIDTH 602 0
DWIDTH 10 0
BBX 8 9 1 0
BITMAP
DC
E6
C2
C2
C2
C2
C6
CC
CF
ENDCHAR
STARTCHAR uni057D
ENCODING 1405
SWIDTH 602 0
DWIDTH 10 0
BBX 7 9 1 0
BITMAP
C2
C2
C2
C2
C2
C2
46
66
3A
ENDCHAR
STARTCHAR uni057E
ENCODING 1406
SWIDTH 602 0
DWIDTH 10 0
BBX 8 15 1 -3
BITMAP
02
02
02
C2
C2
C2
C2
C2
C2
C6
66
7A
02
02
03
ENDCHAR
STARTCHAR uni057F
ENCODING 1407
SWIDTH 602 0
DWIDTH 10 0
BBX 8 9 1 0
BITMAP
96
9B
9B
91
91
91
91
91
F1
ENDCHAR
STARTCHAR uni0580
ENCODING 1408
SWIDTH 602 0
DWIDTH 10 0
BBX 7 12 1 -3
BITMAP
DC
E6
C2
C2
C2
C2
C2
C2
C2
C0
C0
C0
ENDCHAR
STARTCHAR uni0581
ENCODING 1409
SWIDTH 602 0
DWIDTH 10 0
BBX 7 12 1 -3
BITMAP
3A
66
C2
C2
C2
C2
C2
66
3A
02
46
7C
ENDCHAR
STARTCHAR uni0582
ENCODING 1410
SWIDTH 602 0
DWIDTH 10 0
BBX 6 9 2 0
BITMAP
C0
C0
C0
C0
C0
C0
C0
C0
FC
ENDCHAR
STARTCHAR uni0583
ENCODING 1411
SWIDTH 602 0
DWIDTH 10 0
BBX 8 15 1 -3
BITMAP
10
10
10
96
9B
9B
91
91
91
91
91
F1
10
10
10
ENDCHAR
STARTCHAR uni0584
ENCODING 1412
SWIDTH 602 0
DWIDTH 10 0
BBX 8 12 1 -3
BITMAP
5C
66
42
43
43
43
42
66
5C
40
FF
40
ENDCHAR
STARTCHAR uni0585
ENCODING 1413
SWIDTH 602 0
DWIDTH 10 0
BBX 8 9 1 0
BITMAP
3C
66
C2
C3
C3
C3
C2
66
3C
ENDCHAR
STARTCHAR uni0586
ENCODING 1414
SWIDTH 602 0
DWIDTH 10 0
BBX 9 15 0 -3
BITMAP
3800
4800
C800
7F00
3F80
0980
0880
0880
0880
4980
EB00
3E00
0800
0800
0800
ENDCHAR
STARTCHAR uni0587
ENCODING 1415
SWIDTH 602 0
DWIDTH 10 0
BBX 8 12 1 0
BITMAP
80
80
80
86
86
86
86
86
86
86
CE
77
ENDCHAR
STARTCHAR uni0589
ENCODING 1417
SWIDTH 602 0
DWIDTH 10 0
BBX 2 7 4 0
BITMAP
C0
C0
00
00
00
C0
C0
ENDCHAR
STARTCHAR uni058A
ENCODING 1418
SWIDTH 602 0
DWIDTH 10 0
BBX 4 2 3 4
BITMAP
90
F0
ENDCHAR
STARTCHAR uni0E3F
ENCODING 3647
SWIDTH 602 0
DWIDTH 10 0
BBX 8 14 1 -2
BITMAP
10
10
FC
D6
D2
D6
FC
D6
D3
D3
D2
FE
10
10
ENDCHAR
STARTCHAR uni10D0
ENCODING 4304
SWIDTH 602 0
DWIDTH 10 0
BBX 7 9 1 0
BITMAP
30
10
1C
06
42
C2
C2
66
3C
ENDCHAR
STARTCHAR uni10D1
ENCODING 4305
SWIDTH 602 0
DWIDTH 10 0
BBX 7 12 1 0
BITMAP
60
30
18
18
3C
46
C2
C2
C2
C2
66
3C
ENDCHAR
STARTCHAR uni10D2
ENCODING 4306
SWIDTH 602 0
DWIDTH 10 0
BBX 8 11 1 -3
BITMAP
7C
44
44
04
3C
46
83
83
83
C6
3C
ENDCHAR
STARTCHAR uni10D3
ENCODING 4307
SWIDTH 602 0
DWIDTH 10 0
BBX 9 11 0 -3
BITMAP
7700
4980
4880
C880
C880
4880
4D80
6700
3000
3C00
0300
ENDCHAR
STARTCHAR uni10D4
ENCODING 4308
SWIDTH 602 0
DWIDTH 10 0
BBX 7 11 1 -3
BITMAP
3C
66
42
42
22
02
62
C2
C2
46
3C
ENDCHAR
STARTCHAR uni10D5
ENCODING 4309
SWIDTH 602 0
DWIDTH 10 0
BBX 7 11 1 -3
BITMAP
3C
46
42
42
0C
06
62
C2
C2
46
3C
ENDCHAR
STARTCHAR uni10D6
ENCODING 4310
SWIDTH 602 0
DWIDTH 10 0
BBX 8 12 1 0
BITMAP
78
4C
C4
48
3C
66
42
C3
C3
42
66
3C
ENDCHAR
STARTCHAR uni10D7
ENCODING 4311
SWIDTH 602 0
DWIDTH 10 0
BBX 9 8 0 0
BITMAP
3F00
4D80
CC80
CC80
CC80
CC80
4980
3B00
ENDCHAR
STARTCHAR uni10D8
ENCODING 4312
SWIDTH 602 0
DWIDTH 10 0
BBX 7 8 1 0
BITMAP
3C
66
C2
C2
C2
C2
46
2C
ENDCHAR
STARTCHAR uni10D9
ENCODING 4313
SWIDTH 602 0
DWIDTH 10 0
BBX 7 11 1 -3
BITMAP
1C
06
02
02
0C
06
C2
C2
C2
46
3C
ENDCHAR
STARTCHAR uni10DA
ENCODING 4314
SWIDTH 602 0
DWIDTH 10 0
BBX 7 11 1 -3
BITMAP
3C
46
C2
C2
C2
46
46
20
30
48
04
ENDCHAR
STARTCHAR uni10DB
ENCODING 4315
SWIDTH 602 0
DWIDTH 10 0
BBX 7 12 1 0
BITMAP
7C
46
C2
02
3A
66
C2
C2
C2
C2
66
3C
ENDCHAR
STARTCHAR uni10DC
ENCODING 4316
SWIDTH 602 0
DWIDTH 10 0
BBX 7 12 1 0
BITMAP
7C
C0
C0
C0
FC
E6
C2
C2
C2
C2
46
3C
ENDCHAR
STARTCHAR uni10DD
ENCODING 4317
SWIDTH 602 0
DWIDTH 10 0
BBX 9 8 0 0
BITMAP
3F00
4D80
4880
C880
C880
4080
4180
3300
ENDCHAR
STARTCHAR uni10DE
ENCODING 4318
SWIDTH 602 0
DWIDTH 10 0
BBX 7 12 1 0
BITMAP
60
3C
06
02
06
1C
06
42
C2
C2
46
3C
ENDCHAR
STARTCHAR uni10DF
ENCODING 4319
SWIDTH 602 0
DWIDTH 10 0
BBX 7 12 1 -3
BITMAP
02
FE
62
12
12
12
E2
02
02
C2
46
7C
ENDCHAR
STARTCHAR uni10E0
ENCODING 4320
SWIDTH 602 0
DWIDTH 10 0
BBX 9 12 0 0
BITMAP
0600
1C00
3000
2000
7F00
4D80
4C80
CC80
CC80
4080
4180
3300
ENDCHAR
STARTCHAR uni10E1
ENCODING 4321
SWIDTH 602 0
DWIDTH 10 0
BBX 7 12 1 0
BITMAP
C0
C0
C4
CC
C8
CC
C2
C2
C2
C2
66
3C
ENDCHAR
STARTCHAR uni10E2
ENCODING 4322
SWIDTH 602 0
DWIDTH 10 0
BBX 9 13 0 -3
BITMAP
0800
0800
1E00
2B00
4980
4880
C880
C080
C080
4080
4180
6300
1E00
ENDCHAR
STARTCHAR uni10E3
ENCODING 4323
SWIDTH 602 0
DWIDTH 10 0
BBX 9 11 0 -3
BITMAP
B700
4D00
0980
0980
0180
1180
2180
6180
6180
3100
1E00
ENDCHAR
STARTCHAR uni10E4
ENCODING 4324
SWIDTH 602 0
DWIDTH 10 0
BBX 9 11 0 -3
BITMAP
7F00
4D80
CC80
CC80
CC80
4900
7880
0080
2080
3180
1F00
ENDCHAR
STARTCHAR uni10E5
ENCODING 4325
SWIDTH 602 0
DWIDTH 10 0
BBX 7 15 1 -3
BITMAP
02
02
02
02
7A
46
46
42
22
02
42
C2
C2
C6
7C
ENDCHAR
STARTCHAR uni10E6
ENCODING 4326
SWIDTH 602 0
DWIDTH 10 0
BBX 9 11 0 -3
BITMAP
3F00
4D80
4880
C880
C880
4080
6100
2000
1800
2600
0300
ENDCHAR
STARTCHAR uni10E7
ENCODING 4327
SWIDTH 602 0
DWIDTH 10 0
BBX 7 11 1 -3
BITMAP
32
42
C2
C2
C2
46
7E
02
C2
46
3C
ENDCHAR
STARTCHAR uni10E8
ENCODING 4328
SWIDTH 602 0
DWIDTH 10 0
BBX 8 12 0 0
BITMAP
67
59
C9
01
1D
33
61
61
61
61
33
1E
ENDCHAR
STARTCHAR uni10E9
ENCODING 4329
SWIDTH 602 0
DWIDTH 10 0
BBX 7 12 1 0
BITMAP
78
C4
C4
C4
FC
C6
C2
C2
C2
C2
C6
CC
ENDCHAR
STARTCHAR uni10EA
ENCODING 4330
SWIDTH 602 0
DWIDTH 10 0
BBX 8 11 1 -3
BITMAP
48
C6
83
83
8C
82
81
81
C3
66
3C
ENDCHAR
STARTCHAR uni10EB
ENCODING 4331
SWIDTH 602 0
DWIDTH 10 0
BBX 7 12 1 0
BITMAP
02
02
02
02
3A
46
C2
C2
C2
C2
46
3C
ENDCHAR
STARTCHAR uni10EC
ENCODING 4332
SWIDTH 602 0
DWIDTH 10 0
BBX 8 12 1 0
BITMAP
77
D5
C9
C0
FC
E6
C2
C2
C2
C2
66
3C
ENDCHAR
STARTCHAR uni10ED
ENCODING 4333
SWIDTH 602 0
DWIDTH 10 0
BBX 7 15 1 -3
BITMAP
08
08
08
08
78
4E
4C
78
08
0E
82
C2
C2
66
3C
ENDCHAR
STARTCHAR uni10EE
ENCODING 4334
SWIDTH 602 0
DWIDTH 10 0
BBX 8 12 1 0
BITMAP
C0
C0
C0
C0
FC
E6
C2
C3
C3
42
66
3C
ENDCHAR
STARTCHAR uni10EF
ENCODING 4335
SWIDTH 602 0
DWIDTH 10 0
BBX 7 13 1 -3
BITMAP
10
90
70
1E
12
18
0C
06
C2
C2
C2
66
3C
ENDCHAR
STARTCHAR uni10F0
ENCODING 4336
SWIDTH 602 0
DWIDTH 10 0
BBX 7 12 1 0
BITMAP
20
3C
06
02
1C
02
02
1C
C2
C2
C6
7C
ENDCHAR
STARTCHAR uni10F1
ENCODING 4337
SWIDTH 602 0
DWIDTH 10 0
BBX 8 15 1 -3
BITMAP
08
0E
03
C2
CC
42
43
CC
C2
C3
CC
C2
C3
42
3E
ENDCHAR
STARTCHAR uni10F2
ENCODING 4338
SWIDTH 602 0
DWIDTH 10 0
BBX 7 10 1 -2
BITMAP
3C
66
C2
C2
C2
C2
66
3C
6C
46
ENDCHAR
STARTCHAR uni10F3
ENCODING 4339
SWIDTH 602 0
DWIDTH 10 0
BBX 7 11 1 -3
BITMAP
7E
42
42
04
18
06
02
C2
C2
46
3C
ENDCHAR
STARTCHAR uni10F4
ENCODING 4340
SWIDTH 602 0
DWIDTH 10 0
BBX 7 15 1 -3
BITMAP
70
C0
80
C2
7E
02
02
06
38
06
02
02
C2
46
3C
ENDCHAR
STARTCHAR uni10F5
ENCODING 4341
SWIDTH 602 0
DWIDTH 10 0
BBX 8 12 1 0
BITMAP
7C
C6
82
C2
7F
02
02
7F
C2
82
C6
7C
ENDCHAR
STARTCHAR uni10F6
ENCODING 4342
SWIDTH 602 0
DWIDTH 10 0
BBX 9 11 0 -3
BITMAP
7700
4C80
CC80
CC80
CC80
CC80
4C80
6F00
0800
0800
1800
ENDCHAR
STARTCHAR uni10F7
ENCODING 4343
SWIDTH 602 0
DWIDTH 10 0
BBX 8 11 1 -3
BITMAP
3C
64
44
0C
38
60
C3
83
83
C6
7C
ENDCHAR
STARTCHAR uni10F8
ENCODING 4344
SWIDTH 602 0
DWIDTH 10 0
BBX 8 11 1 -3
BITMAP
CC
C6
C2
C3
C3
C2
FC
C0
C3
46
3C
ENDCHAR
STARTCHAR uni10F9
ENCODING 4345
SWIDTH 602 0
DWIDTH 10 0
BBX 8 11 1 -3
BITMAP
3C
C6
83
83
C2
66
18
60
66
66
3C
ENDCHAR
STARTCHAR uni10FA
ENCODING 4346
SWIDTH 602 0
DWIDTH 10 0
BBX 7 9 1 -1
BITMAP
3C
46
C2
C2
C2
46
60
38
4C
ENDCHAR
STARTCHAR uni10FB
ENCODING 4347
SWIDTH 602 0
DWIDTH 10 0
BBX 5 8 2 0
BITMAP
C0
00
00
00
08
00
00
C0
ENDCHAR
STARTCHAR uni10FC
ENCODING 4348
SWIDTH 602 0
DWIDTH 10 0
BBX 3 7 3 5
BITMAP
E0
80
E0
A0
A0
A0
60
ENDCHAR
STARTCHAR uni1E80
ENCODING 7808
SWIDTH 602 0
DWIDTH 10 0
BBX 10 15 0 0
BITMAP
1800
0C00
0000
C0C0
C080
C080
4C80
4C80
5D80
5580
5780
7300
7300
3300
2300
ENDCHAR
STARTCHAR uni1E81
ENCODING 7809
SWIDTH 602 0
DWIDTH 10 0
BBX 10 13 0 0
BITMAP
3000
1000
0800
0000
C0C0
C080
4080
4D80
4D80
7500
7500
3300
3300
ENDCHAR
STARTCHAR uni1E82
ENCODING 7810
SWIDTH 602 0
DWIDTH 10 0
BBX 10 15 0 0
BITMAP
0600
0800
0000
C0C0
C080
C080
4C80
4C80
5D80
5580
5780
7300
7300
3300
2300
ENDCHAR
STARTCHAR uni1E83
ENCODING 7811
SWIDTH 602 0
DWIDTH 10 0
BBX 10 13 0 0
BITMAP
0300
0600
0C00
0000
C0C0
C080
4080
4D80
4D80
7500
7500
3300
3300
ENDCHAR
STARTCHAR uni1E84
ENCODING 7812
SWIDTH 602 0
DWIDTH 10 0
BBX 10 15 0 0
BITMAP
3200
0000
0000
C0C0
C080
C080
4C80
4C80
5D80
5580
5780
7300
7300
3300
2300
ENDCHAR
STARTCHAR uni1E85
ENCODING 7813
SWIDTH 602 0
DWIDTH 10 0
BBX 10 12 0 0
BITMAP
3200
0000
0000
C0C0
C080
4080
4D80
4D80
7500
7500
3300
3300
ENDCHAR
STARTCHAR uni1EBC
ENCODING 7868
SWIDTH 602 0
DWIDTH 10 0
BBX 7 15 2 0
BITMAP
64
D8
00
FC
80
80
80
80
FC
80
80
80
80
80
FE
ENDCHAR
STARTCHAR uni1EBD
ENCODING 7869
SWIDTH 602 0
DWIDTH 10 0
BBX 8 12 1 0
BITMAP
32
4C
00
3C
66
C2
C3
FF
80
C0
62
3E
ENDCHAR
STARTCHAR uni1EF2
ENCODING 7922
SWIDTH 602 0
DWIDTH 10 0
BBX 9 15 0 0
BITMAP
1800
0C00
0000
C180
6180
2300
3200
1600
1C00
0C00
0C00
0C00
0C00
0C00
0C00
ENDCHAR
STARTCHAR uni1EF3
ENCODING 7923
SWIDTH 602 0
DWIDTH 10 0
BBX 8 16 1 -3
BITMAP
60
30
18
00
C3
C2
42
66
24
2C
38
18
18
10
30
E0
ENDCHAR
STARTCHAR uni1EF8
ENCODING 7928
SWIDTH 602 0
DWIDTH 10 0
BBX 9 15 0 0
BITMAP
1A00
2600
0000
C180
6180
2300
3200
1600
1C00
0C00
0C00
0C00
0C00
0C00
0C00
ENDCHAR
STARTCHAR uni1EF9
ENCODING 7929
SWIDTH 602 0
DWIDTH 10 0
BBX 8 15 1 -3
BITMAP
32
6C
00
C3
C2
42
66
24
2C
38
18
18
10
30
E0
ENDCHAR
STARTCHAR uni2000
ENCODING 8192
SWIDTH 602 0
DWIDTH 10 0
BBX 1 1 0 0
BITMAP
00
ENDCHAR
STARTCHAR uni2001
ENCODING 8193
SWIDTH 602 0
DWIDTH 10 0
BBX 1 1 0 0
BITMAP
00
ENDCHAR
STARTCHAR uni2002
ENCODING 8194
SWIDTH 602 0
DWIDTH 10 0
BBX 1 1 0 0
BITMAP
00
ENDCHAR
STARTCHAR uni2003
ENCODING 8195
SWIDTH 602 0
DWIDTH 10 0
BBX 1 1 0 0
BITMAP
00
ENDCHAR
STARTCHAR uni2004
ENCODING 8196
SWIDTH 602 0
DWIDTH 10 0
BBX 1 1 0 0
BITMAP
00
ENDCHAR
STARTCHAR uni2005
ENCODING 8197
SWIDTH 602 0
DWIDTH 10 0
BBX 1 1 0 0
BITMAP
00
ENDCHAR
STARTCHAR uni2006
ENCODING 8198
SWIDTH 602 0
DWIDTH 10 0
BBX 1 1 0 0
BITMAP
00
ENDCHAR
STARTCHAR uni2007
ENCODING 8199
SWIDTH 602 0
DWIDTH 10 0
BBX 1 1 0 0
BITMAP
00
ENDCHAR
STARTCHAR uni2008
ENCODING 8200
SWIDTH 602 0
DWIDTH 10 0
BBX 1 1 0 0
BITMAP
00
ENDCHAR
STARTCHAR uni2009
ENCODING 8201
SWIDTH 602 0
DWIDTH 10 0
BBX 1 1 0 0
BITMAP
00
ENDCHAR
STARTCHAR uni200A
ENCODING 8202
SWIDTH 602 0
DWIDTH 10 0
BBX 1 1 0 0
BITMAP
00
ENDCHAR
STARTCHAR uni2010
ENCODING 8208
SWIDTH 602 0
DWIDTH 10 0
BBX 4 1 3 4
BITMAP
F0
ENDCHAR
STARTCHAR uni2011
ENCODING 8209
SWIDTH 602 0
DWIDTH 10 0
BBX 4 1 3 4
BITMAP
F0
ENDCHAR
STARTCHAR uni2012
ENCODING 8210
SWIDTH 602 0
DWIDTH 10 0
BBX 8 1 1 4
BITMAP
FF
ENDCHAR
STARTCHAR uni2013
ENCODING 8211
SWIDTH 602 0
DWIDTH 10 0
BBX 5 1 2 4
BITMAP
F8
ENDCHAR
STARTCHAR uni2014
ENCODING 8212
SWIDTH 602 0
DWIDTH 10 0
BBX 10 1 0 4
BITMAP
FFC0
ENDCHAR
STARTCHAR uni2015
ENCODING 8213
SWIDTH 602 0
DWIDTH 10 0
BBX 10 1 0 4
BITMAP
FFC0
ENDCHAR
STARTCHAR uni2016
ENCODING 8214
SWIDTH 602 0
DWIDTH 10 0
BBX 5 16 2 -4
BITMAP
C8
C8
C8
C8
C8
C8
C8
C8
C8
C8
C8
C8
C8
C8
C8
C8
ENDCHAR
STARTCHAR uni2017
ENCODING 8215
SWIDTH 602 0
DWIDTH 10 0
BBX 10 3 0 -4
BITMAP
FFC0
0000
FFC0
ENDCHAR
STARTCHAR uni2018
ENCODING 8216
SWIDTH 602 0
DWIDTH 10 0
BBX 2 4 4 8
BITMAP
40
C0
C0
C0
ENDCHAR
STARTCHAR uni2019
ENCODING 8217
SWIDTH 602 0
DWIDTH 10 0
BBX 2 4 4 8
BITMAP
C0
C0
C0
80
ENDCHAR
STARTCHAR uni201A
ENCODING 8218
SWIDTH 602 0
DWIDTH 10 0
BBX 3 5 3 -2
BITMAP
60
60
60
40
C0
ENDCHAR
STARTCHAR uni201B
ENCODING 8219
SWIDTH 602 0
DWIDTH 10 0
BBX 2 4 4 8
BITMAP
C0
C0
C0
40
ENDCHAR
STARTCHAR uni201C
ENCODING 8220
SWIDTH 602 0
DWIDTH 10 0
BBX 6 4 2 8
BITMAP
4C
CC
D8
D8
ENDCHAR
STARTCHAR uni201D
ENCODING 8221
SWIDTH 602 0
DWIDTH 10 0
BBX 6 4 2 8
BITMAP
CC
CC
C8
98
ENDCHAR
STARTCHAR uni201E
ENCODING 8222
SWIDTH 602 0
DWIDTH 10 0
BBX 6 5 2 -2
BITMAP
CC
CC
CC
C8
98
ENDCHAR
STARTCHAR uni201F
ENCODING 8223
SWIDTH 602 0
DWIDTH 10 0
BBX 6 4 2 8
BITMAP
D8
D8
CC
4C
ENDCHAR
STARTCHAR uni2020
ENCODING 8224
SWIDTH 602 0
DWIDTH 10 0
BBX 7 13 1 -1
BITMAP
18
18
18
FE
18
18
18
18
18
18
18
18
18
ENDCHAR
STARTCHAR uni2021
ENCODING 8225
SWIDTH 602 0
DWIDTH 10 0
BBX 7 13 1 -1
BITMAP
18
18
18
FE
18
18
18
18
FE
18
18
18
18
ENDCHAR
STARTCHAR uni2022
ENCODING 8226
SWIDTH 602 0
DWIDTH 10 0
BBX 5 5 2 4
BITMAP
70
78
F8
78
70
ENDCHAR
STARTCHAR uni2023
ENCODING 8227
SWIDTH 602 0
DWIDTH 10 0
BBX 6 6 2 3
BITMAP
80
E0
F8
FC
E0
80
ENDCHAR
STARTCHAR uni2024
ENCODING 8228
SWIDTH 602 0
DWIDTH 10 0
BBX 2 2 4 0
BITMAP
C0
C0
ENDCHAR
STARTCHAR uni2025
ENCODING 8229
SWIDTH 602 0
DWIDTH 10 0
BBX 6 2 2 0
BITMAP
CC
CC
ENDCHAR
STARTCHAR uni2026
ENCODING 8230
SWIDTH 602 0
DWIDTH 10 0
BBX 8 2 1 0
BITMAP
DB
DB
ENDCHAR
STARTCHAR uni2027
ENCODING 8231
SWIDTH 602 0
DWIDTH 10 0
BBX 2 3 4 5
BITMAP
C0
C0
C0
ENDCHAR
STARTCHAR uni202F
ENCODING 8239
SWIDTH 602 0
DWIDTH 10 0
BBX 1 1 0 0
BITMAP
00
ENDCHAR
STARTCHAR uni2030
ENCODING 8240
SWIDTH 602 0
DWIDTH 10 0
BBX 10 11 0 0
BITMAP
7000
9000
9080
7700
3800
C000
7380
5E80
8C40
5E80
7380
ENDCHAR
STARTCHAR uni2031
ENCODING 8241
SWIDTH 602 0
DWIDTH 10 0
BBX 10 11 0 0
BITMAP
7000
9000
9080
7700
3800
C000
6D80
96C0
9240
9680
6D80
ENDCHAR
STARTCHAR uni2032
ENCODING 8242
SWIDTH 602 0
DWIDTH 10 0
BBX 3 3 3 9
BITMAP
60
40
80
ENDCHAR
STARTCHAR uni2033
ENCODING 8243
SWIDTH 602 0
DWIDTH 10 0
BBX 5 3 2 9
BITMAP
68
50
90
ENDCHAR
STARTCHAR uni2034
ENCODING 8244
SWIDTH 602 0
DWIDTH 10 0
BBX 8 3 1 9
BITMAP
7B
54
A4
ENDCHAR
STARTCHAR uni2035
ENCODING 8245
SWIDTH 602 0
DWIDTH 10 0
BBX 3 3 3 9
BITMAP
C0
60
20
ENDCHAR
STARTCHAR uni2036
ENCODING 8246
SWIDTH 602 0
DWIDTH 10 0
BBX 5 3 2 9
BITMAP
D0
48
28
ENDCHAR
STARTCHAR uni2037
ENCODING 8247
SWIDTH 602 0
DWIDTH 10 0
BBX 8 3 1 9
BITMAP
F6
4A
29
ENDCHAR
STARTCHAR uni2039
ENCODING 8249
SWIDTH 602 0
DWIDTH 10 0
BBX 4 7 2 1
BITMAP
10
20
40
C0
60
30
10
ENDCHAR
STARTCHAR uni203A
ENCODING 8250
SWIDTH 602 0
DWIDTH 10 0
BBX 4 7 4 1
BITMAP
80
C0
60
30
60
C0
80
ENDCHAR
STARTCHAR uni203C
ENCODING 8252
SWIDTH 602 0
DWIDTH 10 0
BBX 6 12 2 0
BITMAP
CC
CC
CC
CC
CC
CC
4C
4C
00
CC
CC
CC
ENDCHAR
STARTCHAR uni203D
ENCODING 8253
SWIDTH 602 0
DWIDTH 10 0
BBX 6 12 2 0
BITMAP
78
FC
2C
2C
2C
38
30
20
20
00
70
30
ENDCHAR
STARTCHAR uni203E
ENCODING 8254
SWIDTH 602 0
DWIDTH 10 0
BBX 10 1 0 11
BITMAP
FFC0
ENDCHAR
STARTCHAR uni203F
ENCODING 8255
SWIDTH 602 0
DWIDTH 10 0
BBX 11 3 -1 -4
BITMAP
8020
70E0
1F80
ENDCHAR
STARTCHAR uni2044
ENCODING 8260
SWIDTH 602 0
DWIDTH 10 0
BBX 8 13 1 2
BITMAP
03
06
04
0C
0C
08
18
10
30
20
60
40
C0
ENDCHAR
STARTCHAR uni2045
ENCODING 8261
SWIDTH 602 0
DWIDTH 10 0
BBX 3 14 4 -2
BITMAP
E0
80
80
80
80
80
80
E0
80
80
80
80
80
E0
ENDCHAR
STARTCHAR uni2046
ENCODING 8262
SWIDTH 602 0
DWIDTH 10 0
BBX 3 14 3 -2
BITMAP
E0
20
20
20
20
20
20
E0
20
20
20
20
20
E0
ENDCHAR
STARTCHAR uni2047
ENCODING 8263
SWIDTH 602 0
DWIDTH 10 0
BBX 9 12 0 0
BITMAP
7780
9580
1880
1880
3180
3300
6300
6300
6300
0000
6300
6300
ENDCHAR
STARTCHAR uni2048
ENCODING 8264
SWIDTH 602 0
DWIDTH 10 0
BBX 8 12 0 0
BITMAP
73
93
1B
1B
33
33
61
61
60
00
63
63
ENDCHAR
STARTCHAR uni2049
ENCODING 8265
SWIDTH 602 0
DWIDTH 10 0
BBX 8 12 1 0
BITMAP
4F
4B
41
41
43
46
46
46
06
00
E6
C6
ENDCHAR
STARTCHAR uni204B
ENCODING 8267
SWIDTH 602 0
DWIDTH 10 0
BBX 7 14 2 -2
BITMAP
F8
BC
BE
BE
BE
BC
B8
A0
A0
A0
A0
A0
A0
A0
ENDCHAR
STARTCHAR uni205F
ENCODING 8287
SWIDTH 602 0
DWIDTH 10 0
BBX 1 1 0 0
BITMAP
00
ENDCHAR
STARTCHAR uni2070
ENCODING 8304
SWIDTH 602 0
DWIDTH 10 0
BBX 5 6 2 9
BITMAP
70
48
A8
88
48
70
ENDCHAR
STARTCHAR uni2074
ENCODING 8308
SWIDTH 602 0
DWIDTH 10 0
BBX 5 6 2 9
BITMAP
10
30
50
90
F8
10
ENDCHAR
STARTCHAR uni2075
ENCODING 8309
SWIDTH 602 0
DWIDTH 10 0
BBX 5 6 2 9
BITMAP
70
70
08
08
08
F0
ENDCHAR
STARTCHAR uni2076
ENCODING 8310
SWIDTH 602 0
DWIDTH 10 0
BBX 4 6 3 9
BITMAP
70
E0
90
90
90
F0
ENDCHAR
STARTCHAR uni2077
ENCODING 8311
SWIDTH 602 0
DWIDTH 10 0
BBX 5 6 2 9
BITMAP
F8
08
10
10
20
60
ENDCHAR
STARTCHAR uni2078
ENCODING 8312
SWIDTH 602 0
DWIDTH 10 0
BBX 5 6 2 9
BITMAP
78
48
30
48
C8
78
ENDCHAR
STARTCHAR uni2079
ENCODING 8313
SWIDTH 602 0
DWIDTH 10 0
BBX 5 6 2 9
BITMAP
70
88
88
78
08
70
ENDCHAR
STARTCHAR uni207A
ENCODING 8314
SWIDTH 602 0
DWIDTH 10 0
BBX 5 5 2 6
BITMAP
20
20
F8
20
20
ENDCHAR
STARTCHAR uni207B
ENCODING 8315
SWIDTH 602 0
DWIDTH 10 0
BBX 5 1 2 8
BITMAP
F8
ENDCHAR
STARTCHAR uni207C
ENCODING 8316
SWIDTH 602 0
DWIDTH 10 0
BBX 5 3 2 7
BITMAP
F8
00
F8
ENDCHAR
STARTCHAR uni207D
ENCODING 8317
SWIDTH 602 0
DWIDTH 10 0
BBX 2 8 4 4
BITMAP
40
80
80
80
80
80
80
40
ENDCHAR
STARTCHAR uni207E
ENCODING 8318
SWIDTH 602 0
DWIDTH 10 0
BBX 2 8 4 4
BITMAP
80
80
40
40
40
40
80
80
ENDCHAR
STARTCHAR uni208A
ENCODING 8330
SWIDTH 602 0
DWIDTH 10 0
BBX 5 5 2 1
BITMAP
20
20
F8
20
20
ENDCHAR
STARTCHAR uni208B
ENCODING 8331
SWIDTH 602 0
DWIDTH 10 0
BBX 5 1 2 2
BITMAP
F8
ENDCHAR
STARTCHAR uni208C
ENCODING 8332
SWIDTH 602 0
DWIDTH 10 0
BBX 5 3 2 2
BITMAP
F8
00
F8
ENDCHAR
STARTCHAR uni208D
ENCODING 8333
SWIDTH 602 0
DWIDTH 10 0
BBX 2 8 4 -1
BITMAP
40
80
80
80
80
80
80
40
ENDCHAR
STARTCHAR uni208E
ENCODING 8334
SWIDTH 602 0
DWIDTH 10 0
BBX 2 8 4 -1
BITMAP
80
80
40
40
40
40
80
80
ENDCHAR
STARTCHAR uni20A0
ENCODING 8352
SWIDTH 602 0
DWIDTH 10 0
BBX 10 12 0 0
BITMAP
3800
4800
8000
87C0
8400
8400
8400
4780
7C00
0400
0400
07C0
ENDCHAR
STARTCHAR uni20A1
ENCODING 8353
SWIDTH 602 0
DWIDTH 10 0
BBX 8 12 1 0
BITMAP
0F
3B
4B
D6
94
94
94
AC
E8
69
7B
5E
ENDCHAR
STARTCHAR uni20A2
ENCODING 8354
SWIDTH 602 0
DWIDTH 10 0
BBX 8 12 1 0
BITMAP
3E
63
C1
C0
8B
8D
88
88
88
C9
6B
3E
ENDCHAR
STARTCHAR uni20A3
ENCODING 8355
SWIDTH 602 0
DWIDTH 10 0
BBX 9 12 0 0
BITMAP
3F80
2000
2000
2000
2000
3F00
2000
2000
2000
F800
2000
2000
ENDCHAR
STARTCHAR uni20A4
ENCODING 8356
SWIDTH 602 0
DWIDTH 10 0
BBX 8 12 1 0
BITMAP
1F
31
30
30
30
FE
30
FE
30
30
30
FF
ENDCHAR
STARTCHAR uni20A5
ENCODING 8357
SWIDTH 602 0
DWIDTH 10 0
BBX 8 12 1 -1
BITMAP
04
08
FE
DB
99
99
99
99
99
B9
B9
20
ENDCHAR
STARTCHAR uni20A6
ENCODING 8358
SWIDTH 602 0
DWIDTH 10 0
BBX 10 12 0 0
BITMAP
7100
7100
7100
7900
7900
FFC0
6D00
FFC0
6500
6700
6300
6300
ENDCHAR
STARTCHAR uni20A7
ENCODING 8359
SWIDTH 602 0
DWIDTH 10 0
BBX 10 12 0 0
BITMAP
E800
B800
9800
9D80
9A40
9A00
EA00
8980
8840
8840
8A40
8780
ENDCHAR
STARTCHAR uni20A8
ENCODING 8360
SWIDTH 602 0
DWIDTH 10 0
BBX 10 12 0 0
BITMAP
F000
9800
8800
8B80
8E80
9C00
F600
9380
8880
8840
8C80
8780
ENDCHAR
STARTCHAR uni20A9
ENCODING 8361
SWIDTH 602 0
DWIDTH 10 0
BBX 10 12 0 0
BITMAP
C8C0
CC80
FFC0
CC80
FFC0
5C80
5D80
5780
5300
7300
3300
2300
ENDCHAR
STARTCHAR uni20AA
ENCODING 8362
SWIDTH 602 0
DWIDTH 10 0
BBX 9 12 0 0
BITMAP
F880
C480
C680
C280
D280
D280
D280
D280
D080
D080
D880
CF80
ENDCHAR
STARTCHAR uni20AB
ENCODING 8363
SWIDTH 602 0
DWIDTH 10 0
BBX 9 14 2 -2
BITMAP
0200
1F80
0200
3A00
4600
C600
8200
8200
8200
C600
4600
3A00
0000
7C00
ENDCHAR
STARTCHAR uni20AC
ENCODING 8364
SWIDTH 602 0
DWIDTH 10 0
BBX 8 12 0 0
BITMAP
0F
19
30
20
FE
20
20
FC
20
30
19
0F
ENDCHAR
STARTCHAR uni20AD
ENCODING 8365
SWIDTH 602 0
DWIDTH 10 0
BBX 9 12 0 0
BITMAP
6180
6300
6600
6C00
7800
FE00
7800
6C00
6400
6200
6300
6180
ENDCHAR
STARTCHAR uni20AE
ENCODING 8366
SWIDTH 602 0
DWIDTH 10 0
BBX 9 12 0 0
BITMAP
FF80
0C00
0D00
0E00
0C00
1F00
2E00
0C00
3C00
2C00
0C00
0C00
ENDCHAR
STARTCHAR uni20AF
ENCODING 8367
SWIDTH 602 0
DWIDTH 10 0
BBX 10 15 0 -3
BITMAP
3800
7C00
6400
2400
2400
2400
2480
2540
2540
E540
E980
5B80
0200
0200
0200
ENDCHAR
STARTCHAR uni20B0
ENCODING 8368
SWIDTH 602 0
DWIDTH 10 0
BBX 9 12 0 0
BITMAP
0700
0D00
0980
0900
0D00
7700
D700
4D80
0080
0080
0180
0700
ENDCHAR
STARTCHAR uni20B1
ENCODING 8369
SWIDTH 602 0
DWIDTH 10 0
BBX 9 12 1 0
BITMAP
7C00
4600
FF80
4300
FF80
4300
7E00
4000
4000
4000
4000
4000
ENDCHAR
STARTCHAR uni20B2
ENCODING 8370
SWIDTH 602 0
DWIDTH 10 0
BBX 9 14 0 -1
BITMAP
0400
1F00
3580
6480
4400
4400
C400
C580
4480
4480
6480
3580
1F00
0400
ENDCHAR
STARTCHAR uni20B3
ENCODING 8371
SWIDTH 602 0
DWIDTH 10 0
BBX 9 12 0 0
BITMAP
0C00
0C00
1C00
1600
7F80
3200
2300
7F80
6100
6100
4180
C080
ENDCHAR
STARTCHAR uni20B4
ENCODING 8372
SWIDTH 602 0
DWIDTH 10 0
BBX 10 12 0 0
BITMAP
3E00
2300
0180
0180
FFC0
1E00
FFC0
6000
6000
6000
3100
1F00
ENDCHAR
STARTCHAR uni20B5
ENCODING 8373
SWIDTH 602 0
DWIDTH 10 0
BBX 8 14 1 -2
BITMAP
08
1E
7B
49
C8
C8
C8
C8
C8
49
6B
1E
08
08
ENDCHAR
STARTCHAR uni20B7
ENCODING 8375
SWIDTH 602 0
DWIDTH 10 0
BBX 10 13 0 -1
BITMAP
0FC0
1880
3000
3000
3000
1E00
0700
0180
7980
6980
6B00
FE00
A800
ENDCHAR
STARTCHAR uni20B8
ENCODING 8376
SWIDTH 602 0
DWIDTH 10 0
BBX 9 12 0 0
BITMAP
FF80
0000
0000
FF80
0C00
0C00
0C00
0C00
0C00
0C00
0C00
0C00
ENDCHAR
STARTCHAR uni20B9
ENCODING 8377
SWIDTH 602 0
DWIDTH 10 0
BBX 8 12 1 0
BITMAP
FF
18
08
FF
0C
18
F0
18
08
0C
04
06
ENDCHAR
STARTCHAR uni2116
ENCODING 8470
SWIDTH 602 0
DWIDTH 10 0
BBX 9 12 0 0
BITMAP
DB80
DA80
DA80
FC80
FA80
FA80
BB80
BB80
B800
9800
9800
9800
ENDCHAR
STARTCHAR uni2122
ENCODING 8482
SWIDTH 602 0
DWIDTH 10 0
BBX 9 5 0 7
BITMAP
ED80
4D80
4A80
4A80
4880
ENDCHAR
STARTCHAR uni2126
ENCODING 8486
SWIDTH 602 0
DWIDTH 10 0
BBX 8 12 1 0
BITMAP
3C
66
C2
83
83
83
83
83
C3
42
64
EF
ENDCHAR
STARTCHAR uni2150
ENCODING 8528
SWIDTH 602 0
DWIDTH 10 0
BBX 9 15 0 -2
BITMAP
7000
3000
3000
3000
3000
7800
0780
7800
8F80
0100
0100
0100
0200
0200
0400
ENDCHAR
STARTCHAR uni2151
ENCODING 8529
SWIDTH 602 0
DWIDTH 10 0
BBX 9 15 0 -2
BITMAP
7000
3000
3000
3000
3000
3000
7880
0F00
F700
0900
0880
0980
0680
0100
0F00
ENDCHAR
STARTCHAR uni2153
ENCODING 8531
SWIDTH 602 0
DWIDTH 10 0
BBX 9 15 0 -2
BITMAP
7000
B000
3000
3000
3000
3000
7880
1F00
EF00
0980
0180
0600
0180
0180
0F00
ENDCHAR
STARTCHAR uni2154
ENCODING 8532
SWIDTH 602 0
DWIDTH 10 0
BBX 9 15 0 -2
BITMAP
7000
9800
0800
3000
4000
F800
0780
3800
CF00
0980
0180
0600
0180
0180
0F00
ENDCHAR
STARTCHAR uni2155
ENCODING 8533
SWIDTH 602 0
DWIDTH 10 0
BBX 9 15 0 -2
BITMAP
7000
B000
3000
3000
3000
3000
7880
1F00
EF00
0800
0800
0F00
0100
0180
0F00
ENDCHAR
STARTCHAR uni2156
ENCODING 8534
SWIDTH 602 0
DWIDTH 10 0
BBX 9 15 0 -2
BITMAP
7000
9800
0800
3000
4000
F800
0780
7800
8F00
0800
0800
0F00
0100
0180
0F00
ENDCHAR
STARTCHAR uni2157
ENCODING 8535
SWIDTH 602 0
DWIDTH 10 0
BBX 9 15 0 -2
BITMAP
7800
0800
3000
0800
0800
8800
7880
1F00
EF00
0800
0800
0F00
0100
0180
0F00
ENDCHAR
STARTCHAR uni2158
ENCODING 8536
SWIDTH 602 0
DWIDTH 10 0
BBX 9 15 0 -2
BITMAP
1000
3000
5000
9000
F800
1000
0380
3C00
CF00
0800
0800
0F00
0100
0180
0F00
ENDCHAR
STARTCHAR uni2159
ENCODING 8537
SWIDTH 602 0
DWIDTH 10 0
BBX 9 15 0 -2
BITMAP
7000
B000
3000
3000
3000
3000
7880
1F00
E700
0C80
0800
0B00
0C80
0880
0700
ENDCHAR
STARTCHAR uni215A
ENCODING 8538
SWIDTH 602 0
DWIDTH 10 0
BBX 9 15 0 -2
BITMAP
7000
4000
7000
9800
0800
0800
F080
1F00
E700
0C80
0800
0B00
0C80
0880
0700
ENDCHAR
STARTCHAR uni215B
ENCODING 8539
SWIDTH 602 0
DWIDTH 10 0
BBX 9 15 0 -2
BITMAP
7000
B000
3000
3000
3000
3000
7880
0F00
F700
0980
0900
0600
0980
0880
0F00
ENDCHAR
STARTCHAR uni215C
ENCODING 8540
SWIDTH 602 0
DWIDTH 10 0
BBX 9 15 0 -2
BITMAP
7800
0800
3000
0800
0800
8800
7880
1F00
E700
0980
0900
0600
0980
0880
0F00
ENDCHAR
STARTCHAR uni215D
ENCODING 8541
SWIDTH 602 0
DWIDTH 10 0
BBX 9 15 0 -2
BITMAP
7000
4000
7000
9800
0800
0800
F080
1F00
E700
0980
0900
0600
0980
0880
0F00
ENDCHAR
STARTCHAR uni215E
ENCODING 8542
SWIDTH 602 0
DWIDTH 10 0
BBX 9 15 0 -2
BITMAP
F800
0800
1000
1000
2000
2000
4380
1C00
E700
0980
0900
0600
0980
0880
0F00
ENDCHAR
STARTCHAR uni215F
ENCODING 8543
SWIDTH 602 0
DWIDTH 10 0
BBX 9 9 0 4
BITMAP
3000
F000
3000
3000
3000
3000
7880
0F00
F000
ENDCHAR
STARTCHAR uni2190
ENCODING 8592
SWIDTH 602 0
DWIDTH 10 0
BBX 9 5 1 3
BITMAP
6000
C000
FF80
C000
6000
ENDCHAR
STARTCHAR uni2191
ENCODING 8593
SWIDTH 602 0
DWIDTH 10 0
BBX 5 9 2 0
BITMAP
30
78
E8
20
20
20
20
20
20
ENDCHAR
STARTCHAR uni2192
ENCODING 8594
SWIDTH 602 0
DWIDTH 10 0
BBX 9 5 0 3
BITMAP
0200
0100
FF80
0100
0200
ENDCHAR
STARTCHAR uni2193
ENCODING 8595
SWIDTH 602 0
DWIDTH 10 0
BBX 5 9 2 0
BITMAP
20
20
20
20
20
20
A8
78
30
ENDCHAR
STARTCHAR uni2194
ENCODING 8596
SWIDTH 602 0
DWIDTH 10 0
BBX 8 5 1 2
BITMAP
64
C2
FF
C3
66
ENDCHAR
STARTCHAR uni2195
ENCODING 8597
SWIDTH 602 0
DWIDTH 10 0
BBX 5 9 2 0
BITMAP
30
78
E8
20
20
20
A8
78
30
ENDCHAR
STARTCHAR uni2196
ENCODING 8598
SWIDTH 602 0
DWIDTH 10 0
BBX 7 7 1 0
BITMAP
F0
E0
B0
98
0C
06
02
ENDCHAR
STARTCHAR uni2197
ENCODING 8599
SWIDTH 602 0
DWIDTH 10 0
BBX 7 7 1 0
BITMAP
0E
06
0E
1A
30
E0
40
ENDCHAR
STARTCHAR uni2198
ENCODING 8600
SWIDTH 602 0
DWIDTH 10 0
BBX 7 7 1 0
BITMAP
40
C0
20
1A
0E
06
0E
ENDCHAR
STARTCHAR uni2199
ENCODING 8601
SWIDTH 602 0
DWIDTH 10 0
BBX 7 7 1 0
BITMAP
02
06
0C
98
B0
E0
F0
ENDCHAR
STARTCHAR uni219A
ENCODING 8602
SWIDTH 602 0
DWIDTH 10 0
BBX 8 5 1 2
BITMAP
62
C6
FF
CC
78
ENDCHAR
STARTCHAR uni219B
ENCODING 8603
SWIDTH 602 0
DWIDTH 10 0
BBX 8 5 1 2
BITMAP
14
32
FF
43
C6
ENDCHAR
STARTCHAR uni219C
ENCODING 8604
SWIDTH 602 0
DWIDTH 10 0
BBX 8 4 1 3
BITMAP
E6
89
C9
B0
ENDCHAR
STARTCHAR uni219D
ENCODING 8605
SWIDTH 602 0
DWIDTH 10 0
BBX 8 3 1 3
BITMAP
EF
B3
1D
ENDCHAR
STARTCHAR uni219E
ENCODING 8606
SWIDTH 602 0
DWIDTH 10 0
BBX 8 5 1 2
BITMAP
68
D0
FF
D0
68
ENDCHAR
STARTCHAR uni219F
ENCODING 8607
SWIDTH 602 0
DWIDTH 10 0
BBX 5 9 2 0
BITMAP
30
78
E8
30
78
A8
20
20
20
ENDCHAR
STARTCHAR uni21A0
ENCODING 8608
SWIDTH 602 0
DWIDTH 10 0
BBX 8 5 1 2
BITMAP
14
1A
FF
0B
16
ENDCHAR
STARTCHAR uni21A1
ENCODING 8609
SWIDTH 602 0
DWIDTH 10 0
BBX 5 9 2 0
BITMAP
20
20
20
A8
78
30
A8
78
30
ENDCHAR
STARTCHAR uni21A2
ENCODING 8610
SWIDTH 602 0
DWIDTH 10 0
BBX 8 5 1 2
BITMAP
61
C2
FC
C2
61
ENDCHAR
STARTCHAR uni21A3
ENCODING 8611
SWIDTH 602 0
DWIDTH 10 0
BBX 8 5 1 2
BITMAP
84
C2
7F
43
86
ENDCHAR
STARTCHAR uni21A4
ENCODING 8612
SWIDTH 602 0
DWIDTH 10 0
BBX 8 5 1 2
BITMAP
61
C1
FF
C1
61
ENDCHAR
STARTCHAR uni21A5
ENCODING 8613
SWIDTH 602 0
DWIDTH 10 0
BBX 5 9 2 0
BITMAP
30
78
E8
20
20
20
20
20
F8
ENDCHAR
STARTCHAR uni21A6
ENCODING 8614
SWIDTH 602 0
DWIDTH 10 0
BBX 8 5 1 2
BITMAP
84
82
FF
82
84
ENDCHAR
STARTCHAR uni21A7
ENCODING 8615
SWIDTH 602 0
DWIDTH 10 0
BBX 5 9 2 0
BITMAP
F8
20
20
20
20
20
E8
78
30
ENDCHAR
STARTCHAR uni21A8
ENCODING 8616
SWIDTH 602 0
DWIDTH 10 0
BBX 5 9 2 0
BITMAP
30
78
E8
20
20
A8
78
30
F8
ENDCHAR
STARTCHAR uni21A9
ENCODING 8617
SWIDTH 602 0
DWIDTH 10 0
BBX 8 6 1 2
BITMAP
02
61
C1
FF
C0
60
ENDCHAR
STARTCHAR uni21AA
ENCODING 8618
SWIDTH 602 0
DWIDTH 10 0
BBX 8 6 1 2
BITMAP
C0
84
82
FF
03
06
ENDCHAR
STARTCHAR uni21AB
ENCODING 8619
SWIDTH 602 0
DWIDTH 10 0
BBX 8 6 1 2
BITMAP
0E
69
C9
FF
C8
68
ENDCHAR
STARTCHAR uni21AC
ENCODING 8620
SWIDTH 602 0
DWIDTH 10 0
BBX 8 6 1 2
BITMAP
E0
B4
92
FF
12
14
ENDCHAR
STARTCHAR uni21AD
ENCODING 8621
SWIDTH 602 0
DWIDTH 10 0
BBX 8 5 1 2
BITMAP
44
66
DB
EF
66
ENDCHAR
STARTCHAR uni21AE
ENCODING 8622
SWIDTH 602 0
DWIDTH 10 0
BBX 8 5 1 2
BITMAP
6C
DA
FF
D3
76
ENDCHAR
STARTCHAR uni21AF
ENCODING 8623
SWIDTH 602 0
DWIDTH 10 0
BBX 8 11 1 0
BITMAP
40
42
4E
DE
F6
C4
84
04
15
0E
0C
ENDCHAR
STARTCHAR uni21B0
ENCODING 8624
SWIDTH 602 0
DWIDTH 10 0
BBX 7 11 1 0
BITMAP
20
60
FE
42
22
02
02
02
02
02
02
ENDCHAR
STARTCHAR uni21B1
ENCODING 8625
SWIDTH 602 0
DWIDTH 10 0
BBX 7 11 1 0
BITMAP
08
04
FE
C6
CC
C0
C0
C0
C0
C0
C0
ENDCHAR
STARTCHAR uni21B2
ENCODING 8626
SWIDTH 602 0
DWIDTH 10 0
BBX 7 11 1 0
BITMAP
02
02
02
02
02
02
22
62
FE
40
20
ENDCHAR
STARTCHAR uni21B3
ENCODING 8627
SWIDTH 602 0
DWIDTH 10 0
BBX 7 11 1 0
BITMAP
C0
C0
C0
C0
C0
C0
C8
C4
FE
06
0C
ENDCHAR
STARTCHAR uni21B4
ENCODING 8628
SWIDTH 602 0
DWIDTH 10 0
BBX 7 9 1 0
BITMAP
F8
08
08
08
08
08
2A
1C
08
ENDCHAR
STARTCHAR uni21B5
ENCODING 8629
SWIDTH 602 0
DWIDTH 10 0
BBX 9 7 0 0
BITMAP
0080
0080
2080
6080
FF80
4000
2000
ENDCHAR
STARTCHAR uni21B6
ENCODING 8630
SWIDTH 602 0
DWIDTH 10 0
BBX 8 5 1 3
BITMAP
1E
33
A9
F0
60
ENDCHAR
STARTCHAR uni21B7
ENCODING 8631
SWIDTH 602 0
DWIDTH 10 0
BBX 8 5 1 3
BITMAP
78
C8
95
1E
0C
ENDCHAR
STARTCHAR uni21B8
ENCODING 8632
SWIDTH 602 0
DWIDTH 10 0
BBX 9 9 0 0
BITMAP
FF80
0000
7800
7000
5800
4C00
0600
0300
0100
ENDCHAR
STARTCHAR uni21B9
ENCODING 8633
SWIDTH 602 0
DWIDTH 10 0
BBX 8 10 1 0
BITMAP
90
A0
FF
E0
B0
09
05
FF
05
09
ENDCHAR
STARTCHAR uni21BA
ENCODING 8634
SWIDTH 602 0
DWIDTH 10 0
BBX 8 8 1 0
BITMAP
0F
8C
CA
8A
83
82
46
3C
ENDCHAR
STARTCHAR uni21BB
ENCODING 8635
SWIDTH 602 0
DWIDTH 10 0
BBX 8 8 1 0
BITMAP
E0
62
E3
A1
81
C3
66
3C
ENDCHAR
STARTCHAR uni21BC
ENCODING 8636
SWIDTH 602 0
DWIDTH 10 0
BBX 8 3 1 4
BITMAP
60
C0
FF
ENDCHAR
STARTCHAR uni21BD
ENCODING 8637
SWIDTH 602 0
DWIDTH 10 0
BBX 8 3 1 2
BITMAP
FF
C0
60
ENDCHAR
STARTCHAR uni21BE
ENCODING 8638
SWIDTH 602 0
DWIDTH 10 0
BBX 3 9 4 0
BITMAP
C0
E0
A0
80
80
80
80
80
80
ENDCHAR
STARTCHAR uni21BF
ENCODING 8639
SWIDTH 602 0
DWIDTH 10 0
BBX 3 9 2 0
BITMAP
20
60
E0
20
20
20
20
20
20
ENDCHAR
STARTCHAR uni21C0
ENCODING 8640
SWIDTH 602 0
DWIDTH 10 0
BBX 8 3 1 4
BITMAP
04
02
FF
ENDCHAR
STARTCHAR uni21C1
ENCODING 8641
SWIDTH 602 0
DWIDTH 10 0
BBX 8 3 1 2
BITMAP
FF
03
06
ENDCHAR
STARTCHAR uni21C2
ENCODING 8642
SWIDTH 602 0
DWIDTH 10 0
BBX 3 9 4 0
BITMAP
80
80
80
80
80
80
A0
E0
C0
ENDCHAR
STARTCHAR uni21C3
ENCODING 8643
SWIDTH 602 0
DWIDTH 10 0
BBX 3 9 3 0
BITMAP
20
20
20
20
20
20
A0
E0
60
ENDCHAR
STARTCHAR uni21C4
ENCODING 8644
SWIDTH 602 0
DWIDTH 10 0
BBX 8 9 1 0
BITMAP
04
02
FF
03
66
C0
FF
C0
60
ENDCHAR
STARTCHAR uni21C5
ENCODING 8645
SWIDTH 602 0
DWIDTH 10 0
BBX 9 9 0 0
BITMAP
3200
7A00
FE00
3200
3200
3200
3A80
3700
3300
ENDCHAR
STARTCHAR uni21C6
ENCODING 8646
SWIDTH 602 0
DWIDTH 10 0
BBX 8 9 1 0
BITMAP
60
C0
FF
C0
64
02
FF
03
06
ENDCHAR
STARTCHAR uni21C7
ENCODING 8647
SWIDTH 602 0
DWIDTH 10 0
BBX 8 9 1 0
BITMAP
60
C0
FF
C0
60
C0
FF
C0
60
ENDCHAR
STARTCHAR uni21C8
ENCODING 8648
SWIDTH 602 0
DWIDTH 10 0
BBX 9 9 0 0
BITMAP
3200
7F00
FA80
3200
3200
3200
3200
3200
3200
ENDCHAR
STARTCHAR uni21C9
ENCODING 8649
SWIDTH 602 0
DWIDTH 10 0
BBX 8 9 1 0
BITMAP
04
02
FF
03
06
02
FF
03
06
ENDCHAR
STARTCHAR uni21CA
ENCODING 8650
SWIDTH 602 0
DWIDTH 10 0
BBX 9 9 0 0
BITMAP
3200
3200
3200
3200
3200
3200
FA80
7F00
3300
ENDCHAR
STARTCHAR uni21CB
ENCODING 8651
SWIDTH 602 0
DWIDTH 10 0
BBX 8 8 1 1
BITMAP
60
C0
FF
00
00
FF
03
06
ENDCHAR
STARTCHAR uni21CC
ENCODING 8652
SWIDTH 602 0
DWIDTH 10 0
BBX 8 8 1 1
BITMAP
04
02
FF
00
00
FF
C0
60
ENDCHAR
STARTCHAR uni21CD
ENCODING 8653
SWIDTH 602 0
DWIDTH 10 0
BBX 8 6 1 1
BITMAP
66
FF
84
FF
68
50
ENDCHAR
STARTCHAR uni21CE
ENCODING 8654
SWIDTH 602 0
DWIDTH 10 0
BBX 8 7 1 1
BITMAP
08
6E
FE
91
FF
76
44
ENDCHAR
STARTCHAR uni21CF
ENCODING 8655
SWIDTH 602 0
DWIDTH 10 0
BBX 8 6 1 1
BITMAP
16
FE
21
FF
46
44
ENDCHAR
STARTCHAR uni21D0
ENCODING 8656
SWIDTH 602 0
DWIDTH 10 0
BBX 8 6 1 1
BITMAP
60
FF
80
FF
60
40
ENDCHAR
STARTCHAR uni21D1
ENCODING 8657
SWIDTH 602 0
DWIDTH 10 0
BBX 5 9 2 0
BITMAP
30
78
D8
50
50
50
50
50
50
ENDCHAR
STARTCHAR uni21D2
ENCODING 8658
SWIDTH 602 0
DWIDTH 10 0
BBX 8 6 1 1
BITMAP
06
FE
01
FF
06
04
ENDCHAR
STARTCHAR uni21D3
ENCODING 8659
SWIDTH 602 0
DWIDTH 10 0
BBX 5 9 2 0
BITMAP
50
50
50
50
50
50
D8
58
30
ENDCHAR
STARTCHAR uni21D4
ENCODING 8660
SWIDTH 602 0
DWIDTH 10 0
BBX 8 6 1 1
BITMAP
66
FE
81
FF
66
44
ENDCHAR
STARTCHAR uni21D5
ENCODING 8661
SWIDTH 602 0
DWIDTH 10 0
BBX 5 9 2 0
BITMAP
30
78
D8
50
50
50
D8
58
30
ENDCHAR
STARTCHAR uni21D6
ENCODING 8662
SWIDTH 602 0
DWIDTH 10 0
BBX 7 7 1 0
BITMAP
F0
A0
D0
A8
16
0A
04
ENDCHAR
STARTCHAR uni21D7
ENCODING 8663
SWIDTH 602 0
DWIDTH 10 0
BBX 7 7 1 0
BITMAP
0E
0A
12
26
48
90
20
ENDCHAR
STARTCHAR uni21D8
ENCODING 8664
SWIDTH 602 0
DWIDTH 10 0
BBX 7 7 1 0
BITMAP
20
90
48
26
12
0A
0E
ENDCHAR
STARTCHAR uni21D9
ENCODING 8665
SWIDTH 602 0
DWIDTH 10 0
BBX 7 7 1 0
BITMAP
04
0A
12
A4
C8
90
F0
ENDCHAR
STARTCHAR uni21DA
ENCODING 8666
SWIDTH 602 0
DWIDTH 10 0
BBX 8 6 1 1
BITMAP
40
7F
C0
FF
FF
40
ENDCHAR
STARTCHAR uni21DB
ENCODING 8667
SWIDTH 602 0
DWIDTH 10 0
BBX 8 6 1 1
BITMAP
04
FE
03
FF
FF
04
ENDCHAR
STARTCHAR uni21DC
ENCODING 8668
SWIDTH 602 0
DWIDTH 10 0
BBX 8 5 1 2
BITMAP
60
D2
FF
E5
40
ENDCHAR
STARTCHAR uni21DD
ENCODING 8669
SWIDTH 602 0
DWIDTH 10 0
BBX 8 5 1 2
BITMAP
04
52
FF
AB
06
ENDCHAR
STARTCHAR uni21E0
ENCODING 8672
SWIDTH 602 0
DWIDTH 10 0
BBX 8 5 1 2
BITMAP
60
C0
ED
C0
60
ENDCHAR
STARTCHAR uni21E1
ENCODING 8673
SWIDTH 602 0
DWIDTH 10 0
BBX 5 9 2 0
BITMAP
30
78
E8
20
00
20
00
00
20
ENDCHAR
STARTCHAR uni21E2
ENCODING 8674
SWIDTH 602 0
DWIDTH 10 0
BBX 8 5 1 2
BITMAP
04
02
AF
03
06
ENDCHAR
STARTCHAR uni21E3
ENCODING 8675
SWIDTH 602 0
DWIDTH 10 0
BBX 5 9 2 0
BITMAP
20
00
00
20
00
20
E8
78
30
ENDCHAR
STARTCHAR uni21E4
ENCODING 8676
SWIDTH 602 0
DWIDTH 10 0
BBX 8 5 1 2
BITMAP
90
A0
FF
E0
90
ENDCHAR
STARTCHAR uni21E5
ENCODING 8677
SWIDTH 602 0
DWIDTH 10 0
BBX 8 5 1 2
BITMAP
09
05
FF
05
09
ENDCHAR
STARTCHAR uni21E6
ENCODING 8678
SWIDTH 602 0
DWIDTH 10 0
BBX 9 7 0 1
BITMAP
1000
2000
7F80
8080
7F80
2000
2000
ENDCHAR
STARTCHAR uni21E7
ENCODING 8679
SWIDTH 602 0
DWIDTH 10 0
BBX 6 9 2 0
BITMAP
30
48
C8
54
50
50
50
50
70
ENDCHAR
STARTCHAR uni21E8
ENCODING 8680
SWIDTH 602 0
DWIDTH 10 0
BBX 8 7 1 1
BITMAP
04
02
FD
81
FD
02
04
ENDCHAR
STARTCHAR uni21E9
ENCODING 8681
SWIDTH 602 0
DWIDTH 10 0
BBX 6 10 2 -1
BITMAP
70
50
50
50
50
50
CC
48
30
20
ENDCHAR
STARTCHAR uni21EB
ENCODING 8683
SWIDTH 602 0
DWIDTH 10 0
BBX 6 9 2 0
BITMAP
30
48
C8
54
50
50
CC
84
FC
ENDCHAR
STARTCHAR uni21EC
ENCODING 8684
SWIDTH 602 0
DWIDTH 10 0
BBX 6 9 2 0
BITMAP
30
70
C8
54
50
50
CC
84
FC
ENDCHAR
STARTCHAR uni21ED
ENCODING 8685
SWIDTH 602 0
DWIDTH 10 0
BBX 6 9 2 0
BITMAP
30
68
E8
74
70
70
EC
A4
FC
ENDCHAR
STARTCHAR uni21EE
ENCODING 8686
SWIDTH 602 0
DWIDTH 10 0
BBX 6 9 2 0
BITMAP
30
68
D8
4C
C8
54
50
50
70
ENDCHAR
STARTCHAR uni21EF
ENCODING 8687
SWIDTH 602 0
DWIDTH 10 0
BBX 6 9 2 0
BITMAP
30
68
D8
4C
C8
54
CC
84
FC
ENDCHAR
STARTCHAR uni21F0
ENCODING 8688
SWIDTH 602 0
DWIDTH 10 0
BBX 8 6 1 1
BITMAP
C4
C2
FD
81
FF
C4
ENDCHAR
STARTCHAR uni21F1
ENCODING 8689
SWIDTH 602 0
DWIDTH 10 0
BBX 8 9 1 0
BITMAP
FF
80
F8
F0
D8
CC
86
83
81
ENDCHAR
STARTCHAR uni21F2
ENCODING 8690
SWIDTH 602 0
DWIDTH 10 0
BBX 8 9 1 0
BITMAP
81
C1
61
35
1D
0D
1D
01
FF
ENDCHAR
STARTCHAR uni21F3
ENCODING 8691
SWIDTH 602 0
DWIDTH 10 0
BBX 6 9 2 -1
BITMAP
30
48
C8
54
50
CC
48
30
20
ENDCHAR
STARTCHAR uni21F4
ENCODING 8692
SWIDTH 602 0
DWIDTH 10 0
BBX 8 5 1 1
BITMAP
76
FF
93
76
04
ENDCHAR
STARTCHAR uni21F5
ENCODING 8693
SWIDTH 602 0
DWIDTH 10 0
BBX 9 9 0 0
BITMAP
3200
3700
3A80
3200
3200
3200
FE00
7A00
3200
ENDCHAR
STARTCHAR uni21F6
ENCODING 8694
SWIDTH 602 0
DWIDTH 10 0
BBX 8 13 1 -2
BITMAP
04
02
FF
03
06
02
FF
03
06
03
FF
02
04
ENDCHAR
STARTCHAR uni21F7
ENCODING 8695
SWIDTH 602 0
DWIDTH 10 0
BBX 8 5 1 2
BITMAP
68
C8
FF
C8
68
ENDCHAR
STARTCHAR uni21F8
ENCODING 8696
SWIDTH 602 0
DWIDTH 10 0
BBX 8 5 1 2
BITMAP
34
32
FF
32
34
ENDCHAR
STARTCHAR uni21F9
ENCODING 8697
SWIDTH 602 0
DWIDTH 10 0
BBX 8 5 1 2
BITMAP
74
D2
FF
D2
74
ENDCHAR
STARTCHAR uni21FA
ENCODING 8698
SWIDTH 602 0
DWIDTH 10 0
BBX 8 5 1 2
BITMAP
76
D6
FF
D6
76
ENDCHAR
STARTCHAR uni21FB
ENCODING 8699
SWIDTH 602 0
DWIDTH 10 0
BBX 8 5 1 2
BITMAP
54
52
FF
52
54
ENDCHAR
STARTCHAR uni21FC
ENCODING 8700
SWIDTH 602 0
DWIDTH 10 0
BBX 8 5 1 2
BITMAP
7C
DA
FF
DA
7C
ENDCHAR
STARTCHAR uni21FD
ENCODING 8701
SWIDTH 602 0
DWIDTH 10 0
BBX 9 5 0 2
BITMAP
2000
6000
BF80
6000
2000
ENDCHAR
STARTCHAR uni21FE
ENCODING 8702
SWIDTH 602 0
DWIDTH 10 0
BBX 8 5 1 2
BITMAP
04
06
FD
05
02
ENDCHAR
STARTCHAR uni21FF
ENCODING 8703
SWIDTH 602 0
DWIDTH 10 0
BBX 9 5 0 2
BITMAP
2200
6300
BE80
6280
2100
ENDCHAR
STARTCHAR uni2200
ENCODING 8704
SWIDTH 602 0
DWIDTH 10 0
BBX 9 12 0 0
BITMAP
C080
4180
6180
7F00
2300
2300
3200
1200
1600
1E00
1C00
0C00
ENDCHAR
STARTCHAR uni2201
ENCODING 8705
SWIDTH 602 0
DWIDTH 10 0
BBX 8 12 1 0
BITMAP
3C
66
C2
C1
C0
C0
C0
C0
C1
C2
66
3C
ENDCHAR
STARTCHAR uni2202
ENCODING 8706
SWIDTH 602 0
DWIDTH 10 0
BBX 7 11 1 0
BITMAP
1C
36
02
02
3A
66
46
C6
44
4C
38
ENDCHAR
STARTCHAR uni2203
ENCODING 8707
SWIDTH 602 0
DWIDTH 10 0
BBX 7 12 1 0
BITMAP
FE
02
02
02
02
02
FE
02
02
02
02
FE
ENDCHAR
STARTCHAR uni2204
ENCODING 8708
SWIDTH 602 0
DWIDTH 10 0
BBX 7 13 1 -1
BITMAP
FE
0A
0A
1A
12
12
FE
32
22
22
22
FE
40
ENDCHAR
STARTCHAR uni2205
ENCODING 8709
SWIDTH 602 0
DWIDTH 10 0
BBX 8 8 1 1
BITMAP
3D
46
87
89
91
A1
C2
BC
ENDCHAR
STARTCHAR uni2206
ENCODING 8710
SWIDTH 602 0
DWIDTH 10 0
BBX 10 11 0 0
BITMAP
0C00
1C00
1E00
1600
3200
2300
2100
6100
4180
4080
FFC0
ENDCHAR
STARTCHAR uni2207
ENCODING 8711
SWIDTH 602 0
DWIDTH 10 0
BBX 10 11 0 0
BITMAP
FFC0
4080
4180
6100
2100
2300
3200
1600
1600
1C00
0C00
ENDCHAR
STARTCHAR uni2208
ENCODING 8712
SWIDTH 602 0
DWIDTH 10 0
BBX 8 12 1 0
BITMAP
3F
60
40
C0
C0
80
FF
80
C0
40
60
3F
ENDCHAR
STARTCHAR uni2209
ENCODING 8713
SWIDTH 602 0
DWIDTH 10 0
BBX 8 14 1 -1
BITMAP
06
3F
64
44
CC
C8
88
FF
98
D0
50
70
3F
60
ENDCHAR
STARTCHAR uni220A
ENCODING 8714
SWIDTH 602 0
DWIDTH 10 0
BBX 8 7 1 2
BITMAP
3F
60
C0
FF
C0
40
3F
ENDCHAR
STARTCHAR uni220B
ENCODING 8715
SWIDTH 602 0
DWIDTH 10 0
BBX 8 12 1 0
BITMAP
F8
04
06
02
03
03
FF
03
02
02
04
F8
ENDCHAR
STARTCHAR uni220C
ENCODING 8716
SWIDTH 602 0
DWIDTH 10 0
BBX 8 14 1 -1
BITMAP
04
FC
0C
0E
0A
1B
13
FF
32
22
22
64
F8
40
ENDCHAR
STARTCHAR uni220D
ENCODING 8717
SWIDTH 602 0
DWIDTH 10 0
BBX 8 7 1 2
BITMAP
FC
06
02
FF
02
06
FC
ENDCHAR
STARTCHAR uni220E
ENCODING 8718
SWIDTH 602 0
DWIDTH 10 0
BBX 6 10 2 0
BITMAP
FC
FC
FC
FC
FC
FC
FC
FC
FC
FC
ENDCHAR
STARTCHAR uni220F
ENCODING 8719
SWIDTH 602 0
DWIDTH 10 0
BBX 7 15 1 -3
BITMAP
FE
82
82
82
82
82
82
82
82
82
82
82
82
82
82
ENDCHAR
STARTCHAR uni2210
ENCODING 8720
SWIDTH 602 0
DWIDTH 10 0
BBX 7 15 1 -3
BITMAP
82
82
82
82
82
82
82
82
82
82
82
82
82
82
FE
ENDCHAR
STARTCHAR uni2211
ENCODING 8721
SWIDTH 602 0
DWIDTH 10 0
BBX 7 15 1 -3
BITMAP
FE
40
40
20
10
10
08
0C
08
10
30
20
40
40
FE
ENDCHAR
STARTCHAR uni2212
ENCODING 8722
SWIDTH 602 0
DWIDTH 10 0
BBX 8 1 1 5
BITMAP
FF
ENDCHAR
STARTCHAR uni2213
ENCODING 8723
SWIDTH 602 0
DWIDTH 10 0
BBX 8 9 1 0
BITMAP
FF
00
10
10
10
FF
10
10
10
ENDCHAR
STARTCHAR uni2215
ENCODING 8725
SWIDTH 602 0
DWIDTH 10 0
BBX 7 13 1 -1
BITMAP
02
06
04
0C
08
18
10
30
20
60
40
40
C0
ENDCHAR
STARTCHAR uni2217
ENCODING 8727
SWIDTH 602 0
DWIDTH 10 0
BBX 7 7 1 2
BITMAP
10
92
76
18
74
92
10
ENDCHAR
STARTCHAR uni2218
ENCODING 8728
SWIDTH 602 0
DWIDTH 10 0
BBX 5 5 2 3
BITMAP
70
48
88
C8
78
ENDCHAR
STARTCHAR uni2219
ENCODING 8729
SWIDTH 602 0
DWIDTH 10 0
BBX 2 2 4 4
BITMAP
C0
C0
ENDCHAR
STARTCHAR uni221A
ENCODING 8730
SWIDTH 602 0
DWIDTH 10 0
BBX 9 14 0 0
BITMAP
0080
0080
0100
0100
0100
0300
A200
6200
2600
1400
1400
1400
1800
0800
ENDCHAR
STARTCHAR uni221B
ENCODING 8731
SWIDTH 602 0
DWIDTH 10 0
BBX 9 15 0 0
BITMAP
3800
0C80
0480
1900
0D00
0500
7F00
0200
6200
A200
3400
1400
1400
1800
0800
ENDCHAR
STARTCHAR uni221C
ENCODING 8732
SWIDTH 602 0
DWIDTH 10 0
BBX 9 15 0 0
BITMAP
1800
1880
2880
4900
7D00
0900
0300
2200
E200
2600
1400
1400
1400
1800
0800
ENDCHAR
STARTCHAR uni221D
ENCODING 8733
SWIDTH 602 0
DWIDTH 10 0
BBX 7 6 1 2
BITMAP
72
5C
8C
8C
4C
72
ENDCHAR
STARTCHAR uni221E
ENCODING 8734
SWIDTH 602 0
DWIDTH 10 0
BBX 9 6 0 2
BITMAP
7300
5C80
8C80
8C80
5C80
7380
ENDCHAR
STARTCHAR uni221F
ENCODING 8735
SWIDTH 602 0
DWIDTH 10 0
BBX 8 7 1 3
BITMAP
80
80
80
80
80
80
FF
ENDCHAR
STARTCHAR uni2220
ENCODING 8736
SWIDTH 602 0
DWIDTH 10 0
BBX 8 7 1 3
BITMAP
03
04
08
10
30
60
FF
ENDCHAR
STARTCHAR uni2223
ENCODING 8739
SWIDTH 602 0
DWIDTH 10 0
BBX 1 16 4 -4
BITMAP
80
80
80
80
80
80
80
80
80
80
80
80
80
80
80
80
ENDCHAR
STARTCHAR uni2227
ENCODING 8743
SWIDTH 602 0
DWIDTH 10 0
BBX 7 10 1 0
BITMAP
18
18
38
3C
2C
24
64
46
46
C2
ENDCHAR
STARTCHAR uni2228
ENCODING 8744
SWIDTH 602 0
DWIDTH 10 0
BBX 7 10 1 0
BITMAP
C2
42
46
66
64
24
2C
38
38
18
ENDCHAR
STARTCHAR uni2229
ENCODING 8745
SWIDTH 602 0
DWIDTH 10 0
BBX 7 9 1 0
BITMAP
3C
66
C2
C2
C2
C2
C2
C2
C2
ENDCHAR
STARTCHAR uni222A
ENCODING 8746
SWIDTH 602 0
DWIDTH 10 0
BBX 7 10 1 0
BITMAP
C2
C2
C2
C2
C2
C2
C2
C2
66
3C
ENDCHAR
STARTCHAR uni222B
ENCODING 8747
SWIDTH 602 0
DWIDTH 10 0
BBX 8 15 1 -3
BITMAP
06
0B
08
18
18
18
18
18
18
10
10
10
10
D0
E0
ENDCHAR
STARTCHAR uni222C
ENCODING 8748
SWIDTH 602 0
DWIDTH 10 0
BBX 9 17 0 -3
BITMAP
1F80
1680
3200
3200
3200
3200
3200
3200
3200
3200
3200
3200
3200
3200
3200
3200
EE00
ENDCHAR
STARTCHAR uni222D
ENCODING 8749
SWIDTH 602 0
DWIDTH 10 0
BBX 9 16 0 -3
BITMAP
3780
2D80
2D00
2D00
2D00
2D00
2D00
2D00
2D00
2D00
2D00
2D00
2D00
2D00
2D00
FF00
ENDCHAR
STARTCHAR uni2234
ENCODING 8756
SWIDTH 602 0
DWIDTH 10 0
BBX 7 8 1 1
BITMAP
18
18
00
00
00
00
C6
C6
ENDCHAR
STARTCHAR uni2235
ENCODING 8757
SWIDTH 602 0
DWIDTH 10 0
BBX 7 8 1 1
BITMAP
C6
C6
00
00
00
00
18
18
ENDCHAR
STARTCHAR uni2236
ENCODING 8758
SWIDTH 602 0
DWIDTH 10 0
BBX 2 8 4 1
BITMAP
C0
C0
00
00
00
00
C0
C0
ENDCHAR
STARTCHAR uni2237
ENCODING 8759
SWIDTH 602 0
DWIDTH 10 0
BBX 7 8 1 1
BITMAP
C6
C6
00
00
00
00
C6
C6
ENDCHAR
STARTCHAR uni2238
ENCODING 8760
SWIDTH 602 0
DWIDTH 10 0
BBX 8 4 1 5
BITMAP
18
18
00
FF
ENDCHAR
STARTCHAR uni2239
ENCODING 8761
SWIDTH 602 0
DWIDTH 10 0
BBX 8 8 1 1
BITMAP
03
03
00
F8
00
00
03
03
ENDCHAR
STARTCHAR uni223A
ENCODING 8762
SWIDTH 602 0
DWIDTH 10 0
BBX 8 8 1 1
BITMAP
C3
C3
00
FF
00
00
C3
C3
ENDCHAR
STARTCHAR uni223B
ENCODING 8763
SWIDTH 602 0
DWIDTH 10 0
BBX 8 8 1 1
BITMAP
18
18
00
F1
9F
00
18
18
ENDCHAR
STARTCHAR uni223C
ENCODING 8764
SWIDTH 602 0
DWIDTH 10 0
BBX 8 2 1 4
BITMAP
F1
9F
ENDCHAR
STARTCHAR uni223D
ENCODING 8765
SWIDTH 602 0
DWIDTH 10 0
BBX 8 2 1 4
BITMAP
8E
F1
ENDCHAR
STARTCHAR uni2241
ENCODING 8769
SWIDTH 602 0
DWIDTH 10 0
BBX 8 7 1 1
BITMAP
08
08
F9
9F
10
10
30
ENDCHAR
STARTCHAR uni2242
ENCODING 8770
SWIDTH 602 0
DWIDTH 10 0
BBX 8 5 1 3
BITMAP
FF
00
00
F1
9F
ENDCHAR
STARTCHAR uni2243
ENCODING 8771
SWIDTH 602 0
DWIDTH 10 0
BBX 8 5 1 3
BITMAP
F1
9F
00
00
FF
ENDCHAR
STARTCHAR uni2244
ENCODING 8772
SWIDTH 602 0
DWIDTH 10 0
BBX 8 9 1 1
BITMAP
06
04
F9
9F
10
10
FF
60
40
ENDCHAR
STARTCHAR uni2245
ENCODING 8773
SWIDTH 602 0
DWIDTH 10 0
BBX 8 7 1 2
BITMAP
F1
9F
00
FF
00
00
FF
ENDCHAR
STARTCHAR uni2246
ENCODING 8774
SWIDTH 602 0
DWIDTH 10 0
BBX 8 8 1 1
BITMAP
F1
9F
04
FF
08
10
FF
60
ENDCHAR
STARTCHAR uni2247
ENCODING 8775
SWIDTH 602 0
DWIDTH 10 0
BBX 8 10 1 0
BITMAP
04
FD
9F
08
FF
10
30
FF
20
60
ENDCHAR
STARTCHAR uni2248
ENCODING 8776
SWIDTH 602 0
DWIDTH 10 0
BBX 8 5 1 3
BITMAP
F1
9F
00
F1
9F
ENDCHAR
STARTCHAR uni2249
ENCODING 8777
SWIDTH 602 0
DWIDTH 10 0
BBX 8 9 1 1
BITMAP
0C
08
F9
9F
10
F1
9F
30
20
ENDCHAR
STARTCHAR uni224A
ENCODING 8778
SWIDTH 602 0
DWIDTH 10 0
BBX 8 7 1 2
BITMAP
F1
9F
00
F1
9F
00
FF
ENDCHAR
STARTCHAR uni224B
ENCODING 8779
SWIDTH 602 0
DWIDTH 10 0
BBX 8 8 1 1
BITMAP
F1
9F
00
F1
9F
00
F1
9F
ENDCHAR
STARTCHAR uni224C
ENCODING 8780
SWIDTH 602 0
DWIDTH 10 0
BBX 8 7 1 2
BITMAP
8E
F1
00
FF
00
00
FF
ENDCHAR
STARTCHAR uni224D
ENCODING 8781
SWIDTH 602 0
DWIDTH 10 0
BBX 8 6 1 2
BITMAP
C3
7E
00
00
7C
C3
ENDCHAR
STARTCHAR uni224E
ENCODING 8782
SWIDTH 602 0
DWIDTH 10 0
BBX 8 9 1 1
BITMAP
18
2C
24
C7
00
00
C7
24
3C
ENDCHAR
STARTCHAR uni224F
ENCODING 8783
SWIDTH 602 0
DWIDTH 10 0
BBX 8 7 1 3
BITMAP
18
2C
24
C7
00
00
FF
ENDCHAR
STARTCHAR uni2250
ENCODING 8784
SWIDTH 602 0
DWIDTH 10 0
BBX 8 7 1 3
BITMAP
18
18
00
FF
00
00
FF
ENDCHAR
STARTCHAR uni2251
ENCODING 8785
SWIDTH 602 0
DWIDTH 10 0
BBX 8 11 1 0
BITMAP
28
00
00
00
FF
00
00
FF
00
18
18
ENDCHAR
STARTCHAR uni2252
ENCODING 8786
SWIDTH 602 0
DWIDTH 10 0
BBX 8 10 1 0
BITMAP
C0
C0
00
FF
00
00
FF
00
03
03
ENDCHAR
STARTCHAR uni2253
ENCODING 8787
SWIDTH 602 0
DWIDTH 10 0
BBX 8 10 1 0
BITMAP
03
03
00
FF
00
00
FF
00
C0
C0
ENDCHAR
STARTCHAR uni2254
ENCODING 8788
SWIDTH 602 0
DWIDTH 10 0
BBX 8 5 1 2
BITMAP
BF
80
00
BF
80
ENDCHAR
STARTCHAR uni2255
ENCODING 8789
SWIDTH 602 0
DWIDTH 10 0
BBX 8 5 1 2
BITMAP
FF
03
00
FF
03
ENDCHAR
STARTCHAR uni2256
ENCODING 8790
SWIDTH 602 0
DWIDTH 10 0
BBX 8 4 1 3
BITMAP
FF
24
24
FF
ENDCHAR
STARTCHAR uni2257
ENCODING 8791
SWIDTH 602 0
DWIDTH 10 0
BBX 8 9 1 3
BITMAP
38
24
24
3C
00
FF
00
00
FF
ENDCHAR
STARTCHAR uni2258
ENCODING 8792
SWIDTH 602 0
DWIDTH 10 0
BBX 8 8 1 3
BITMAP
7C
C6
82
00
FF
00
00
FF
ENDCHAR
STARTCHAR uni2259
ENCODING 8793
SWIDTH 602 0
DWIDTH 10 0
BBX 8 10 1 2
BITMAP
18
18
28
24
40
FF
00
00
00
FF
ENDCHAR
STARTCHAR uni225A
ENCODING 8794
SWIDTH 602 0
DWIDTH 10 0
BBX 8 10 1 2
BITMAP
64
24
38
18
00
FF
00
00
00
FF
ENDCHAR
STARTCHAR uni225B
ENCODING 8795
SWIDTH 602 0
DWIDTH 10 0
BBX 8 10 1 4
BITMAP
10
10
7E
18
28
04
FF
00
00
FF
ENDCHAR
STARTCHAR uni225C
ENCODING 8796
SWIDTH 602 0
DWIDTH 10 0
BBX 8 10 1 3
BITMAP
10
18
28
24
3C
40
FF
00
00
FF
ENDCHAR
STARTCHAR uni225D
ENCODING 8797
SWIDTH 602 0
DWIDTH 10 0
BBX 8 10 1 2
BITMAP
21
22
DB
BE
DE
00
FF
00
00
FF
ENDCHAR
STARTCHAR uni225E
ENCODING 8798
SWIDTH 602 0
DWIDTH 10 0
BBX 8 9 1 3
BITMAP
76
5A
52
52
00
FF
00
00
FF
ENDCHAR
STARTCHAR uni225F
ENCODING 8799
SWIDTH 602 0
DWIDTH 10 0
BBX 8 11 1 3
BITMAP
18
28
08
10
00
10
00
FF
00
00
FF
ENDCHAR
STARTCHAR uni2260
ENCODING 8800
SWIDTH 602 0
DWIDTH 10 0
BBX 8 10 1 0
BITMAP
02
03
06
FF
18
10
FF
60
C0
80
ENDCHAR
STARTCHAR uni2261
ENCODING 8801
SWIDTH 602 0
DWIDTH 10 0
BBX 8 7 1 2
BITMAP
FF
00
00
FF
00
00
FF
ENDCHAR
STARTCHAR uni2262
ENCODING 8802
SWIDTH 602 0
DWIDTH 10 0
BBX 8 10 1 0
BITMAP
06
FF
08
08
FF
10
30
FF
60
20
ENDCHAR
STARTCHAR uni2263
ENCODING 8803
SWIDTH 602 0
DWIDTH 10 0
BBX 8 10 1 0
BITMAP
FF
00
00
FF
00
00
FF
00
00
FF
ENDCHAR
STARTCHAR uni2264
ENCODING 8804
SWIDTH 602 0
DWIDTH 10 0
BBX 8 8 1 0
BITMAP
07
3C
E0
F0
1E
03
00
FF
ENDCHAR
STARTCHAR uni2265
ENCODING 8805
SWIDTH 602 0
DWIDTH 10 0
BBX 8 8 1 0
BITMAP
E0
7C
07
0F
F8
C0
00
FF
ENDCHAR
STARTCHAR uni2266
ENCODING 8806
SWIDTH 602 0
DWIDTH 10 0
BBX 8 10 1 -1
BITMAP
03
3E
F0
E0
3E
07
00
FF
00
FF
ENDCHAR
STARTCHAR uni2267
ENCODING 8807
SWIDTH 602 0
DWIDTH 10 0
BBX 8 10 1 -1
BITMAP
C0
78
0F
0F
78
C0
00
FF
00
FF
ENDCHAR
STARTCHAR uni2268
ENCODING 8808
SWIDTH 602 0
DWIDTH 10 0
BBX 8 11 1 -2
BITMAP
03
3E
F0
E0
3E
07
06
FF
18
FF
60
ENDCHAR
STARTCHAR uni2269
ENCODING 8809
SWIDTH 602 0
DWIDTH 10 0
BBX 8 11 1 -2
BITMAP
C0
78
0F
0F
78
C0
06
FF
18
FF
60
ENDCHAR
STARTCHAR uni226D
ENCODING 8813
SWIDTH 602 0
DWIDTH 10 0
BBX 8 10 1 0
BITMAP
06
04
CF
7E
18
10
7E
E3
60
40
ENDCHAR
STARTCHAR uni226E
ENCODING 8814
SWIDTH 602 0
DWIDTH 10 0
BBX 8 10 1 0
BITMAP
04
0D
0F
38
F8
F0
38
1F
31
20
ENDCHAR
STARTCHAR uni226F
ENCODING 8815
SWIDTH 602 0
DWIDTH 10 0
BBX 8 10 1 0
BITMAP
0C
88
E8
3C
17
17
3C
F0
A0
60
ENDCHAR
STARTCHAR uni2270
ENCODING 8816
SWIDTH 602 0
DWIDTH 10 0
BBX 8 12 1 -2
BITMAP
04
04
0F
3C
E8
F8
1E
13
30
FF
20
60
ENDCHAR
STARTCHAR uni2271
ENCODING 8817
SWIDTH 602 0
DWIDTH 10 0
BBX 8 12 1 -2
BITMAP
0C
08
E8
7C
17
1F
F8
E0
20
FF
40
40
ENDCHAR
STARTCHAR uni2272
ENCODING 8818
SWIDTH 602 0
DWIDTH 10 0
BBX 8 9 1 0
BITMAP
01
0F
7C
C0
F8
1F
01
F1
8F
ENDCHAR
STARTCHAR uni2273
ENCODING 8819
SWIDTH 602 0
DWIDTH 10 0
BBX 8 9 1 0
BITMAP
80
E0
3C
07
1E
F0
80
F1
8F
ENDCHAR
STARTCHAR uni2274
ENCODING 8820
SWIDTH 602 0
DWIDTH 10 0
BBX 8 12 1 -2
BITMAP
04
05
0F
7C
C8
F8
1F
11
F1
BF
60
20
ENDCHAR
STARTCHAR uni2275
ENCODING 8821
SWIDTH 602 0
DWIDTH 10 0
BBX 8 12 1 -2
BITMAP
0C
88
F8
1E
13
3E
F0
A0
F1
EE
40
40
ENDCHAR
STARTCHAR uni2276
ENCODING 8822
SWIDTH 602 0
DWIDTH 10 0
BBX 8 11 1 -1
BITMAP
01
0F
78
C0
78
CF
F9
0F
07
7C
E0
ENDCHAR
STARTCHAR uni2277
ENCODING 8823
SWIDTH 602 0
DWIDTH 10 0
BBX 8 11 1 -1
BITMAP
80
E0
3E
03
1E
F3
9E
F0
E0
3C
07
ENDCHAR
STARTCHAR uni2278
ENCODING 8824
SWIDTH 602 0
DWIDTH 10 0
BBX 8 14 1 -3
BITMAP
06
05
0F
7C
C8
78
DF
F9
1F
37
7C
E0
60
40
ENDCHAR
STARTCHAR uni2279
ENCODING 8825
SWIDTH 602 0
DWIDTH 10 0
BBX 8 14 1 -3
BITMAP
06
84
EC
3E
0B
1E
FB
9E
F0
F0
3C
27
60
40
ENDCHAR
STARTCHAR uni227A
ENCODING 8826
SWIDTH 602 0
DWIDTH 10 0
BBX 8 10 1 0
BITMAP
01
03
06
1C
F0
F0
1C
06
03
01
ENDCHAR
STARTCHAR uni227B
ENCODING 8827
SWIDTH 602 0
DWIDTH 10 0
BBX 8 10 1 0
BITMAP
80
80
60
38
0F
0F
38
60
80
80
ENDCHAR
STARTCHAR uni227C
ENCODING 8828
SWIDTH 602 0
DWIDTH 10 0
BBX 8 13 1 -2
BITMAP
01
03
0E
78
E0
78
0E
E3
79
0C
06
03
01
ENDCHAR
STARTCHAR uni227D
ENCODING 8829
SWIDTH 602 0
DWIDTH 10 0
BBX 8 13 1 -2
BITMAP
80
C0
70
3E
07
3C
60
C7
9C
70
C0
80
80
ENDCHAR
STARTCHAR uni227E
ENCODING 8830
SWIDTH 602 0
DWIDTH 10 0
BBX 8 12 1 -1
BITMAP
01
03
0E
3C
E0
78
0E
03
01
00
F1
8E
ENDCHAR
STARTCHAR uni227F
ENCODING 8831
SWIDTH 602 0
DWIDTH 10 0
BBX 8 12 1 -1
BITMAP
80
C0
60
3C
07
1E
70
C0
80
00
F1
8E
ENDCHAR
STARTCHAR uni2280
ENCODING 8832
SWIDTH 602 0
DWIDTH 10 0
BBX 8 12 1 -1
BITMAP
06
05
07
0E
1C
F8
F8
1C
16
33
31
20
ENDCHAR
STARTCHAR uni2281
ENCODING 8833
SWIDTH 602 0
DWIDTH 10 0
BBX 8 12 1 -1
BITMAP
0C
88
88
78
38
1F
1F
38
60
A0
E0
40
ENDCHAR
STARTCHAR uni2282
ENCODING 8834
SWIDTH 602 0
DWIDTH 10 0
BBX 8 7 1 2
BITMAP
3F
C0
80
80
80
C0
7F
ENDCHAR
STARTCHAR uni2283
ENCODING 8835
SWIDTH 602 0
DWIDTH 10 0
BBX 8 7 1 2
BITMAP
FC
06
03
01
01
02
FC
ENDCHAR
STARTCHAR uni2284
ENCODING 8836
SWIDTH 602 0
DWIDTH 10 0
BBX 8 11 1 0
BITMAP
04
04
3F
C8
88
98
90
F0
7F
20
60
ENDCHAR
STARTCHAR uni2285
ENCODING 8837
SWIDTH 602 0
DWIDTH 10 0
BBX 8 11 1 0
BITMAP
04
04
FC
0E
0B
19
11
32
FC
20
60
ENDCHAR
STARTCHAR uni2286
ENCODING 8838
SWIDTH 602 0
DWIDTH 10 0
BBX 8 10 1 0
BITMAP
7F
C0
80
80
80
C0
7F
00
00
FF
ENDCHAR
STARTCHAR uni2287
ENCODING 8839
SWIDTH 602 0
DWIDTH 10 0
BBX 8 10 1 0
BITMAP
FC
06
03
01
01
02
FC
00
00
FF
ENDCHAR
STARTCHAR uni2288
ENCODING 8840
SWIDTH 602 0
DWIDTH 10 0
BBX 8 14 1 -2
BITMAP
06
04
7F
CC
88
88
98
D0
7F
30
20
FF
60
20
ENDCHAR
STARTCHAR uni2289
ENCODING 8841
SWIDTH 602 0
DWIDTH 10 0
BBX 8 14 1 -2
BITMAP
06
04
FC
0E
0B
09
19
12
FC
30
20
FF
60
20
ENDCHAR
STARTCHAR uni228A
ENCODING 8842
SWIDTH 602 0
DWIDTH 10 0
BBX 8 12 1 -2
BITMAP
7F
C0
80
80
80
C0
7F
0C
08
FF
30
20
ENDCHAR
STARTCHAR uni228B
ENCODING 8843
SWIDTH 602 0
DWIDTH 10 0
BBX 8 12 1 -2
BITMAP
FC
06
03
01
01
02
FC
0C
08
FF
30
20
ENDCHAR
STARTCHAR uni228D
ENCODING 8845
SWIDTH 602 0
DWIDTH 10 0
BBX 8 11 1 0
BITMAP
83
83
83
83
83
83
9B
83
C2
46
7C
ENDCHAR
STARTCHAR uni228E
ENCODING 8846
SWIDTH 602 0
DWIDTH 10 0
BBX 8 11 1 0
BITMAP
83
83
83
83
83
93
BF
93
C2
46
7C
ENDCHAR
STARTCHAR uni228F
ENCODING 8847
SWIDTH 602 0
DWIDTH 10 0
BBX 8 8 1 1
BITMAP
FF
80
80
80
80
80
80
FF
ENDCHAR
STARTCHAR uni2290
ENCODING 8848
SWIDTH 602 0
DWIDTH 10 0
BBX 8 8 1 1
BITMAP
FF
01
01
01
01
01
01
FF
ENDCHAR
STARTCHAR uni2291
ENCODING 8849
SWIDTH 602 0
DWIDTH 10 0
BBX 8 10 1 0
BITMAP
FF
80
80
80
80
80
FF
00
00
FF
ENDCHAR
STARTCHAR uni2292
ENCODING 8850
SWIDTH 602 0
DWIDTH 10 0
BBX 8 10 1 0
BITMAP
FF
01
01
01
01
01
FF
00
00
FF
ENDCHAR
STARTCHAR uni2293
ENCODING 8851
SWIDTH 602 0
DWIDTH 10 0
BBX 8 10 1 0
BITMAP
FF
81
81
81
81
81
81
81
81
81
ENDCHAR
STARTCHAR uni2294
ENCODING 8852
SWIDTH 602 0
DWIDTH 10 0
BBX 8 10 1 0
BITMAP
81
81
81
81
81
81
81
81
81
FF
ENDCHAR
STARTCHAR uni2295
ENCODING 8853
SWIDTH 602 0
DWIDTH 10 0
BBX 8 8 1 1
BITMAP
3C
46
93
91
FF
91
D2
7C
ENDCHAR
STARTCHAR uni2296
ENCODING 8854
SWIDTH 602 0
DWIDTH 10 0
BBX 8 8 1 1
BITMAP
3C
46
83
81
FF
81
C2
7C
ENDCHAR
STARTCHAR uni2297
ENCODING 8855
SWIDTH 602 0
DWIDTH 10 0
BBX 8 8 1 1
BITMAP
3C
46
A7
B9
99
A5
C2
7C
ENDCHAR
STARTCHAR uni2298
ENCODING 8856
SWIDTH 602 0
DWIDTH 10 0
BBX 8 8 1 1
BITMAP
3C
46
87
89
91
A1
C2
7C
ENDCHAR
STARTCHAR uni2299
ENCODING 8857
SWIDTH 602 0
DWIDTH 10 0
BBX 8 8 1 1
BITMAP
3C
46
83
99
99
81
C2
7C
ENDCHAR
STARTCHAR uni229A
ENCODING 8858
SWIDTH 602 0
DWIDTH 10 0
BBX 8 8 1 1
BITMAP
3C
46
BB
A5
A5
B9
C2
7C
ENDCHAR
STARTCHAR uni229B
ENCODING 8859
SWIDTH 602 0
DWIDTH 10 0
BBX 8 8 1 1
BITMAP
3C
56
D3
BD
B9
D7
52
3C
ENDCHAR
STARTCHAR uni229C
ENCODING 8860
SWIDTH 602 0
DWIDTH 10 0
BBX 8 8 1 1
BITMAP
3C
46
83
FD
81
FD
C2
7C
ENDCHAR
STARTCHAR uni229D
ENCODING 8861
SWIDTH 602 0
DWIDTH 10 0
BBX 8 8 1 1
BITMAP
3C
46
83
81
B9
81
C2
7C
ENDCHAR
STARTCHAR uni229E
ENCODING 8862
SWIDTH 602 0
DWIDTH 10 0
BBX 8 8 1 1
BITMAP
FF
91
91
FF
91
91
91
FF
ENDCHAR
STARTCHAR uni229F
ENCODING 8863
SWIDTH 602 0
DWIDTH 10 0
BBX 8 8 1 1
BITMAP
FF
81
81
FF
81
81
81
FF
ENDCHAR
STARTCHAR uni22A0
ENCODING 8864
SWIDTH 602 0
DWIDTH 10 0
BBX 8 8 1 1
BITMAP
FF
C5
E7
B9
99
A5
C7
FF
ENDCHAR
STARTCHAR uni22A1
ENCODING 8865
SWIDTH 602 0
DWIDTH 10 0
BBX 8 8 1 1
BITMAP
FF
81
81
99
99
81
81
FF
ENDCHAR
STARTCHAR uni22A2
ENCODING 8866
SWIDTH 602 0
DWIDTH 10 0
BBX 8 10 1 0
BITMAP
80
80
80
80
FF
80
80
80
80
80
ENDCHAR
STARTCHAR uni22A3
ENCODING 8867
SWIDTH 602 0
DWIDTH 10 0
BBX 8 10 1 0
BITMAP
01
01
01
01
FF
01
01
01
01
01
ENDCHAR
STARTCHAR uni22A4
ENCODING 8868
SWIDTH 602 0
DWIDTH 10 0
BBX 8 10 1 0
BITMAP
FF
10
10
10
10
10
10
10
10
10
ENDCHAR
STARTCHAR uni22B2
ENCODING 8882
SWIDTH 602 0
DWIDTH 10 0
BBX 8 8 1 1
BITMAP
01
0F
39
E1
E1
39
0F
01
ENDCHAR
STARTCHAR uni22B3
ENCODING 8883
SWIDTH 602 0
DWIDTH 10 0
BBX 8 8 1 1
BITMAP
80
E0
BC
87
87
BC
E0
80
ENDCHAR
STARTCHAR uni22B4
ENCODING 8884
SWIDTH 602 0
DWIDTH 10 0
BBX 8 8 1 0
BITMAP
07
3D
E1
F1
1F
03
00
FF
ENDCHAR
STARTCHAR uni22B5
ENCODING 8885
SWIDTH 602 0
DWIDTH 10 0
BBX 8 8 1 0
BITMAP
E0
FC
87
8F
F8
C0
00
FF
ENDCHAR
STARTCHAR uni22B8
ENCODING 8888
SWIDTH 602 0
DWIDTH 10 0
BBX 9 4 0 3
BITMAP
0780
FC80
0480
0380
ENDCHAR
STARTCHAR uni22C2
ENCODING 8898
SWIDTH 602 0
DWIDTH 10 0
BBX 8 15 1 -3
BITMAP
7C
C6
C2
83
83
83
83
83
83
83
83
83
83
83
83
ENDCHAR
STARTCHAR uni22C3
ENCODING 8899
SWIDTH 602 0
DWIDTH 10 0
BBX 8 16 1 -4
BITMAP
83
83
83
83
83
83
83
83
83
83
83
83
83
C2
46
7C
ENDCHAR
STARTCHAR uni22C4
ENCODING 8900
SWIDTH 602 0
DWIDTH 10 0
BBX 8 8 1 1
BITMAP
10
38
6C
C7
C6
6C
38
10
ENDCHAR
STARTCHAR uni22C5
ENCODING 8901
SWIDTH 602 0
DWIDTH 10 0
BBX 2 2 4 4
BITMAP
C0
C0
ENDCHAR
STARTCHAR uni22C6
ENCODING 8902
SWIDTH 602 0
DWIDTH 10 0
BBX 6 5 2 3
BITMAP
20
20
FC
30
58
ENDCHAR
STARTCHAR uni22CD
ENCODING 8909
SWIDTH 602 0
DWIDTH 10 0
BBX 8 5 1 3
BITMAP
8E
F1
00
00
FF
ENDCHAR
STARTCHAR uni22CE
ENCODING 8910
SWIDTH 602 0
DWIDTH 10 0
BBX 10 10 0 0
BITMAP
C1C0
2300
3200
1E00
1C00
0C00
0C00
0C00
0C00
0800
ENDCHAR
STARTCHAR uni22CF
ENCODING 8911
SWIDTH 602 0
DWIDTH 10 0
BBX 10 10 0 0
BITMAP
0800
0C00
0C00
0C00
0C00
1C00
1E00
3600
2300
C1C0
ENDCHAR
STARTCHAR uni22D0
ENCODING 8912
SWIDTH 602 0
DWIDTH 10 0
BBX 8 10 1 0
BITMAP
1F
60
C0
9F
B0
B0
9F
C0
60
1F
ENDCHAR
STARTCHAR uni22D1
ENCODING 8913
SWIDTH 602 0
DWIDTH 10 0
BBX 8 10 1 0
BITMAP
F8
0E
02
F3
09
09
FB
02
0C
F8
ENDCHAR
STARTCHAR uni22DA
ENCODING 8922
SWIDTH 602 0
DWIDTH 10 0
BBX 8 15 1 -3
BITMAP
03
1E
F0
E0
3E
07
00
FF
00
C0
F8
0F
07
7C
C0
ENDCHAR
STARTCHAR uni22DB
ENCODING 8923
SWIDTH 602 0
DWIDTH 10 0
BBX 8 15 1 -3
BITMAP
C0
78
0F
0F
78
C0
00
FF
00
03
1E
F0
E0
3C
07
ENDCHAR
STARTCHAR uni22DC
ENCODING 8924
SWIDTH 602 0
DWIDTH 10 0
BBX 8 8 1 1
BITMAP
FF
00
03
1E
F0
E0
3C
07
ENDCHAR
STARTCHAR uni22DD
ENCODING 8925
SWIDTH 602 0
DWIDTH 10 0
BBX 8 8 1 1
BITMAP
FF
00
C0
F8
0F
07
7C
E0
ENDCHAR
STARTCHAR uni22DE
ENCODING 8926
SWIDTH 602 0
DWIDTH 10 0
BBX 8 13 1 -2
BITMAP
01
03
06
1D
F1
C7
1C
F0
F0
1C
06
03
01
ENDCHAR
STARTCHAR uni22DF
ENCODING 8927
SWIDTH 602 0
DWIDTH 10 0
BBX 8 13 1 -2
BITMAP
80
C0
60
B8
9F
C3
70
1F
0F
38
E0
80
80
ENDCHAR
STARTCHAR uni22E0
ENCODING 8928
SWIDTH 602 0
DWIDTH 10 0
BBX 8 15 1 -3
BITMAP
02
07
07
0E
7C
E8
38
1E
F3
79
3C
26
23
61
60
ENDCHAR
STARTCHAR uni22E1
ENCODING 8929
SWIDTH 602 0
DWIDTH 10 0
BBX 8 15 1 -3
BITMAP
06
84
CC
78
3C
1F
3C
70
DF
BC
70
E0
E0
C0
40
ENDCHAR
STARTCHAR uni22E2
ENCODING 8930
SWIDTH 602 0
DWIDTH 10 0
BBX 8 12 1 -1
BITMAP
06
04
FF
8C
88
98
90
90
B0
FF
60
40
ENDCHAR
STARTCHAR uni22E3
ENCODING 8931
SWIDTH 602 0
DWIDTH 10 0
BBX 8 12 1 -1
BITMAP
06
04
FF
0D
09
19
11
11
31
FF
60
40
ENDCHAR
STARTCHAR uni22E4
ENCODING 8932
SWIDTH 602 0
DWIDTH 10 0
BBX 8 12 1 -2
BITMAP
FF
80
80
80
80
80
FF
0C
08
FF
30
20
ENDCHAR
STARTCHAR uni22E5
ENCODING 8933
SWIDTH 602 0
DWIDTH 10 0
BBX 8 12 1 -2
BITMAP
FF
01
01
01
01
01
FF
0C
08
FF
30
20
ENDCHAR
STARTCHAR uni22E6
ENCODING 8934
SWIDTH 602 0
DWIDTH 10 0
BBX 8 11 1 -2
BITMAP
01
0F
7C
C0
F8
1F
09
F1
9F
10
10
ENDCHAR
STARTCHAR uni22E7
ENCODING 8935
SWIDTH 602 0
DWIDTH 10 0
BBX 8 11 1 -2
BITMAP
80
E0
3C
07
1E
F8
88
F1
9F
10
10
ENDCHAR
STARTCHAR uni22E8
ENCODING 8936
SWIDTH 602 0
DWIDTH 10 0
BBX 8 15 1 -4
BITMAP
01
03
0E
3C
E0
78
0E
0B
09
08
F9
9E
10
10
30
ENDCHAR
STARTCHAR uni22E9
ENCODING 8937
SWIDTH 602 0
DWIDTH 10 0
BBX 8 15 1 -4
BITMAP
80
C0
60
3C
07
1E
70
C8
88
08
F9
9E
10
10
30
ENDCHAR
STARTCHAR uni22EF
ENCODING 8943
SWIDTH 602 0
DWIDTH 10 0
BBX 8 2 1 4
BITMAP
DB
DB
ENDCHAR
STARTCHAR uni2304
ENCODING 8964
SWIDTH 602 0
DWIDTH 10 0
BBX 7 5 1 -2
BITMAP
C2
44
24
38
10
ENDCHAR
STARTCHAR uni2308
ENCODING 8968
SWIDTH 602 0
DWIDTH 10 0
BBX 3 14 4 -2
BITMAP
E0
80
80
80
80
80
80
80
80
80
80
80
80
80
ENDCHAR
STARTCHAR uni2309
ENCODING 8969
SWIDTH 602 0
DWIDTH 10 0
BBX 3 14 3 -2
BITMAP
E0
20
20
20
20
20
20
20
20
20
20
20
20
20
ENDCHAR
STARTCHAR uni230A
ENCODING 8970
SWIDTH 602 0
DWIDTH 10 0
BBX 3 14 4 -2
BITMAP
80
80
80
80
80
80
80
80
80
80
80
80
80
E0
ENDCHAR
STARTCHAR uni230B
ENCODING 8971
SWIDTH 602 0
DWIDTH 10 0
BBX 3 14 3 -2
BITMAP
20
20
20
20
20
20
20
20
20
20
20
20
20
E0
ENDCHAR
STARTCHAR uni2310
ENCODING 8976
SWIDTH 602 0
DWIDTH 10 0
BBX 8 4 1 3
BITMAP
FF
80
80
80
ENDCHAR
STARTCHAR uni2320
ENCODING 8992
SWIDTH 602 0
DWIDTH 10 0
BBX 5 19 4 -4
BITMAP
30
58
40
C0
C0
C0
C0
C0
C0
C0
C0
C0
C0
C0
C0
C0
C0
C0
C0
ENDCHAR
STARTCHAR uni2321
ENCODING 8993
SWIDTH 602 0
DWIDTH 10 0
BBX 5 19 1 -4
BITMAP
18
18
18
18
18
18
18
18
18
18
18
18
10
10
10
10
10
D0
E0
ENDCHAR
STARTCHAR uni239B
ENCODING 9115
SWIDTH 602 0
DWIDTH 10 0
BBX 5 19 2 -4
BITMAP
08
18
10
30
20
20
60
60
40
40
40
C0
C0
C0
C0
C0
C0
C0
C0
ENDCHAR
STARTCHAR uni239C
ENCODING 9116
SWIDTH 602 0
DWIDTH 10 0
BBX 2 19 2 -4
BITMAP
C0
C0
C0
C0
C0
C0
C0
C0
C0
C0
C0
C0
C0
C0
C0
C0
C0
C0
C0
ENDCHAR
STARTCHAR uni239D
ENCODING 9117
SWIDTH 602 0
DWIDTH 10 0
BBX 5 19 2 -4
BITMAP
C0
C0
C0
C0
C0
C0
C0
C0
40
40
40
60
60
20
20
30
10
18
08
ENDCHAR
STARTCHAR uni239E
ENCODING 9118
SWIDTH 602 0
DWIDTH 10 0
BBX 5 19 2 -4
BITMAP
C0
40
60
20
30
10
10
10
18
18
08
08
08
08
08
08
08
08
08
ENDCHAR
STARTCHAR uni239F
ENCODING 9119
SWIDTH 602 0
DWIDTH 10 0
BBX 1 19 6 -4
BITMAP
80
80
80
80
80
80
80
80
80
80
80
80
80
80
80
80
80
80
80
ENDCHAR
STARTCHAR uni23A0
ENCODING 9120
SWIDTH 602 0
DWIDTH 10 0
BBX 5 19 2 -4
BITMAP
08
08
08
08
08
08
08
08
08
18
18
10
10
30
30
20
60
40
C0
ENDCHAR
STARTCHAR uni23A1
ENCODING 9121
SWIDTH 602 0
DWIDTH 10 0
BBX 5 19 2 -4
BITMAP
F8
C0
C0
C0
C0
C0
C0
C0
C0
C0
C0
C0
C0
C0
C0
C0
C0
C0
C0
ENDCHAR
STARTCHAR uni23A2
ENCODING 9122
SWIDTH 602 0
DWIDTH 10 0
BBX 2 19 2 -4
BITMAP
C0
C0
C0
C0
C0
C0
C0
C0
C0
C0
C0
C0
C0
C0
C0
C0
C0
C0
C0
ENDCHAR
STARTCHAR uni23A3
ENCODING 9123
SWIDTH 602 0
DWIDTH 10 0
BBX 5 19 2 -4
BITMAP
C0
C0
C0
C0
C0
C0
C0
C0
C0
C0
C0
C0
C0
C0
C0
C0
C0
C0
F8
ENDCHAR
STARTCHAR uni23A4
ENCODING 9124
SWIDTH 602 0
DWIDTH 10 0
BBX 5 19 2 -4
BITMAP
F8
08
08
08
08
08
08
08
08
08
08
08
08
08
08
08
08
08
08
ENDCHAR
STARTCHAR uni23A5
ENCODING 9125
SWIDTH 602 0
DWIDTH 10 0
BBX 1 19 6 -4
BITMAP
80
80
80
80
80
80
80
80
80
80
80
80
80
80
80
80
80
80
80
ENDCHAR
STARTCHAR uni23A6
ENCODING 9126
SWIDTH 602 0
DWIDTH 10 0
BBX 5 19 2 -4
BITMAP
08
08
08
08
08
08
08
08
08
08
08
08
08
08
08
08
08
08
F8
ENDCHAR
STARTCHAR uni23A7
ENCODING 9127
SWIDTH 602 0
DWIDTH 10 0
BBX 6 19 4 -4
BITMAP
3C
40
C0
C0
C0
C0
C0
C0
C0
C0
C0
C0
C0
C0
C0
C0
C0
C0
C0
ENDCHAR
STARTCHAR uni23A8
ENCODING 9128
SWIDTH 602 0
DWIDTH 10 0
BBX 6 19 0 -4
BITMAP
0C
0C
0C
0C
0C
0C
08
08
18
F0
18
08
08
0C
0C
0C
0C
0C
0C
ENDCHAR
STARTCHAR uni23A9
ENCODING 9129
SWIDTH 602 0
DWIDTH 10 0
BBX 6 19 4 -4
BITMAP
C0
C0
C0
C0
C0
C0
C0
C0
C0
C0
C0
C0
C0
C0
C0
C0
C0
40
3C
ENDCHAR
STARTCHAR uni23AA
ENCODING 9130
SWIDTH 602 0
DWIDTH 10 0
BBX 2 19 4 -4
BITMAP
C0
C0
C0
C0
C0
C0
C0
C0
C0
C0
C0
C0
C0
C0
C0
C0
C0
C0
C0
ENDCHAR
STARTCHAR uni23AB
ENCODING 9131
SWIDTH 602 0
DWIDTH 10 0
BBX 6 19 0 -4
BITMAP
F0
18
08
0C
0C
0C
0C
0C
0C
0C
0C
0C
0C
0C
0C
0C
0C
0C
0C
ENDCHAR
STARTCHAR uni23AC
ENCODING 9132
SWIDTH 602 0
DWIDTH 10 0
BBX 6 19 4 -4
BITMAP
C0
C0
C0
C0
C0
C0
C0
C0
40
3C
60
C0
C0
C0
C0
C0
C0
C0
C0
ENDCHAR
STARTCHAR uni23AD
ENCODING 9133
SWIDTH 602 0
DWIDTH 10 0
BBX 6 19 0 -4
BITMAP
0C
0C
0C
0C
0C
0C
0C
0C
0C
0C
0C
0C
0C
0C
0C
0C
08
18
F0
ENDCHAR
STARTCHAR uni23AE
ENCODING 9134
SWIDTH 602 0
DWIDTH 10 0
BBX 2 19 4 -4
BITMAP
C0
C0
C0
C0
C0
C0
C0
C0
C0
C0
C0
C0
C0
C0
C0
C0
C0
C0
C0
ENDCHAR
STARTCHAR uni2500
ENCODING 9472
SWIDTH 602 0
DWIDTH 10 0
BBX 10 1 0 5
BITMAP
FFC0
ENDCHAR
STARTCHAR uni2501
ENCODING 9473
SWIDTH 602 0
DWIDTH 10 0
BBX 10 3 0 4
BITMAP
FFC0
FFC0
FFC0
ENDCHAR
STARTCHAR uni2502
ENCODING 9474
SWIDTH 602 0
DWIDTH 10 0
BBX 1 19 4 -4
BITMAP
80
80
80
80
80
80
80
80
80
80
80
80
80
80
80
80
80
80
80
ENDCHAR
STARTCHAR uni2503
ENCODING 9475
SWIDTH 602 0
DWIDTH 10 0
BBX 2 19 4 -4
BITMAP
C0
C0
C0
C0
C0
C0
C0
C0
C0
C0
C0
C0
C0
C0
C0
C0
C0
C0
C0
ENDCHAR
STARTCHAR uni2504
ENCODING 9476
SWIDTH 602 0
DWIDTH 10 0
BBX 9 1 0 5
BITMAP
ED80
ENDCHAR
STARTCHAR uni2505
ENCODING 9477
SWIDTH 602 0
DWIDTH 10 0
BBX 9 3 0 4
BITMAP
ED80
ED80
ED80
ENDCHAR
STARTCHAR uni2506
ENCODING 9478
SWIDTH 602 0
DWIDTH 10 0
BBX 1 17 4 -3
BITMAP
80
80
80
80
80
00
80
80
80
80
80
00
80
80
80
80
80
ENDCHAR
STARTCHAR uni2507
ENCODING 9479
SWIDTH 602 0
DWIDTH 10 0
BBX 2 17 4 -3
BITMAP
C0
C0
C0
C0
C0
00
C0
C0
C0
C0
C0
00
C0
C0
C0
C0
C0
ENDCHAR
STARTCHAR uni2508
ENCODING 9480
SWIDTH 602 0
DWIDTH 10 0
BBX 9 1 0 5
BITMAP
D680
ENDCHAR
STARTCHAR uni2509
ENCODING 9481
SWIDTH 602 0
DWIDTH 10 0
BBX 9 3 0 4
BITMAP
D680
D680
D680
ENDCHAR
STARTCHAR uni250A
ENCODING 9482
SWIDTH 602 0
DWIDTH 10 0
BBX 1 17 4 -3
BITMAP
80
80
80
00
00
80
80
80
00
80
80
80
00
00
80
80
80
ENDCHAR
STARTCHAR uni250B
ENCODING 9483
SWIDTH 602 0
DWIDTH 10 0
BBX 2 17 4 -3
BITMAP
C0
C0
C0
00
00
C0
C0
C0
00
C0
C0
C0
00
00
C0
C0
C0
ENDCHAR
STARTCHAR uni250C
ENCODING 9484
SWIDTH 602 0
DWIDTH 10 0
BBX 6 10 4 -4
BITMAP
FC
80
80
80
80
80
80
80
80
80
ENDCHAR
STARTCHAR uni250D
ENCODING 9485
SWIDTH 602 0
DWIDTH 10 0
BBX 6 11 4 -4
BITMAP
FC
FC
FC
80
80
80
80
80
80
80
80
ENDCHAR
STARTCHAR uni250E
ENCODING 9486
SWIDTH 602 0
DWIDTH 10 0
BBX 6 10 4 -4
BITMAP
FC
C0
C0
C0
C0
C0
C0
C0
C0
C0
ENDCHAR
STARTCHAR uni250F
ENCODING 9487
SWIDTH 602 0
DWIDTH 10 0
BBX 6 11 4 -4
BITMAP
FC
FC
FC
C0
C0
C0
C0
C0
C0
C0
C0
ENDCHAR
STARTCHAR uni2510
ENCODING 9488
SWIDTH 602 0
DWIDTH 10 0
BBX 5 10 0 -4
BITMAP
F8
08
08
08
08
08
08
08
08
08
ENDCHAR
STARTCHAR uni2511
ENCODING 9489
SWIDTH 602 0
DWIDTH 10 0
BBX 5 11 0 -4
BITMAP
F8
F8
F8
08
08
08
08
08
08
08
08
ENDCHAR
STARTCHAR uni2512
ENCODING 9490
SWIDTH 602 0
DWIDTH 10 0
BBX 6 10 0 -4
BITMAP
FC
0C
0C
0C
0C
0C
0C
0C
0C
0C
ENDCHAR
STARTCHAR uni2513
ENCODING 9491
SWIDTH 602 0
DWIDTH 10 0
BBX 6 11 0 -4
BITMAP
FC
FC
FC
0C
0C
0C
0C
0C
0C
0C
0C
ENDCHAR
STARTCHAR uni2514
ENCODING 9492
SWIDTH 602 0
DWIDTH 10 0
BBX 6 10 4 5
BITMAP
80
80
80
80
80
80
80
80
80
FC
ENDCHAR
STARTCHAR uni2515
ENCODING 9493
SWIDTH 602 0
DWIDTH 10 0
BBX 6 11 4 4
BITMAP
80
80
80
80
80
80
80
80
FC
FC
FC
ENDCHAR
STARTCHAR uni2516
ENCODING 9494
SWIDTH 602 0
DWIDTH 10 0
BBX 6 10 4 5
BITMAP
C0
C0
C0
C0
C0
C0
C0
C0
C0
FC
ENDCHAR
STARTCHAR uni2517
ENCODING 9495
SWIDTH 602 0
DWIDTH 10 0
BBX 6 11 4 4
BITMAP
C0
C0
C0
C0
C0
C0
C0
C0
FC
FC
FC
ENDCHAR
STARTCHAR uni2518
ENCODING 9496
SWIDTH 602 0
DWIDTH 10 0
BBX 5 10 0 5
BITMAP
08
08
08
08
08
08
08
08
08
F8
ENDCHAR
STARTCHAR uni2519
ENCODING 9497
SWIDTH 602 0
DWIDTH 10 0
BBX 5 11 0 4
BITMAP
08
08
08
08
08
08
08
08
F8
F8
F8
ENDCHAR
STARTCHAR uni251A
ENCODING 9498
SWIDTH 602 0
DWIDTH 10 0
BBX 6 10 0 5
BITMAP
0C
0C
0C
0C
0C
0C
0C
0C
0C
FC
ENDCHAR
STARTCHAR uni251B
ENCODING 9499
SWIDTH 602 0
DWIDTH 10 0
BBX 6 11 0 4
BITMAP
0C
0C
0C
0C
0C
0C
0C
0C
FC
FC
FC
ENDCHAR
STARTCHAR uni251C
ENCODING 9500
SWIDTH 602 0
DWIDTH 10 0
BBX 6 19 4 -4
BITMAP
80
80
80
80
80
80
80
80
80
FC
80
80
80
80
80
80
80
80
80
ENDCHAR
STARTCHAR uni251D
ENCODING 9501
SWIDTH 602 0
DWIDTH 10 0
BBX 6 19 4 -4
BITMAP
80
80
80
80
80
80
80
80
FC
FC
FC
80
80
80
80
80
80
80
80
ENDCHAR
STARTCHAR uni251E
ENCODING 9502
SWIDTH 602 0
DWIDTH 10 0
BBX 6 19 4 -4
BITMAP
C0
C0
C0
C0
C0
C0
C0
C0
C0
FC
80
80
80
80
80
80
80
80
80
ENDCHAR
STARTCHAR uni251F
ENCODING 9503
SWIDTH 602 0
DWIDTH 10 0
BBX 6 19 4 -4
BITMAP
80
80
80
80
80
80
80
80
80
FC
C0
C0
C0
C0
C0
C0
C0
C0
C0
ENDCHAR
STARTCHAR uni2520
ENCODING 9504
SWIDTH 602 0
DWIDTH 10 0
BBX 6 19 4 -4
BITMAP
C0
C0
C0
C0
C0
C0
C0
C0
C0
FC
C0
C0
C0
C0
C0
C0
C0
C0
C0
ENDCHAR
STARTCHAR uni2521
ENCODING 9505
SWIDTH 602 0
DWIDTH 10 0
BBX 6 19 4 -4
BITMAP
C0
C0
C0
C0
C0
C0
C0
C0
FC
FC
FC
80
80
80
80
80
80
80
80
ENDCHAR
STARTCHAR uni2522
ENCODING 9506
SWIDTH 602 0
DWIDTH 10 0
BBX 6 19 4 -4
BITMAP
80
80
80
80
80
80
80
80
FC
FC
FC
C0
C0
C0
C0
C0
C0
C0
C0
ENDCHAR
STARTCHAR uni2523
ENCODING 9507
SWIDTH 602 0
DWIDTH 10 0
BBX 6 19 4 -4
BITMAP
C0
C0
C0
C0
C0
C0
C0
C0
FC
FC
FC
C0
C0
C0
C0
C0
C0
C0
C0
ENDCHAR
STARTCHAR uni2524
ENCODING 9508
SWIDTH 602 0
DWIDTH 10 0
BBX 5 19 0 -4
BITMAP
08
08
08
08
08
08
08
08
08
F8
08
08
08
08
08
08
08
08
08
ENDCHAR
STARTCHAR uni2525
ENCODING 9509
SWIDTH 602 0
DWIDTH 10 0
BBX 5 19 0 -4
BITMAP
08
08
08
08
08
08
08
08
F8
F8
F8
08
08
08
08
08
08
08
08
ENDCHAR
STARTCHAR uni2526
ENCODING 9510
SWIDTH 602 0
DWIDTH 10 0
BBX 6 19 0 -4
BITMAP
0C
0C
0C
0C
0C
0C
0C
0C
0C
FC
08
08
08
08
08
08
08
08
08
ENDCHAR
STARTCHAR uni2527
ENCODING 9511
SWIDTH 602 0
DWIDTH 10 0
BBX 6 19 0 -4
BITMAP
08
08
08
08
08
08
08
08
08
FC
0C
0C
0C
0C
0C
0C
0C
0C
0C
ENDCHAR
STARTCHAR uni2528
ENCODING 9512
SWIDTH 602 0
DWIDTH 10 0
BBX 6 19 0 -4
BITMAP
0C
0C
0C
0C
0C
0C
0C
0C
0C
FC
0C
0C
0C
0C
0C
0C
0C
0C
0C
ENDCHAR
STARTCHAR uni2529
ENCODING 9513
SWIDTH 602 0
DWIDTH 10 0
BBX 6 19 0 -4
BITMAP
0C
0C
0C
0C
0C
0C
0C
0C
FC
FC
FC
08
08
08
08
08
08
08
08
ENDCHAR
STARTCHAR uni252A
ENCODING 9514
SWIDTH 602 0
DWIDTH 10 0
BBX 6 19 0 -4
BITMAP
08
08
08
08
08
08
08
08
FC
FC
FC
0C
0C
0C
0C
0C
0C
0C
0C
ENDCHAR
STARTCHAR uni252B
ENCODING 9515
SWIDTH 602 0
DWIDTH 10 0
BBX 6 19 0 -4
BITMAP
0C
0C
0C
0C
0C
0C
0C
0C
FC
FC
FC
0C
0C
0C
0C
0C
0C
0C
0C
ENDCHAR
STARTCHAR uni252C
ENCODING 9516
SWIDTH 602 0
DWIDTH 10 0
BBX 10 10 0 -4
BITMAP
FFC0
0800
0800
0800
0800
0800
0800
0800
0800
0800
ENDCHAR
STARTCHAR uni252D
ENCODING 9517
SWIDTH 602 0
DWIDTH 10 0
BBX 10 11 0 -4
BITMAP
F800
FFC0
F800
0800
0800
0800
0800
0800
0800
0800
0800
ENDCHAR
STARTCHAR uni252E
ENCODING 9518
SWIDTH 602 0
DWIDTH 10 0
BBX 10 11 0 -4
BITMAP
0FC0
FFC0
0FC0
0800
0800
0800
0800
0800
0800
0800
0800
ENDCHAR
STARTCHAR uni252F
ENCODING 9519
SWIDTH 602 0
DWIDTH 10 0
BBX 10 11 0 -4
BITMAP
FFC0
FFC0
FFC0
0800
0800
0800
0800
0800
0800
0800
0800
ENDCHAR
STARTCHAR uni2530
ENCODING 9520
SWIDTH 602 0
DWIDTH 10 0
BBX 10 10 0 -4
BITMAP
FFC0
0C00
0C00
0C00
0C00
0C00
0C00
0C00
0C00
0C00
ENDCHAR
STARTCHAR uni2531
ENCODING 9521
SWIDTH 602 0
DWIDTH 10 0
BBX 10 11 0 -4
BITMAP
FC00
FFC0
FC00
0C00
0C00
0C00
0C00
0C00
0C00
0C00
0C00
ENDCHAR
STARTCHAR uni2532
ENCODING 9522
SWIDTH 602 0
DWIDTH 10 0
BBX 10 11 0 -4
BITMAP
0FC0
FFC0
0FC0
0C00
0C00
0C00
0C00
0C00
0C00
0C00
0C00
ENDCHAR
STARTCHAR uni2533
ENCODING 9523
SWIDTH 602 0
DWIDTH 10 0
BBX 10 11 0 -4
BITMAP
FFC0
FFC0
FFC0
0C00
0C00
0C00
0C00
0C00
0C00
0C00
0C00
ENDCHAR
STARTCHAR uni2534
ENCODING 9524
SWIDTH 602 0
DWIDTH 10 0
BBX 10 10 0 5
BITMAP
0800
0800
0800
0800
0800
0800
0800
0800
0800
FFC0
ENDCHAR
STARTCHAR uni2535
ENCODING 9525
SWIDTH 602 0
DWIDTH 10 0
BBX 10 11 0 4
BITMAP
0800
0800
0800
0800
0800
0800
0800
0800
F800
FFC0
F800
ENDCHAR
STARTCHAR uni2536
ENCODING 9526
SWIDTH 602 0
DWIDTH 10 0
BBX 10 11 0 4
BITMAP
0800
0800
0800
0800
0800
0800
0800
0800
0FC0
FFC0
0FC0
ENDCHAR
STARTCHAR uni2537
ENCODING 9527
SWIDTH 602 0
DWIDTH 10 0
BBX 10 11 0 4
BITMAP
0800
0800
0800
0800
0800
0800
0800
0800
FFC0
FFC0
FFC0
ENDCHAR
STARTCHAR uni2538
ENCODING 9528
SWIDTH 602 0
DWIDTH 10 0
BBX 10 10 0 5
BITMAP
0C00
0C00
0C00
0C00
0C00
0C00
0C00
0C00
0C00
FFC0
ENDCHAR
STARTCHAR uni2539
ENCODING 9529
SWIDTH 602 0
DWIDTH 10 0
BBX 10 11 0 4
BITMAP
0C00
0C00
0C00
0C00
0C00
0C00
0C00
0C00
FC00
FFC0
FC00
ENDCHAR
STARTCHAR uni253A
ENCODING 9530
SWIDTH 602 0
DWIDTH 10 0
BBX 10 11 0 4
BITMAP
0C00
0C00
0C00
0C00
0C00
0C00
0C00
0C00
0FC0
FFC0
0FC0
ENDCHAR
STARTCHAR uni253B
ENCODING 9531
SWIDTH 602 0
DWIDTH 10 0
BBX 10 11 0 4
BITMAP
0C00
0C00
0C00
0C00
0C00
0C00
0C00
0C00
FFC0
FFC0
FFC0
ENDCHAR
STARTCHAR uni253C
ENCODING 9532
SWIDTH 602 0
DWIDTH 10 0
BBX 10 19 0 -4
BITMAP
0800
0800
0800
0800
0800
0800
0800
0800
0800
FFC0
0800
0800
0800
0800
0800
0800
0800
0800
0800
ENDCHAR
STARTCHAR uni253D
ENCODING 9533
SWIDTH 602 0
DWIDTH 10 0
BBX 10 19 0 -4
BITMAP
0800
0800
0800
0800
0800
0800
0800
0800
F800
FFC0
F800
0800
0800
0800
0800
0800
0800
0800
0800
ENDCHAR
STARTCHAR uni253E
ENCODING 9534
SWIDTH 602 0
DWIDTH 10 0
BBX 10 19 0 -4
BITMAP
0800
0800
0800
0800
0800
0800
0800
0800
0FC0
FFC0
0FC0
0800
0800
0800
0800
0800
0800
0800
0800
ENDCHAR
STARTCHAR uni253F
ENCODING 9535
SWIDTH 602 0
DWIDTH 10 0
BBX 10 19 0 -4
BITMAP
0800
0800
0800
0800
0800
0800
0800
0800
FFC0
FFC0
FFC0
0800
0800
0800
0800
0800
0800
0800
0800
ENDCHAR
STARTCHAR uni2540
ENCODING 9536
SWIDTH 602 0
DWIDTH 10 0
BBX 10 19 0 -4
BITMAP
0C00
0C00
0C00
0C00
0C00
0C00
0C00
0C00
0C00
FFC0
0800
0800
0800
0800
0800
0800
0800
0800
0800
ENDCHAR
STARTCHAR uni2541
ENCODING 9537
SWIDTH 602 0
DWIDTH 10 0
BBX 10 19 0 -4
BITMAP
0800
0800
0800
0800
0800
0800
0800
0800
0800
FFC0
0C00
0C00
0C00
0C00
0C00
0C00
0C00
0C00
0C00
ENDCHAR
STARTCHAR uni2542
ENCODING 9538
SWIDTH 602 0
DWIDTH 10 0
BBX 10 19 0 -4
BITMAP
0C00
0C00
0C00
0C00
0C00
0C00
0C00
0C00
0C00
FFC0
0C00
0C00
0C00
0C00
0C00
0C00
0C00
0C00
0C00
ENDCHAR
STARTCHAR uni2543
ENCODING 9539
SWIDTH 602 0
DWIDTH 10 0
BBX 10 19 0 -4
BITMAP
0C00
0C00
0C00
0C00
0C00
0C00
0C00
0C00
FC00
FFC0
FC00
0800
0800
0800
0800
0800
0800
0800
0800
ENDCHAR
STARTCHAR uni2544
ENCODING 9540
SWIDTH 602 0
DWIDTH 10 0
BBX 10 19 0 -4
BITMAP
0C00
0C00
0C00
0C00
0C00
0C00
0C00
0C00
0FC0
FFC0
0FC0
0800
0800
0800
0800
0800
0800
0800
0800
ENDCHAR
STARTCHAR uni2545
ENCODING 9541
SWIDTH 602 0
DWIDTH 10 0
BBX 10 19 0 -4
BITMAP
0800
0800
0800
0800
0800
0800
0800
0800
FC00
FFC0
FC00
0C00
0C00
0C00
0C00
0C00
0C00
0C00
0C00
ENDCHAR
STARTCHAR uni2546
ENCODING 9542
SWIDTH 602 0
DWIDTH 10 0
BBX 10 19 0 -4
BITMAP
0800
0800
0800
0800
0800
0800
0800
0800
0FC0
FFC0
0FC0
0C00
0C00
0C00
0C00
0C00
0C00
0C00
0C00
ENDCHAR
STARTCHAR uni2547
ENCODING 9543
SWIDTH 602 0
DWIDTH 10 0
BBX 10 19 0 -4
BITMAP
0C00
0C00
0C00
0C00
0C00
0C00
0C00
0C00
FFC0
FFC0
FFC0
0800
0800
0800
0800
0800
0800
0800
0800
ENDCHAR
STARTCHAR uni2548
ENCODING 9544
SWIDTH 602 0
DWIDTH 10 0
BBX 10 19 0 -4
BITMAP
0800
0800
0800
0800
0800
0800
0800
0800
FFC0
FFC0
FFC0
0C00
0C00
0C00
0C00
0C00
0C00
0C00
0C00
ENDCHAR
STARTCHAR uni2549
ENCODING 9545
SWIDTH 602 0
DWIDTH 10 0
BBX 10 19 0 -4
BITMAP
0C00
0C00
0C00
0C00
0C00
0C00
0C00
0C00
FC00
FFC0
FC00
0C00
0C00
0C00
0C00
0C00
0C00
0C00
0C00
ENDCHAR
STARTCHAR uni254A
ENCODING 9546
SWIDTH 602 0
DWIDTH 10 0
BBX 10 19 0 -4
BITMAP
0C00
0C00
0C00
0C00
0C00
0C00
0C00
0C00
0FC0
FFC0
0FC0
0C00
0C00
0C00
0C00
0C00
0C00
0C00
0C00
ENDCHAR
STARTCHAR uni254B
ENCODING 9547
SWIDTH 602 0
DWIDTH 10 0
BBX 10 19 0 -4
BITMAP
0C00
0C00
0C00
0C00
0C00
0C00
0C00
0C00
FFC0
FFC0
FFC0
0C00
0C00
0C00
0C00
0C00
0C00
0C00
0C00
ENDCHAR
STARTCHAR uni254C
ENCODING 9548
SWIDTH 602 0
DWIDTH 10 0
BBX 9 1 0 5
BITMAP
F780
ENDCHAR
STARTCHAR uni254D
ENCODING 9549
SWIDTH 602 0
DWIDTH 10 0
BBX 9 3 0 4
BITMAP
F780
F780
F780
ENDCHAR
STARTCHAR uni254E
ENCODING 9550
SWIDTH 602 0
DWIDTH 10 0
BBX 1 16 4 -2
BITMAP
80
80
80
80
80
80
80
00
00
80
80
80
80
80
80
80
ENDCHAR
STARTCHAR uni254F
ENCODING 9551
SWIDTH 602 0
DWIDTH 10 0
BBX 2 16 4 -2
BITMAP
C0
C0
C0
C0
C0
C0
C0
00
00
C0
C0
C0
C0
C0
C0
C0
ENDCHAR
STARTCHAR uni2550
ENCODING 9552
SWIDTH 602 0
DWIDTH 10 0
BBX 10 4 0 4
BITMAP
FFC0
0000
0000
FFC0
ENDCHAR
STARTCHAR uni2551
ENCODING 9553
SWIDTH 602 0
DWIDTH 10 0
BBX 4 19 3 -4
BITMAP
B0
B0
B0
B0
B0
B0
B0
B0
B0
B0
B0
B0
B0
B0
B0
B0
B0
B0
B0
ENDCHAR
STARTCHAR uni2552
ENCODING 9554
SWIDTH 602 0
DWIDTH 10 0
BBX 6 12 4 -4
BITMAP
FC
80
80
FC
80
80
80
80
80
80
80
80
ENDCHAR
STARTCHAR uni2553
ENCODING 9555
SWIDTH 602 0
DWIDTH 10 0
BBX 7 10 3 -4
BITMAP
FE
B0
B0
B0
B0
B0
B0
B0
B0
B0
ENDCHAR
STARTCHAR uni2554
ENCODING 9556
SWIDTH 602 0
DWIDTH 10 0
BBX 7 12 3 -4
BITMAP
FE
80
80
BE
B0
B0
B0
B0
B0
B0
B0
B0
ENDCHAR
STARTCHAR uni2555
ENCODING 9557
SWIDTH 602 0
DWIDTH 10 0
BBX 5 12 0 -4
BITMAP
F8
08
08
F8
08
08
08
08
08
08
08
08
ENDCHAR
STARTCHAR uni2556
ENCODING 9558
SWIDTH 602 0
DWIDTH 10 0
BBX 7 10 0 -4
BITMAP
FE
16
16
16
16
16
16
16
16
16
ENDCHAR
STARTCHAR uni2557
ENCODING 9559
SWIDTH 602 0
DWIDTH 10 0
BBX 7 12 0 -4
BITMAP
FE
06
06
F6
16
16
16
16
16
16
16
16
ENDCHAR
STARTCHAR uni2558
ENCODING 9560
SWIDTH 602 0
DWIDTH 10 0
BBX 6 12 4 3
BITMAP
80
80
80
80
80
80
80
80
FC
80
80
FC
ENDCHAR
STARTCHAR uni2559
ENCODING 9561
SWIDTH 602 0
DWIDTH 10 0
BBX 7 10 3 5
BITMAP
B0
B0
B0
B0
B0
B0
B0
B0
B0
FE
ENDCHAR
STARTCHAR uni255A
ENCODING 9562
SWIDTH 602 0
DWIDTH 10 0
BBX 7 12 3 3
BITMAP
B0
B0
B0
B0
B0
B0
B0
B0
BE
80
80
FE
ENDCHAR
STARTCHAR uni255B
ENCODING 9563
SWIDTH 602 0
DWIDTH 10 0
BBX 5 12 0 3
BITMAP
08
08
08
08
08
08
08
08
F8
08
08
F8
ENDCHAR
STARTCHAR uni255C
ENCODING 9564
SWIDTH 602 0
DWIDTH 10 0
BBX 7 10 0 5
BITMAP
16
16
16
16
16
16
16
16
16
FE
ENDCHAR
STARTCHAR uni255D
ENCODING 9565
SWIDTH 602 0
DWIDTH 10 0
BBX 7 12 0 3
BITMAP
16
16
16
16
16
16
16
16
F6
06
06
FE
ENDCHAR
STARTCHAR uni255E
ENCODING 9566
SWIDTH 602 0
DWIDTH 10 0
BBX 6 19 4 -4
BITMAP
80
80
80
80
80
80
80
FC
80
80
FC
80
80
80
80
80
80
80
80
ENDCHAR
STARTCHAR uni255F
ENCODING 9567
SWIDTH 602 0
DWIDTH 10 0
BBX 7 19 3 -4
BITMAP
B0
B0
B0
B0
B0
B0
B0
B0
B0
BE
B0
B0
B0
B0
B0
B0
B0
B0
B0
ENDCHAR
STARTCHAR uni2560
ENCODING 9568
SWIDTH 602 0
DWIDTH 10 0
BBX 7 19 3 -4
BITMAP
B0
B0
B0
B0
B0
B0
B0
BE
80
80
BE
B0
B0
B0
B0
B0
B0
B0
B0
ENDCHAR
STARTCHAR uni2561
ENCODING 9569
SWIDTH 602 0
DWIDTH 10 0
BBX 5 19 0 -4
BITMAP
08
08
08
08
08
08
08
F8
08
08
F8
08
08
08
08
08
08
08
08
ENDCHAR
STARTCHAR uni2562
ENCODING 9570
SWIDTH 602 0
DWIDTH 10 0
BBX 7 19 0 -4
BITMAP
16
16
16
16
16
16
16
16
16
F6
16
16
16
16
16
16
16
16
16
ENDCHAR
STARTCHAR uni2563
ENCODING 9571
SWIDTH 602 0
DWIDTH 10 0
BBX 7 19 0 -4
BITMAP
16
16
16
16
16
16
16
F6
06
06
F6
16
16
16
16
16
16
16
16
ENDCHAR
STARTCHAR uni2564
ENCODING 9572
SWIDTH 602 0
DWIDTH 10 0
BBX 10 12 0 -4
BITMAP
FFC0
0000
0000
FFC0
0800
0800
0800
0800
0800
0800
0800
0800
ENDCHAR
STARTCHAR uni2565
ENCODING 9573
SWIDTH 602 0
DWIDTH 10 0
BBX 10 10 0 -4
BITMAP
FFC0
1600
1600
1600
1600
1600
1600
1600
1600
1600
ENDCHAR
STARTCHAR uni2566
ENCODING 9574
SWIDTH 602 0
DWIDTH 10 0
BBX 10 12 0 -4
BITMAP
FFC0
0000
0000
F7C0
1600
1600
1600
1600
1600
1600
1600
1600
ENDCHAR
STARTCHAR uni2567
ENCODING 9575
SWIDTH 602 0
DWIDTH 10 0
BBX 10 12 0 3
BITMAP
0800
0800
0800
0800
0800
0800
0800
0800
FFC0
0000
0000
FFC0
ENDCHAR
STARTCHAR uni2568
ENCODING 9576
SWIDTH 602 0
DWIDTH 10 0
BBX 10 10 0 5
BITMAP
1600
1600
1600
1600
1600
1600
1600
1600
1600
FFC0
ENDCHAR
STARTCHAR uni2569
ENCODING 9577
SWIDTH 602 0
DWIDTH 10 0
BBX 10 12 0 3
BITMAP
1600
1600
1600
1600
1600
1600
1600
1600
F7C0
0000
0000
FFC0
ENDCHAR
STARTCHAR uni256A
ENCODING 9578
SWIDTH 602 0
DWIDTH 10 0
BBX 10 19 0 -4
BITMAP
0800
0800
0800
0800
0800
0800
0800
FFC0
0800
0800
FFC0
0800
0800
0800
0800
0800
0800
0800
0800
ENDCHAR
STARTCHAR uni256B
ENCODING 9579
SWIDTH 602 0
DWIDTH 10 0
BBX 10 19 0 -4
BITMAP
1600
1600
1600
1600
1600
1600
1600
1600
1600
FFC0
1600
1600
1600
1600
1600
1600
1600
1600
1600
ENDCHAR
STARTCHAR uni256C
ENCODING 9580
SWIDTH 602 0
DWIDTH 10 0
BBX 10 19 0 -4
BITMAP
1600
1600
1600
1600
1600
1600
1600
F7C0
0000
0000
F7C0
1600
1600
1600
1600
1600
1600
1600
1600
ENDCHAR
STARTCHAR uni256D
ENCODING 9581
SWIDTH 602 0
DWIDTH 10 0
BBX 6 10 4 -4
BITMAP
7C
40
80
80
80
80
80
80
80
80
ENDCHAR
STARTCHAR uni256E
ENCODING 9582
SWIDTH 602 0
DWIDTH 10 0
BBX 5 10 0 -4
BITMAP
F0
08
08
08
08
08
08
08
08
08
ENDCHAR
STARTCHAR uni256F
ENCODING 9583
SWIDTH 602 0
DWIDTH 10 0
BBX 5 10 0 5
BITMAP
08
08
08
08
08
08
08
08
08
F8
ENDCHAR
STARTCHAR uni2570
ENCODING 9584
SWIDTH 602 0
DWIDTH 10 0
BBX 6 10 4 5
BITMAP
80
80
80
80
80
80
80
80
C0
7C
ENDCHAR
STARTCHAR uni2571
ENCODING 9585
SWIDTH 602 0
DWIDTH 10 0
BBX 11 19 -1 -4
BITMAP
0020
0060
0040
00C0
0080
0180
0100
0300
0200
0600
0400
0C00
0800
1000
1000
2000
2000
4000
C000
ENDCHAR
STARTCHAR uni2572
ENCODING 9586
SWIDTH 602 0
DWIDTH 10 0
BBX 11 19 -1 -4
BITMAP
C000
4000
2000
2000
1000
1000
0800
0C00
0400
0600
0200
0300
0100
0180
0080
00C0
0040
0060
0020
ENDCHAR
STARTCHAR uni2573
ENCODING 9587
SWIDTH 602 0
DWIDTH 10 0
BBX 11 19 -1 -4
BITMAP
C020
4060
2040
20C0
1080
1180
0900
0B00
0600
0600
0600
0E00
0900
1900
1080
30C0
2040
4060
C020
ENDCHAR
STARTCHAR uni2574
ENCODING 9588
SWIDTH 602 0
DWIDTH 10 0
BBX 5 1 0 5
BITMAP
F8
ENDCHAR
STARTCHAR uni2575
ENCODING 9589
SWIDTH 602 0
DWIDTH 10 0
BBX 1 10 4 5
BITMAP
80
80
80
80
80
80
80
80
80
80
ENDCHAR
STARTCHAR uni2576
ENCODING 9590
SWIDTH 602 0
DWIDTH 10 0
BBX 5 1 5 5
BITMAP
F8
ENDCHAR
STARTCHAR uni2577
ENCODING 9591
SWIDTH 602 0
DWIDTH 10 0
BBX 1 10 4 -4
BITMAP
80
80
80
80
80
80
80
80
80
80
ENDCHAR
STARTCHAR uni2578
ENCODING 9592
SWIDTH 602 0
DWIDTH 10 0
BBX 5 3 0 4
BITMAP
F8
F8
F8
ENDCHAR
STARTCHAR uni2579
ENCODING 9593
SWIDTH 602 0
DWIDTH 10 0
BBX 2 10 4 5
BITMAP
C0
C0
C0
C0
C0
C0
C0
C0
C0
C0
ENDCHAR
STARTCHAR uni257A
ENCODING 9594
SWIDTH 602 0
DWIDTH 10 0
BBX 5 3 5 4
BITMAP
F8
F8
F8
ENDCHAR
STARTCHAR uni257B
ENCODING 9595
SWIDTH 602 0
DWIDTH 10 0
BBX 2 10 4 -4
BITMAP
C0
C0
C0
C0
C0
C0
C0
C0
C0
C0
ENDCHAR
STARTCHAR uni257C
ENCODING 9596
SWIDTH 602 0
DWIDTH 10 0
BBX 10 3 0 4
BITMAP
07C0
FFC0
07C0
ENDCHAR
STARTCHAR uni257D
ENCODING 9597
SWIDTH 602 0
DWIDTH 10 0
BBX 2 19 4 -4
BITMAP
80
80
80
80
80
80
80
80
80
C0
C0
C0
C0
C0
C0
C0
C0
C0
C0
ENDCHAR
STARTCHAR uni257E
ENCODING 9598
SWIDTH 602 0
DWIDTH 10 0
BBX 10 3 0 4
BITMAP
F800
FFC0
F800
ENDCHAR
STARTCHAR uni257F
ENCODING 9599
SWIDTH 602 0
DWIDTH 10 0
BBX 2 19 4 -4
BITMAP
C0
C0
C0
C0
C0
C0
C0
C0
C0
C0
80
80
80
80
80
80
80
80
80
ENDCHAR
STARTCHAR uni2580
ENCODING 9600
SWIDTH 602 0
DWIDTH 10 0
BBX 10 10 0 5
BITMAP
FFC0
FFC0
FFC0
FFC0
FFC0
FFC0
FFC0
FFC0
FFC0
FFC0
ENDCHAR
STARTCHAR uni2581
ENCODING 9601
SWIDTH 602 0
DWIDTH 10 0
BBX 10 2 0 -4
BITMAP
FFC0
FFC0
ENDCHAR
STARTCHAR uni2582
ENCODING 9602
SWIDTH 602 0
DWIDTH 10 0
BBX 10 5 0 -4
BITMAP
FFC0
FFC0
FFC0
FFC0
FFC0
ENDCHAR
STARTCHAR uni2583
ENCODING 9603
SWIDTH 602 0
DWIDTH 10 0
BBX 10 7 0 -4
BITMAP
FFC0
FFC0
FFC0
FFC0
FFC0
FFC0
FFC0
ENDCHAR
STARTCHAR uni2584
ENCODING 9604
SWIDTH 602 0
DWIDTH 10 0
BBX 10 10 0 -4
BITMAP
FFC0
FFC0
FFC0
FFC0
FFC0
FFC0
FFC0
FFC0
FFC0
FFC0
ENDCHAR
STARTCHAR uni2585
ENCODING 9605
SWIDTH 602 0
DWIDTH 10 0
BBX 10 12 0 -4
BITMAP
FFC0
FFC0
FFC0
FFC0
FFC0
FFC0
FFC0
FFC0
FFC0
FFC0
FFC0
FFC0
ENDCHAR
STARTCHAR uni2586
ENCODING 9606
SWIDTH 602 0
DWIDTH 10 0
BBX 10 14 0 -4
BITMAP
FFC0
FFC0
FFC0
FFC0
FFC0
FFC0
FFC0
FFC0
FFC0
FFC0
FFC0
FFC0
FFC0
FFC0
ENDCHAR
STARTCHAR uni2587
ENCODING 9607
SWIDTH 602 0
DWIDTH 10 0
BBX 10 16 0 -4
BITMAP
FFC0
FFC0
FFC0
FFC0
FFC0
FFC0
FFC0
FFC0
FFC0
FFC0
FFC0
FFC0
FFC0
FFC0
FFC0
FFC0
ENDCHAR
STARTCHAR uni2588
ENCODING 9608
SWIDTH 602 0
DWIDTH 10 0
BBX 10 19 0 -4
BITMAP
FFC0
FFC0
FFC0
FFC0
FFC0
FFC0
FFC0
FFC0
FFC0
FFC0
FFC0
FFC0
FFC0
FFC0
FFC0
FFC0
FFC0
FFC0
FFC0
ENDCHAR
STARTCHAR uni2589
ENCODING 9609
SWIDTH 602 0
DWIDTH 10 0
BBX 9 19 0 -4
BITMAP
FF80
FF80
FF80
FF80
FF80
FF80
FF80
FF80
FF80
FF80
FF80
FF80
FF80
FF80
FF80
FF80
FF80
FF80
FF80
ENDCHAR
STARTCHAR uni258A
ENCODING 9610
SWIDTH 602 0
DWIDTH 10 0
BBX 7 19 0 -4
BITMAP
FE
FE
FE
FE
FE
FE
FE
FE
FE
FE
FE
FE
FE
FE
FE
FE
FE
FE
FE
ENDCHAR
STARTCHAR uni258B
ENCODING 9611
SWIDTH 602 0
DWIDTH 10 0
BBX 6 19 0 -4
BITMAP
FC
FC
FC
FC
FC
FC
FC
FC
FC
FC
FC
FC
FC
FC
FC
FC
FC
FC
FC
ENDCHAR
STARTCHAR uni258C
ENCODING 9612
SWIDTH 602 0
DWIDTH 10 0
BBX 5 19 0 -4
BITMAP
F8
F8
F8
F8
F8
F8
F8
F8
F8
F8
F8
F8
F8
F8
F8
F8
F8
F8
F8
ENDCHAR
STARTCHAR uni258D
ENCODING 9613
SWIDTH 602 0
DWIDTH 10 0
BBX 4 19 0 -4
BITMAP
F0
F0
F0
F0
F0
F0
F0
F0
F0
F0
F0
F0
F0
F0
F0
F0
F0
F0
F0
ENDCHAR
STARTCHAR uni258E
ENCODING 9614
SWIDTH 602 0
DWIDTH 10 0
BBX 2 19 0 -4
BITMAP
C0
C0
C0
C0
C0
C0
C0
C0
C0
C0
C0
C0
C0
C0
C0
C0
C0
C0
C0
ENDCHAR
STARTCHAR uni258F
ENCODING 9615
SWIDTH 602 0
DWIDTH 10 0
BBX 1 19 0 -4
BITMAP
80
80
80
80
80
80
80
80
80
80
80
80
80
80
80
80
80
80
80
ENDCHAR
STARTCHAR uni2590
ENCODING 9616
SWIDTH 602 0
DWIDTH 10 0
BBX 5 19 5 -4
BITMAP
F8
F8
F8
F8
F8
F8
F8
F8
F8
F8
F8
F8
F8
F8
F8
F8
F8
F8
F8
ENDCHAR
STARTCHAR uni2591
ENCODING 9617
SWIDTH 602 0
DWIDTH 10 0
BBX 8 19 0 -4
BITMAP
84
00
00
31
00
84
00
00
31
00
84
00
00
31
00
84
00
00
31
ENDCHAR
STARTCHAR uni2592
ENCODING 9618
SWIDTH 602 0
DWIDTH 10 0
BBX 10 19 0 -4
BITMAP
DB00
DB00
24C0
24C0
DB00
DB00
24C0
24C0
DB00
DB00
24C0
DB00
DB00
24C0
24C0
DB00
DB00
24C0
24C0
ENDCHAR
STARTCHAR uni2593
ENCODING 9619
SWIDTH 602 0
DWIDTH 10 0
BBX 10 19 0 -4
BITMAP
7BC0
7BC0
CEC0
CEC0
FFC0
7BC0
7BC0
CEC0
CEC0
FFC0
7BC0
7BC0
CEC0
CEC0
FFC0
7BC0
7BC0
CEC0
CEC0
ENDCHAR
STARTCHAR uni2594
ENCODING 9620
SWIDTH 602 0
DWIDTH 10 0
BBX 10 3 0 12
BITMAP
FFC0
FFC0
FFC0
ENDCHAR
STARTCHAR uni2595
ENCODING 9621
SWIDTH 602 0
DWIDTH 10 0
BBX 1 19 9 -4
BITMAP
80
80
80
80
80
80
80
80
80
80
80
80
80
80
80
80
80
80
80
ENDCHAR
STARTCHAR uni2596
ENCODING 9622
SWIDTH 602 0
DWIDTH 10 0
BBX 5 10 0 -4
BITMAP
F8
F8
F8
F8
F8
F8
F8
F8
F8
F8
ENDCHAR
STARTCHAR uni2597
ENCODING 9623
SWIDTH 602 0
DWIDTH 10 0
BBX 5 10 5 -4
BITMAP
F8
F8
F8
F8
F8
F8
F8
F8
F8
F8
ENDCHAR
STARTCHAR uni2598
ENCODING 9624
SWIDTH 602 0
DWIDTH 10 0
BBX 5 10 0 5
BITMAP
F8
F8
F8
F8
F8
F8
F8
F8
F8
F8
ENDCHAR
STARTCHAR uni2599
ENCODING 9625
SWIDTH 602 0
DWIDTH 10 0
BBX 10 19 0 -4
BITMAP
F800
F800
F800
F800
F800
F800
F800
F800
F800
FFC0
FFC0
FFC0
FFC0
FFC0
FFC0
FFC0
FFC0
FFC0
FFC0
ENDCHAR
STARTCHAR uni259A
ENCODING 9626
SWIDTH 602 0
DWIDTH 10 0
BBX 10 19 0 -4
BITMAP
F800
F800
F800
F800
F800
F800
F800
F800
F800
FFC0
07C0
07C0
07C0
07C0
07C0
07C0
07C0
07C0
07C0
ENDCHAR
STARTCHAR uni259B
ENCODING 9627
SWIDTH 602 0
DWIDTH 10 0
BBX 10 19 0 -4
BITMAP
FFC0
FFC0
FFC0
FFC0
FFC0
FFC0
FFC0
FFC0
FFC0
FFC0
F800
F800
F800
F800
F800
F800
F800
F800
F800
ENDCHAR
STARTCHAR uni259C
ENCODING 9628
SWIDTH 602 0
DWIDTH 10 0
BBX 10 19 0 -4
BITMAP
FFC0
FFC0
FFC0
FFC0
FFC0
FFC0
FFC0
FFC0
FFC0
FFC0
07C0
07C0
07C0
07C0
07C0
07C0
07C0
07C0
07C0
ENDCHAR
STARTCHAR uni259D
ENCODING 9629
SWIDTH 602 0
DWIDTH 10 0
BBX 5 10 5 5
BITMAP
F8
F8
F8
F8
F8
F8
F8
F8
F8
F8
ENDCHAR
STARTCHAR uni259E
ENCODING 9630
SWIDTH 602 0
DWIDTH 10 0
BBX 10 19 0 -4
BITMAP
07C0
07C0
07C0
07C0
07C0
07C0
07C0
07C0
07C0
FFC0
F800
F800
F800
F800
F800
F800
F800
F800
F800
ENDCHAR
STARTCHAR uni259F
ENCODING 9631
SWIDTH 602 0
DWIDTH 10 0
BBX 10 19 0 -4
BITMAP
07C0
07C0
07C0
07C0
07C0
07C0
07C0
07C0
07C0
FFC0
FFC0
FFC0
FFC0
FFC0
FFC0
FFC0
FFC0
FFC0
FFC0
ENDCHAR
STARTCHAR uni25A0
ENCODING 9632
SWIDTH 602 0
DWIDTH 10 0
BBX 10 10 0 -1
BITMAP
FFC0
FFC0
FFC0
FFC0
FFC0
FFC0
FFC0
FFC0
FFC0
FFC0
ENDCHAR
STARTCHAR uni25A1
ENCODING 9633
SWIDTH 602 0
DWIDTH 10 0
BBX 10 10 0 -1
BITMAP
FFC0
8040
8040
8040
8040
8040
8040
8040
8040
FFC0
ENDCHAR
STARTCHAR uni25A2
ENCODING 9634
SWIDTH 602 0
DWIDTH 10 0
BBX 10 10 0 -1
BITMAP
7F80
C080
8040
8040
8040
8040
8040
8040
8080
7F80
ENDCHAR
STARTCHAR uni25A3
ENCODING 9635
SWIDTH 602 0
DWIDTH 10 0
BBX 10 10 0 -1
BITMAP
FFC0
8040
BF40
BF40
BF40
BF40
BF40
BF40
8040
FFC0
ENDCHAR
STARTCHAR uni25A4
ENCODING 9636
SWIDTH 602 0
DWIDTH 10 0
BBX 10 10 0 -1
BITMAP
FFC0
8040
FFC0
8040
FFC0
FFC0
8040
FFC0
8040
FFC0
ENDCHAR
STARTCHAR uni25A5
ENCODING 9637
SWIDTH 602 0
DWIDTH 10 0
BBX 10 10 0 -1
BITMAP
FFC0
B540
B540
B540
B540
B540
B540
B540
B540
FFC0
ENDCHAR
STARTCHAR uni25A6
ENCODING 9638
SWIDTH 602 0
DWIDTH 10 0
BBX 10 10 0 -1
BITMAP
FFC0
B540
FFC0
B540
FFC0
FFC0
B540
FFC0
B540
FFC0
ENDCHAR
STARTCHAR uni25A7
ENCODING 9639
SWIDTH 602 0
DWIDTH 10 0
BBX 10 10 0 -1
BITMAP
FFC0
AD40
D6C0
EB40
B5C0
DAC0
AD40
D6C0
AB40
FFC0
ENDCHAR
STARTCHAR uni25A8
ENCODING 9640
SWIDTH 602 0
DWIDTH 10 0
BBX 10 10 0 -1
BITMAP
FFC0
A940
D2C0
A540
CAC0
95C0
AB40
D6C0
AD40
FFC0
ENDCHAR
STARTCHAR uni25A9
ENCODING 9641
SWIDTH 602 0
DWIDTH 10 0
BBX 10 10 0 -1
BITMAP
FFC0
AD40
D6C0
EF40
FFC0
DFC0
AF40
D6C0
AF40
FFC0
ENDCHAR
STARTCHAR uni25AA
ENCODING 9642
SWIDTH 602 0
DWIDTH 10 0
BBX 6 6 2 1
BITMAP
FC
FC
FC
FC
FC
FC
ENDCHAR
STARTCHAR uni25AB
ENCODING 9643
SWIDTH 602 0
DWIDTH 10 0
BBX 6 6 2 1
BITMAP
FC
84
84
84
84
FC
ENDCHAR
STARTCHAR uni25AC
ENCODING 9644
SWIDTH 602 0
DWIDTH 10 0
BBX 10 5 0 2
BITMAP
FFC0
FFC0
FFC0
FFC0
FFC0
ENDCHAR
STARTCHAR uni25AD
ENCODING 9645
SWIDTH 602 0
DWIDTH 10 0
BBX 10 5 0 2
BITMAP
FFC0
8040
8040
8040
FFC0
ENDCHAR
STARTCHAR uni25AE
ENCODING 9646
SWIDTH 602 0
DWIDTH 10 0
BBX 4 10 3 -1
BITMAP
F0
F0
F0
F0
F0
F0
F0
F0
F0
F0
ENDCHAR
STARTCHAR uni25AF
ENCODING 9647
SWIDTH 602 0
DWIDTH 10 0
BBX 4 10 3 -1
BITMAP
F0
90
90
90
90
90
90
90
90
F0
ENDCHAR
STARTCHAR uni25B0
ENCODING 9648
SWIDTH 602 0
DWIDTH 10 0
BBX 10 5 0 2
BITMAP
3FC0
3F80
7F00
7F00
FE00
ENDCHAR
STARTCHAR uni25B1
ENCODING 9649
SWIDTH 602 0
DWIDTH 10 0
BBX 10 5 0 2
BITMAP
3FC0
2080
4100
4100
FF00
ENDCHAR
STARTCHAR uni25B2
ENCODING 9650
SWIDTH 602 0
DWIDTH 10 0
BBX 10 10 0 -1
BITMAP
0800
0800
0C00
1C00
1E00
3E00
3F00
7F00
7F80
FFC0
ENDCHAR
STARTCHAR uni25B3
ENCODING 9651
SWIDTH 602 0
DWIDTH 10 0
BBX 10 9 0 -1
BITMAP
0800
0C00
1400
1200
2200
2100
4100
4080
FFC0
ENDCHAR
STARTCHAR uni25B4
ENCODING 9652
SWIDTH 602 0
DWIDTH 10 0
BBX 6 6 2 1
BITMAP
20
30
70
78
F8
FC
ENDCHAR
STARTCHAR uni25B5
ENCODING 9653
SWIDTH 602 0
DWIDTH 10 0
BBX 6 6 2 1
BITMAP
20
30
50
48
88
FC
ENDCHAR
STARTCHAR uni25B6
ENCODING 9654
SWIDTH 602 0
DWIDTH 10 0
BBX 10 10 0 -1
BITMAP
8000
E000
F800
FE00
FFC0
FF00
FC00
F000
C000
8000
ENDCHAR
STARTCHAR uni25B7
ENCODING 9655
SWIDTH 602 0
DWIDTH 10 0
BBX 10 10 0 -1
BITMAP
8000
E000
9800
8600
81C0
8300
8C00
B000
C000
8000
ENDCHAR
STARTCHAR uni25B8
ENCODING 9656
SWIDTH 602 0
DWIDTH 10 0
BBX 6 6 2 1
BITMAP
80
E0
FC
F8
E0
80
ENDCHAR
STARTCHAR uni25B9
ENCODING 9657
SWIDTH 602 0
DWIDTH 10 0
BBX 6 6 2 1
BITMAP
80
E0
9C
98
E0
80
ENDCHAR
STARTCHAR uni25BA
ENCODING 9658
SWIDTH 602 0
DWIDTH 10 0
BBX 10 6 0 1
BITMAP
C000
FC00
FFC0
FF00
F000
8000
ENDCHAR
STARTCHAR uni25BB
ENCODING 9659
SWIDTH 602 0
DWIDTH 10 0
BBX 10 6 0 1
BITMAP
C000
BC00
83C0
8700
F800
8000
ENDCHAR
STARTCHAR uni25BC
ENCODING 9660
SWIDTH 602 0
DWIDTH 10 0
BBX 10 10 0 -1
BITMAP
FFC0
7F80
7F00
3F00
3E00
1E00
1C00
0C00
0800
0800
ENDCHAR
STARTCHAR uni25BD
ENCODING 9661
SWIDTH 602 0
DWIDTH 10 0
BBX 10 10 0 -1
BITMAP
FFC0
4080
4100
2100
2200
1200
1400
0C00
0800
0800
ENDCHAR
STARTCHAR uni25BE
ENCODING 9662
SWIDTH 602 0
DWIDTH 10 0
BBX 6 6 2 1
BITMAP
FC
F8
78
70
30
20
ENDCHAR
STARTCHAR uni25BF
ENCODING 9663
SWIDTH 602 0
DWIDTH 10 0
BBX 6 7 2 0
BITMAP
FC
88
48
50
30
20
20
ENDCHAR
STARTCHAR uni25C0
ENCODING 9664
SWIDTH 602 0
DWIDTH 10 0
BBX 10 10 0 -1
BITMAP
0040
01C0
07C0
1FC0
FFC0
7FC0
1FC0
07C0
01C0
0040
ENDCHAR
STARTCHAR uni25C1
ENCODING 9665
SWIDTH 602 0
DWIDTH 10 0
BBX 10 10 0 -1
BITMAP
0040
01C0
0640
1840
E040
6040
1840
0640
01C0
0040
ENDCHAR
STARTCHAR uni25C2
ENCODING 9666
SWIDTH 602 0
DWIDTH 10 0
BBX 6 6 2 1
BITMAP
0C
3C
FC
7C
1C
04
ENDCHAR
STARTCHAR uni25C3
ENCODING 9667
SWIDTH 602 0
DWIDTH 10 0
BBX 6 6 2 1
BITMAP
0C
34
C4
64
1C
04
ENDCHAR
STARTCHAR uni25C4
ENCODING 9668
SWIDTH 602 0
DWIDTH 10 0
BBX 10 6 0 1
BITMAP
01C0
0FC0
FFC0
3FC0
07C0
00C0
ENDCHAR
STARTCHAR uni25C5
ENCODING 9669
SWIDTH 602 0
DWIDTH 10 0
BBX 10 6 0 1
BITMAP
01C0
0E40
F040
3840
0740
00C0
ENDCHAR
STARTCHAR uni25C6
ENCODING 9670
SWIDTH 602 0
DWIDTH 10 0
BBX 10 10 0 -1
BITMAP
0800
1C00
3E00
7F00
FFC0
7F80
3F00
1E00
0C00
0800
ENDCHAR
STARTCHAR uni25C7
ENCODING 9671
SWIDTH 602 0
DWIDTH 10 0
BBX 10 10 0 -1
BITMAP
0800
1C00
3200
6100
C0C0
4180
2300
1600
0C00
0800
ENDCHAR
STARTCHAR uni25C8
ENCODING 9672
SWIDTH 602 0
DWIDTH 10 0
BBX 10 10 0 -1
BITMAP
0800
1C00
3A00
7D00
FFC0
5E80
2D00
1A00
0C00
0800
ENDCHAR
STARTCHAR uni25C9
ENCODING 9673
SWIDTH 602 0
DWIDTH 10 0
BBX 10 10 0 -1
BITMAP
1E00
6300
5E80
BF80
BF40
BF40
BF80
5E80
6100
3E00
ENDCHAR
STARTCHAR uni25CA
ENCODING 9674
SWIDTH 602 0
DWIDTH 10 0
BBX 8 17 1 -4
BITMAP
10
10
18
28
24
44
42
82
81
82
42
44
24
28
18
10
10
ENDCHAR
STARTCHAR uni25CB
ENCODING 9675
SWIDTH 602 0
DWIDTH 10 0
BBX 10 10 0 -1
BITMAP
1E00
6300
4080
8080
8040
8040
8080
4080
6100
3E00
ENDCHAR
STARTCHAR uni25CC
ENCODING 9676
SWIDTH 602 0
DWIDTH 10 0
BBX 10 10 0 -1
BITMAP
0C00
2100
4080
0000
8040
8040
0000
4080
6100
0C00
ENDCHAR
STARTCHAR uni25CD
ENCODING 9677
SWIDTH 602 0
DWIDTH 10 0
BBX 10 10 0 -1
BITMAP
1E00
7700
7580
B580
B540
B540
B580
7580
7500
3E00
ENDCHAR
STARTCHAR uni25CE
ENCODING 9678
SWIDTH 602 0
DWIDTH 10 0
BBX 10 10 0 -1
BITMAP
1E00
6300
4080
8C80
9240
9240
9C80
4080
6100
3E00
ENDCHAR
STARTCHAR uni25CF
ENCODING 9679
SWIDTH 602 0
DWIDTH 10 0
BBX 10 10 0 -1
BITMAP
1E00
7F00
7F80
FF80
FFC0
FFC0
FF80
7F80
7F00
1E00
ENDCHAR
STARTCHAR uni25D0
ENCODING 9680
SWIDTH 602 0
DWIDTH 10 0
BBX 10 10 0 -1
BITMAP
1E00
7B00
7880
F880
F840
F840
F880
7880
7900
3E00
ENDCHAR
STARTCHAR uni25D1
ENCODING 9681
SWIDTH 602 0
DWIDTH 10 0
BBX 10 10 0 -1
BITMAP
1E00
6700
4780
8780
87C0
87C0
8780
4780
6700
3E00
ENDCHAR
STARTCHAR uni25D2
ENCODING 9682
SWIDTH 602 0
DWIDTH 10 0
BBX 10 10 0 -1
BITMAP
1E00
6300
4080
8080
8040
FFC0
FF80
7F80
7F00
1E00
ENDCHAR
STARTCHAR uni25D3
ENCODING 9683
SWIDTH 602 0
DWIDTH 10 0
BBX 10 10 0 -1
BITMAP
1E00
7F00
7F80
FF80
FFC0
8040
8080
4080
6100
3E00
ENDCHAR
STARTCHAR uni25D4
ENCODING 9684
SWIDTH 602 0
DWIDTH 10 0
BBX 10 10 0 -1
BITMAP
1E00
6700
4780
8780
87C0
8040
8080
4080
6100
3E00
ENDCHAR
STARTCHAR uni25D5
ENCODING 9685
SWIDTH 602 0
DWIDTH 10 0
BBX 10 10 0 -1
BITMAP
1E00
6700
4780
8780
87C0
FFC0
FF80
7F80
7F00
1E00
ENDCHAR
STARTCHAR uni25D6
ENCODING 9686
SWIDTH 602 0
DWIDTH 10 0
BBX 5 10 2 -1
BITMAP
18
38
78
78
F8
F8
78
78
38
18
ENDCHAR
STARTCHAR uni25D7
ENCODING 9687
SWIDTH 602 0
DWIDTH 10 0
BBX 5 10 2 -1
BITMAP
C0
F0
F8
F8
F8
F8
F8
F8
F0
C0
ENDCHAR
STARTCHAR uni25D8
ENCODING 9688
SWIDTH 602 0
DWIDTH 10 0
BBX 10 12 0 0
BITMAP
FFC0
FFC0
FFC0
FFC0
E3C0
E1C0
E1C0
E3C0
FFC0
FFC0
FFC0
FFC0
ENDCHAR
STARTCHAR uni25D9
ENCODING 9689
SWIDTH 602 0
DWIDTH 10 0
BBX 10 16 0 -4
BITMAP
FFC0
FFC0
FFC0
E1C0
9EC0
BF40
FF40
FFC0
FFC0
FF40
BF40
9EC0
E1C0
FFC0
FFC0
FFC0
ENDCHAR
STARTCHAR uni25DA
ENCODING 9690
SWIDTH 602 0
DWIDTH 10 0
BBX 10 8 0 4
BITMAP
FFC0
FFC0
FFC0
E1C0
9EC0
BF40
FF40
FFC0
ENDCHAR
STARTCHAR uni25DB
ENCODING 9691
SWIDTH 602 0
DWIDTH 10 0
BBX 10 8 0 -4
BITMAP
FFC0
FF40
BF40
9EC0
E1C0
FFC0
FFC0
FFC0
ENDCHAR
STARTCHAR uni25DC
ENCODING 9692
SWIDTH 602 0
DWIDTH 10 0
BBX 5 5 2 4
BITMAP
18
30
40
40
80
ENDCHAR
STARTCHAR uni25DD
ENCODING 9693
SWIDTH 602 0
DWIDTH 10 0
BBX 5 5 2 4
BITMAP
C0
30
18
08
08
ENDCHAR
STARTCHAR uni25DE
ENCODING 9694
SWIDTH 602 0
DWIDTH 10 0
BBX 5 5 2 -1
BITMAP
08
08
18
30
E0
ENDCHAR
STARTCHAR uni25DF
ENCODING 9695
SWIDTH 602 0
DWIDTH 10 0
BBX 5 5 2 -1
BITMAP
80
40
40
20
18
ENDCHAR
STARTCHAR uni25E0
ENCODING 9696
SWIDTH 602 0
DWIDTH 10 0
BBX 10 5 0 4
BITMAP
1E00
6300
4080
8080
8040
ENDCHAR
STARTCHAR uni25E1
ENCODING 9697
SWIDTH 602 0
DWIDTH 10 0
BBX 10 5 0 -1
BITMAP
8040
8080
4080
6100
3E00
ENDCHAR
STARTCHAR uni25E2
ENCODING 9698
SWIDTH 602 0
DWIDTH 10 0
BBX 10 10 0 -1
BITMAP
0040
0040
00C0
01C0
03C0
07C0
0FC0
1FC0
3FC0
FFC0
ENDCHAR
STARTCHAR uni25E3
ENCODING 9699
SWIDTH 602 0
DWIDTH 10 0
BBX 10 10 0 -1
BITMAP
8000
8000
C000
E000
F000
F800
FC00
FE00
FF00
FFC0
ENDCHAR
STARTCHAR uni25E4
ENCODING 9700
SWIDTH 602 0
DWIDTH 10 0
BBX 10 10 0 -1
BITMAP
FFC0
FF00
FE00
FC00
F800
F000
E000
C000
8000
8000
ENDCHAR
STARTCHAR uni25E5
ENCODING 9701
SWIDTH 602 0
DWIDTH 10 0
BBX 10 10 0 -1
BITMAP
FFC0
3FC0
1FC0
0FC0
07C0
03C0
01C0
00C0
0040
0040
ENDCHAR
STARTCHAR uni25E6
ENCODING 9702
SWIDTH 602 0
DWIDTH 10 0
BBX 5 5 2 3
BITMAP
70
48
88
48
70
ENDCHAR
STARTCHAR uni25E7
ENCODING 9703
SWIDTH 602 0
DWIDTH 10 0
BBX 10 10 0 -1
BITMAP
FFC0
F840
F840
F840
F840
F840
F840
F840
F840
FFC0
ENDCHAR
STARTCHAR uni25E8
ENCODING 9704
SWIDTH 602 0
DWIDTH 10 0
BBX 10 10 0 -1
BITMAP
FFC0
87C0
87C0
87C0
87C0
87C0
87C0
87C0
87C0
FFC0
ENDCHAR
STARTCHAR uni25E9
ENCODING 9705
SWIDTH 602 0
DWIDTH 10 0
BBX 10 10 0 -1
BITMAP
FFC0
FF40
FE40
FC40
F840
F040
E040
C040
8040
FFC0
ENDCHAR
STARTCHAR uni25EA
ENCODING 9706
SWIDTH 602 0
DWIDTH 10 0
BBX 10 10 0 -1
BITMAP
FFC0
80C0
81C0
83C0
87C0
8FC0
9FC0
BFC0
FFC0
FFC0
ENDCHAR
STARTCHAR uni25EB
ENCODING 9707
SWIDTH 602 0
DWIDTH 10 0
BBX 10 10 0 -1
BITMAP
FFC0
8840
8840
8840
8840
8840
8840
8840
8840
FFC0
ENDCHAR
STARTCHAR uni25EC
ENCODING 9708
SWIDTH 602 0
DWIDTH 10 0
BBX 10 9 0 -1
BITMAP
0800
0C00
1400
1200
2200
2D00
4D00
4080
FFC0
ENDCHAR
STARTCHAR uni25ED
ENCODING 9709
SWIDTH 602 0
DWIDTH 10 0
BBX 10 9 0 -1
BITMAP
0800
0C00
1C00
1A00
3A00
3900
7900
7880
FFC0
ENDCHAR
STARTCHAR uni25EE
ENCODING 9710
SWIDTH 602 0
DWIDTH 10 0
BBX 10 9 0 -1
BITMAP
0800
0C00
1400
1600
2600
2700
4700
4780
FFC0
ENDCHAR
STARTCHAR uni25EF
ENCODING 9711
SWIDTH 602 0
DWIDTH 10 0
BBX 10 10 0 -1
BITMAP
1E00
6300
C080
80C0
8040
8040
8040
C080
6180
3E00
ENDCHAR
STARTCHAR uni25F0
ENCODING 9712
SWIDTH 602 0
DWIDTH 10 0
BBX 10 10 0 -1
BITMAP
FFC0
8840
8840
8840
8840
F840
8040
8040
8040
FFC0
ENDCHAR
STARTCHAR uni25F1
ENCODING 9713
SWIDTH 602 0
DWIDTH 10 0
BBX 10 10 0 -1
BITMAP
FFC0
8040
8040
8040
8040
F840
8840
8840
8840
FFC0
ENDCHAR
STARTCHAR uni25F2
ENCODING 9714
SWIDTH 602 0
DWIDTH 10 0
BBX 10 10 0 -1
BITMAP
FFC0
8040
8040
8040
8040
8FC0
8840
8840
8840
FFC0
ENDCHAR
STARTCHAR uni25F3
ENCODING 9715
SWIDTH 602 0
DWIDTH 10 0
BBX 10 10 0 -1
BITMAP
FFC0
8840
8840
8840
8840
8FC0
8040
8040
8040
FFC0
ENDCHAR
STARTCHAR uni25F4
ENCODING 9716
SWIDTH 602 0
DWIDTH 10 0
BBX 10 10 0 -1
BITMAP
1E00
6900
4880
8880
F840
8040
8080
4080
6100
3E00
ENDCHAR
STARTCHAR uni25F5
ENCODING 9717
SWIDTH 602 0
DWIDTH 10 0
BBX 10 10 0 -1
BITMAP
1E00
6300
4080
8080
F840
8840
8880
4880
3B00
0C00
ENDCHAR
STARTCHAR uni25F6
ENCODING 9718
SWIDTH 602 0
DWIDTH 10 0
BBX 10 10 0 -1
BITMAP
1E00
6300
4080
8080
8FC0
8840
8880
4880
3B00
0C00
ENDCHAR
STARTCHAR uni25F7
ENCODING 9719
SWIDTH 602 0
DWIDTH 10 0
BBX 10 10 0 -1
BITMAP
1E00
6900
4880
8880
8FC0
8040
8080
4080
6300
3E00
ENDCHAR
STARTCHAR uni25F8
ENCODING 9720
SWIDTH 602 0
DWIDTH 10 0
BBX 10 10 0 -1
BITMAP
FFC0
8100
8200
8400
8800
9000
A000
C000
8000
8000
ENDCHAR
STARTCHAR uni25F9
ENCODING 9721
SWIDTH 602 0
DWIDTH 10 0
BBX 10 10 0 -1
BITMAP
FFC0
6040
3040
1840
0C40
0640
0340
01C0
00C0
0040
ENDCHAR
STARTCHAR uni25FA
ENCODING 9722
SWIDTH 602 0
DWIDTH 10 0
BBX 10 10 0 -1
BITMAP
8000
8000
C000
A000
9000
8800
8400
8200
8100
FFC0
ENDCHAR
STARTCHAR uni25FB
ENCODING 9723
SWIDTH 602 0
DWIDTH 10 0
BBX 8 8 1 0
BITMAP
FF
81
81
81
81
81
81
FF
ENDCHAR
STARTCHAR uni25FC
ENCODING 9724
SWIDTH 602 0
DWIDTH 10 0
BBX 8 8 1 0
BITMAP
FF
FF
FF
FF
FF
FF
FF
FF
ENDCHAR
STARTCHAR uni25FD
ENCODING 9725
SWIDTH 602 0
DWIDTH 10 0
BBX 7 7 1 1
BITMAP
FE
82
82
82
82
82
FE
ENDCHAR
STARTCHAR uni25FE
ENCODING 9726
SWIDTH 602 0
DWIDTH 10 0
BBX 7 7 1 1
BITMAP
FE
FE
FE
FE
FE
FE
FE
ENDCHAR
STARTCHAR uni25FF
ENCODING 9727
SWIDTH 602 0
DWIDTH 10 0
BBX 10 10 0 -1
BITMAP
0040
00C0
01C0
0140
0240
0440
0840
1040
2040
FFC0
ENDCHAR
STARTCHAR uni266A
ENCODING 9834
SWIDTH 602 0
DWIDTH 10 0
BBX 9 14 0 -2
BITMAP
0200
0300
0300
0280
0280
0280
0280
0200
0200
0200
7A00
FC00
7C00
7800
ENDCHAR
STARTCHAR uni2756
ENCODING 10070
SWIDTH 602 0
DWIDTH 10 0
BBX 9 9 0 0
BITMAP
0800
1C00
1E00
6B00
F780
6B00
3D00
1E00
0800
ENDCHAR
STARTCHAR uni2768
ENCODING 10088
SWIDTH 602 0
DWIDTH 10 0
BBX 6 12 2 -1
BITMAP
1C
38
60
E0
C0
C0
C0
C0
E0
60
30
1C
ENDCHAR
STARTCHAR uni2769
ENCODING 10089
SWIDTH 602 0
DWIDTH 10 0
BBX 6 12 2 0
BITMAP
80
60
30
18
18
1C
1C
1C
18
18
30
E0
ENDCHAR
STARTCHAR uni276A
ENCODING 10090
SWIDTH 602 0
DWIDTH 10 0
BBX 4 12 3 -1
BITMAP
70
60
E0
C0
C0
C0
C0
C0
C0
E0
60
70
ENDCHAR
STARTCHAR uni276B
ENCODING 10091
SWIDTH 602 0
DWIDTH 10 0
BBX 4 11 3 -1
BITMAP
C0
60
60
70
70
70
70
70
60
60
C0
ENDCHAR
STARTCHAR uni276C
ENCODING 10092
SWIDTH 602 0
DWIDTH 10 0
BBX 4 12 3 -1
BITMAP
30
20
60
40
C0
80
80
C0
40
60
20
30
ENDCHAR
STARTCHAR uni276D
ENCODING 10093
SWIDTH 602 0
DWIDTH 10 0
BBX 4 12 3 -1
BITMAP
80
C0
40
60
20
30
30
20
60
40
C0
80
ENDCHAR
STARTCHAR uni276E
ENCODING 10094
SWIDTH 602 0
DWIDTH 10 0
BBX 6 12 2 -1
BITMAP
1C
38
30
70
60
E0
C0
60
70
30
38
1C
ENDCHAR
STARTCHAR uni276F
ENCODING 10095
SWIDTH 602 0
DWIDTH 10 0
BBX 6 12 2 -1
BITMAP
E0
60
70
30
18
1C
1C
18
30
70
60
E0
ENDCHAR
STARTCHAR uni2770
ENCODING 10096
SWIDTH 602 0
DWIDTH 10 0
BBX 6 13 2 -1
BITMAP
1C
38
38
70
70
E0
E0
E0
70
70
38
38
1C
ENDCHAR
STARTCHAR uni2771
ENCODING 10097
SWIDTH 602 0
DWIDTH 10 0
BBX 6 13 2 -1
BITMAP
E0
F0
70
78
38
3C
1C
3C
38
78
70
F0
E0
ENDCHAR
STARTCHAR uni2772
ENCODING 10098
SWIDTH 602 0
DWIDTH 10 0
BBX 2 13 4 -2
BITMAP
40
80
80
80
80
80
80
80
80
80
80
80
40
ENDCHAR
STARTCHAR uni2773
ENCODING 10099
SWIDTH 602 0
DWIDTH 10 0
BBX 2 13 4 -2
BITMAP
80
C0
40
40
40
40
40
40
40
40
40
40
80
ENDCHAR
STARTCHAR uni2774
ENCODING 10100
SWIDTH 602 0
DWIDTH 10 0
BBX 5 13 2 -2
BITMAP
38
30
30
30
30
30
E0
30
30
30
30
30
38
ENDCHAR
STARTCHAR uni2775
ENCODING 10101
SWIDTH 602 0
DWIDTH 10 0
BBX 6 13 2 -2
BITMAP
E0
70
30
30
30
30
1C
30
30
30
30
30
E0
ENDCHAR
STARTCHAR uni2794
ENCODING 10132
SWIDTH 602 0
DWIDTH 10 0
BBX 8 5 1 3
BITMAP
1C
06
FF
06
1C
ENDCHAR
STARTCHAR uni2798
ENCODING 10136
SWIDTH 602 0
DWIDTH 10 0
BBX 8 8 1 1
BITMAP
40
C0
60
31
0A
06
0F
1F
ENDCHAR
STARTCHAR uni2799
ENCODING 10137
SWIDTH 602 0
DWIDTH 10 0
BBX 8 5 1 3
BITMAP
04
06
FF
06
04
ENDCHAR
STARTCHAR uni279A
ENCODING 10138
SWIDTH 602 0
DWIDTH 10 0
BBX 8 7 1 2
BITMAP
1F
07
0E
1A
30
60
C0
ENDCHAR
STARTCHAR uni279B
ENCODING 10139
SWIDTH 602 0
DWIDTH 10 0
BBX 9 5 0 3
BITMAP
1000
0C00
FF80
0C00
0800
ENDCHAR
STARTCHAR uni279C
ENCODING 10140
SWIDTH 602 0
DWIDTH 10 0
BBX 8 6 1 3
BITMAP
0C
06
FF
07
06
0C
ENDCHAR
STARTCHAR uni279D
ENCODING 10141
SWIDTH 602 0
DWIDTH 10 0
BBX 8 5 1 3
BITMAP
04
02
FF
02
04
ENDCHAR
STARTCHAR uni279E
ENCODING 10142
SWIDTH 602 0
DWIDTH 10 0
BBX 9 5 0 3
BITMAP
0200
0100
FF80
0100
0100
ENDCHAR
STARTCHAR uni279F
ENCODING 10143
SWIDTH 602 0
DWIDTH 10 0
BBX 9 5 0 3
BITMAP
0200
0100
FF80
FF80
0100
ENDCHAR
STARTCHAR uni27A0
ENCODING 10144
SWIDTH 602 0
DWIDTH 10 0
BBX 8 5 1 3
BITMAP
04
BE
BF
BE
04
ENDCHAR
STARTCHAR uni27A1
ENCODING 10145
SWIDTH 602 0
DWIDTH 10 0
BBX 8 4 1 3
BITMAP
02
FF
FE
04
ENDCHAR
STARTCHAR uni27A2
ENCODING 10146
SWIDTH 602 0
DWIDTH 10 0
BBX 8 6 1 3
BITMAP
80
70
2C
3F
60
80
ENDCHAR
STARTCHAR uni27A3
ENCODING 10147
SWIDTH 602 0
DWIDTH 10 0
BBX 8 6 1 3
BITMAP
80
60
3C
2F
70
80
ENDCHAR
STARTCHAR uni27A4
ENCODING 10148
SWIDTH 602 0
DWIDTH 10 0
BBX 8 8 1 2
BITMAP
80
40
70
3C
3F
78
60
80
ENDCHAR
STARTCHAR uni27A5
ENCODING 10149
SWIDTH 602 0
DWIDTH 10 0
BBX 9 5 0 3
BITMAP
8200
FF00
FF80
7F00
0200
ENDCHAR
STARTCHAR uni27A6
ENCODING 10150
SWIDTH 602 0
DWIDTH 10 0
BBX 9 5 0 4
BITMAP
0200
7F00
FF80
FF00
8200
ENDCHAR
STARTCHAR uni27A7
ENCODING 10151
SWIDTH 602 0
DWIDTH 10 0
BBX 4 8 3 2
BITMAP
40
20
E0
F0
F0
E0
20
40
ENDCHAR
STARTCHAR uni27A8
ENCODING 10152
SWIDTH 602 0
DWIDTH 10 0
BBX 9 5 0 3
BITMAP
0400
FE00
FF80
FE00
0400
ENDCHAR
STARTCHAR uni27A9
ENCODING 10153
SWIDTH 602 0
DWIDTH 10 0
BBX 8 6 1 2
BITMAP
0C
F6
83
F2
14
08
ENDCHAR
STARTCHAR uni27AA
ENCODING 10154
SWIDTH 602 0
DWIDTH 10 0
BBX 8 6 1 2
BITMAP
0C
FA
81
FA
0C
08
ENDCHAR
STARTCHAR uni27AB
ENCODING 10155
SWIDTH 602 0
DWIDTH 10 0
BBX 9 7 0 1
BITMAP
0100
3E80
4080
4180
FF80
0E00
0800
ENDCHAR
STARTCHAR uni27AC
ENCODING 10156
SWIDTH 602 0
DWIDTH 10 0
BBX 8 5 1 2
BITMAP
18
F6
8B
7D
02
ENDCHAR
STARTCHAR uni27AD
ENCODING 10157
SWIDTH 602 0
DWIDTH 10 0
BBX 8 7 1 2
BITMAP
08
F4
82
82
87
FE
08
ENDCHAR
STARTCHAR uni27AE
ENCODING 10158
SWIDTH 602 0
DWIDTH 10 0
BBX 8 8 1 1
BITMAP
08
FE
87
83
82
84
F4
08
ENDCHAR
STARTCHAR uni27AF
ENCODING 10159
SWIDTH 602 0
DWIDTH 10 0
BBX 9 6 0 3
BITMAP
0600
FD00
4080
4080
FF00
0600
ENDCHAR
STARTCHAR uni27B1
ENCODING 10161
SWIDTH 602 0
DWIDTH 10 0
BBX 9 7 0 2
BITMAP
0200
FF00
8180
4080
4080
FD00
0600
ENDCHAR
STARTCHAR uni27B2
ENCODING 10162
SWIDTH 602 0
DWIDTH 10 0
BBX 8 8 1 1
BITMAP
38
FE
06
02
03
06
FE
38
ENDCHAR
STARTCHAR uni27B3
ENCODING 10163
SWIDTH 602 0
DWIDTH 10 0
BBX 8 4 1 2
BITMAP
E2
A2
7F
E2
ENDCHAR
STARTCHAR uni27B4
ENCODING 10164
SWIDTH 602 0
DWIDTH 10 0
BBX 8 8 1 2
BITMAP
20
20
F0
78
38
18
05
07
ENDCHAR
STARTCHAR uni27B5
ENCODING 10165
SWIDTH 602 0
DWIDTH 10 0
BBX 8 3 1 4
BITMAP
F2
0F
F2
ENDCHAR
STARTCHAR uni27B6
ENCODING 10166
SWIDTH 602 0
DWIDTH 10 0
BBX 8 8 1 1
BITMAP
07
06
09
38
78
B0
20
20
ENDCHAR
STARTCHAR uni27B7
ENCODING 10167
SWIDTH 602 0
DWIDTH 10 0
BBX 8 8 1 2
BITMAP
60
B0
F8
70
38
05
03
07
ENDCHAR
STARTCHAR uni27B8
ENCODING 10168
SWIDTH 602 0
DWIDTH 10 0
BBX 9 3 0 2
BITMAP
FF80
7100
8100
ENDCHAR
STARTCHAR uni27B9
ENCODING 10169
SWIDTH 602 0
DWIDTH 10 0
BBX 8 8 1 1
BITMAP
07
02
05
38
70
F8
30
20
ENDCHAR
STARTCHAR uni27BA
ENCODING 10170
SWIDTH 602 0
DWIDTH 10 0
BBX 9 5 0 3
BITMAP
0600
0300
FE80
6100
0600
ENDCHAR
STARTCHAR uni27BB
ENCODING 10171
SWIDTH 602 0
DWIDTH 10 0
BBX 9 5 0 3
BITMAP
0100
7100
FF80
7100
0100
ENDCHAR
STARTCHAR uni27BC
ENCODING 10172
SWIDTH 602 0
DWIDTH 10 0
BBX 9 4 0 4
BITMAP
F900
7F80
7880
F900
ENDCHAR
STARTCHAR uni27BD
ENCODING 10173
SWIDTH 602 0
DWIDTH 10 0
BBX 9 5 0 3
BITMAP
FA00
7D00
7F80
7D80
FB00
ENDCHAR
STARTCHAR uni27BE
ENCODING 10174
SWIDTH 602 0
DWIDTH 10 0
BBX 9 6 0 1
BITMAP
0A00
0500
FC80
FD00
0500
0A00
ENDCHAR
STARTCHAR uni27C2
ENCODING 10178
SWIDTH 602 0
DWIDTH 10 0
BBX 8 10 1 0
BITMAP
10
10
10
10
10
10
10
10
10
FF
ENDCHAR
STARTCHAR uni27C5
ENCODING 10181
SWIDTH 602 0
DWIDTH 10 0
BBX 5 15 2 -3
BITMAP
70
50
10
10
10
20
20
60
40
40
40
C0
C0
60
38
ENDCHAR
STARTCHAR uni27C6
ENCODING 10182
SWIDTH 602 0
DWIDTH 10 0
BBX 5 15 2 -3
BITMAP
30
48
40
20
20
20
30
10
10
18
08
08
08
18
F0
ENDCHAR
STARTCHAR uni27DC
ENCODING 10204
SWIDTH 602 0
DWIDTH 10 0
BBX 9 4 0 3
BITMAP
7000
DF80
D800
7000
ENDCHAR
STARTCHAR uni27E0
ENCODING 10208
SWIDTH 602 0
DWIDTH 10 0
BBX 8 17 1 -4
BITMAP
10
10
18
28
24
44
42
82
FF
82
42
44
24
24
18
18
10
ENDCHAR
STARTCHAR uni27E6
ENCODING 10214
SWIDTH 602 0
DWIDTH 10 0
BBX 5 15 2 -3
BITMAP
F8
90
90
90
90
90
90
90
90
90
90
90
90
90
F8
ENDCHAR
STARTCHAR uni27E7
ENCODING 10215
SWIDTH 602 0
DWIDTH 10 0
BBX 5 15 2 -3
BITMAP
F8
28
28
28
28
28
28
28
28
28
28
28
28
28
F8
ENDCHAR
STARTCHAR uni27E8
ENCODING 10216
SWIDTH 602 0
DWIDTH 10 0
BBX 4 14 3 -2
BITMAP
30
20
60
60
40
40
C0
80
C0
40
40
60
20
30
ENDCHAR
STARTCHAR uni27E9
ENCODING 10217
SWIDTH 602 0
DWIDTH 10 0
BBX 4 14 3 -2
BITMAP
C0
40
40
40
60
20
20
30
20
20
60
40
40
C0
ENDCHAR
STARTCHAR uni27EA
ENCODING 10218
SWIDTH 602 0
DWIDTH 10 0
BBX 7 14 1 -2
BITMAP
12
36
24
24
6C
48
48
C8
48
4C
64
24
24
36
ENDCHAR
STARTCHAR uni27EB
ENCODING 10219
SWIDTH 602 0
DWIDTH 10 0
BBX 7 14 1 -2
BITMAP
C8
48
6C
24
24
26
32
12
36
24
24
64
4C
C8
ENDCHAR
STARTCHAR uni27F5
ENCODING 10229
SWIDTH 602 0
DWIDTH 10 0
BBX 11 5 -1 2
BITMAP
2000
4000
FFE0
4000
2000
ENDCHAR
STARTCHAR uni27F6
ENCODING 10230
SWIDTH 602 0
DWIDTH 10 0
BBX 11 5 -1 2
BITMAP
00C0
0060
FFE0
0060
00C0
ENDCHAR
STARTCHAR uni27F7
ENCODING 10231
SWIDTH 602 0
DWIDTH 10 0
BBX 11 5 -1 2
BITMAP
20C0
4060
FFE0
4060
20C0
ENDCHAR
STARTCHAR uni2987
ENCODING 10631
SWIDTH 602 0
DWIDTH 10 0
BBX 5 14 2 -2
BITMAP
08
38
28
48
48
C8
C8
C8
C8
48
48
28
38
08
ENDCHAR
STARTCHAR uni2988
ENCODING 10632
SWIDTH 602 0
DWIDTH 10 0
BBX 5 14 2 -2
BITMAP
C0
A0
90
98
88
88
88
88
88
88
98
90
A0
C0
ENDCHAR
STARTCHAR uni2997
ENCODING 10647
SWIDTH 602 0
DWIDTH 10 0
BBX 5 16 3 -3
BITMAP
10
18
20
60
E0
E0
E0
E0
E0
E0
E0
E0
60
20
18
10
ENDCHAR
STARTCHAR uni2998
ENCODING 10648
SWIDTH 602 0
DWIDTH 10 0
BBX 5 16 2 -3
BITMAP
80
C0
60
30
38
38
38
38
38
38
38
38
30
60
C0
80
ENDCHAR
STARTCHAR uni29EB
ENCODING 10731
SWIDTH 602 0
DWIDTH 10 0
BBX 8 17 1 -4
BITMAP
10
10
18
38
3C
7C
7E
FE
FF
FE
7E
7C
3C
38
18
10
10
ENDCHAR
STARTCHAR uni29FA
ENCODING 10746
SWIDTH 602 0
DWIDTH 10 0
BBX 8 8 1 1
BITMAP
24
24
24
FF
24
24
24
24
ENDCHAR
STARTCHAR uni29FB
ENCODING 10747
SWIDTH 602 0
DWIDTH 10 0
BBX 8 8 1 1
BITMAP
52
52
52
FF
52
52
52
52
ENDCHAR
STARTCHAR uni2A00
ENCODING 10752
SWIDTH 602 0
DWIDTH 10 0
BBX 8 16 1 -4
BITMAP
3C
66
C2
83
81
81
81
99
99
81
81
81
83
C2
66
3C
ENDCHAR
STARTCHAR uni2A2F
ENCODING 10799
SWIDTH 602 0
DWIDTH 10 0
BBX 7 8 1 1
BITMAP
42
C6
6C
38
38
6C
C6
42
ENDCHAR
STARTCHAR uni2A6A
ENCODING 10858
SWIDTH 602 0
DWIDTH 10 0
BBX 8 5 1 4
BITMAP
18
18
00
F1
9F
ENDCHAR
STARTCHAR uni2A6B
ENCODING 10859
SWIDTH 602 0
DWIDTH 10 0
BBX 8 8 1 1
BITMAP
06
06
00
F1
9F
00
60
60
ENDCHAR
STARTCHAR uni2B05
ENCODING 11013
SWIDTH 602 0
DWIDTH 10 0
BBX 8 4 1 3
BITMAP
40
FF
FF
40
ENDCHAR
STARTCHAR uni2B06
ENCODING 11014
SWIDTH 602 0
DWIDTH 10 0
BBX 5 8 2 1
BITMAP
30
F8
30
30
30
30
30
30
ENDCHAR
STARTCHAR uni2B07
ENCODING 11015
SWIDTH 602 0
DWIDTH 10 0
BBX 5 8 2 2
BITMAP
30
30
30
30
30
30
F8
30
ENDCHAR
STARTCHAR uni2B08
ENCODING 11016
SWIDTH 602 0
DWIDTH 10 0
BBX 7 7 1 2
BITMAP
1E
0E
1E
38
70
E0
40
ENDCHAR
STARTCHAR uni2B09
ENCODING 11017
SWIDTH 602 0
DWIDTH 10 0
BBX 7 7 2 2
BITMAP
E0
E0
F0
38
1C
0E
08
ENDCHAR
STARTCHAR uni2B0A
ENCODING 11018
SWIDTH 602 0
DWIDTH 10 0
BBX 7 7 2 2
BITMAP
40
E0
F0
78
3E
1E
1E
ENDCHAR
STARTCHAR uni2B0B
ENCODING 11019
SWIDTH 602 0
DWIDTH 10 0
BBX 7 7 1 2
BITMAP
04
0E
1C
38
F0
E0
F0
ENDCHAR
STARTCHAR uni2B0C
ENCODING 11020
SWIDTH 602 0
DWIDTH 10 0
BBX 8 4 1 3
BITMAP
42
FF
FE
44
ENDCHAR
STARTCHAR uni2B0D
ENCODING 11021
SWIDTH 602 0
DWIDTH 10 0
BBX 5 8 2 2
BITMAP
20
70
F8
30
30
30
F8
30
ENDCHAR
STARTCHAR uni2B16
ENCODING 11030
SWIDTH 602 0
DWIDTH 10 0
BBX 10 10 0 -1
BITMAP
0800
1C00
3A00
7900
F8C0
7880
3900
1A00
0C00
0800
ENDCHAR
STARTCHAR uni2B17
ENCODING 11031
SWIDTH 602 0
DWIDTH 10 0
BBX 10 10 0 -1
BITMAP
0800
1C00
3600
6700
C7C0
4780
2700
1600
0C00
0800
ENDCHAR
STARTCHAR uni2B18
ENCODING 11032
SWIDTH 602 0
DWIDTH 10 0
BBX 10 10 0 -1
BITMAP
0800
0C00
1E00
3F00
FFC0
4080
2100
1200
0C00
0800
ENDCHAR
STARTCHAR uni2B19
ENCODING 11033
SWIDTH 602 0
DWIDTH 10 0
BBX 10 10 0 -1
BITMAP
0800
0C00
1200
2100
C0C0
7F80
3F00
1E00
0C00
0800
ENDCHAR
STARTCHAR uni2B1A
ENCODING 11034
SWIDTH 602 0
DWIDTH 10 0
BBX 10 10 0 -1
BITMAP
D6C0
8040
0000
8040
0000
0000
8040
0000
8040
D6C0
ENDCHAR
STARTCHAR uni2E18
ENCODING 11800
SWIDTH 602 0
DWIDTH 10 0
BBX 6 12 2 -3
BITMAP
30
30
00
30
30
30
70
F0
B0
B0
FC
78
ENDCHAR
STARTCHAR uni2E1F
ENCODING 11807
SWIDTH 602 0
DWIDTH 10 0
BBX 8 5 1 1
BITMAP
F1
9F
00
18
18
ENDCHAR
STARTCHAR uni2E22
ENCODING 11810
SWIDTH 602 0
DWIDTH 10 0
BBX 3 6 4 6
BITMAP
E0
80
80
80
80
80
ENDCHAR
STARTCHAR uni2E23
ENCODING 11811
SWIDTH 602 0
DWIDTH 10 0
BBX 3 6 3 6
BITMAP
E0
20
20
20
20
20
ENDCHAR
STARTCHAR uni2E24
ENCODING 11812
SWIDTH 602 0
DWIDTH 10 0
BBX 3 5 4 -2
BITMAP
80
80
80
80
E0
ENDCHAR
STARTCHAR uni2E25
ENCODING 11813
SWIDTH 602 0
DWIDTH 10 0
BBX 3 5 3 -2
BITMAP
20
20
20
20
E0
ENDCHAR
STARTCHAR uni2E2E
ENCODING 11822
SWIDTH 602 0
DWIDTH 10 0
BBX 6 12 2 0
BITMAP
78
CC
80
80
C0
60
30
30
30
00
30
30
ENDCHAR
STARTCHAR uniE0A0
ENCODING 57504
SWIDTH 602 0
DWIDTH 10 0
BBX 7 16 2 -2
BITMAP
C0
C0
C8
DE
C8
C8
C8
C8
98
30
60
C0
C0
C0
C0
C0
ENDCHAR
STARTCHAR uniE0A1
ENCODING 57505
SWIDTH 602 0
DWIDTH 10 0
BBX 6 16 2 -2
BITMAP
80
80
80
80
80
80
F0
00
6C
6C
74
54
54
5C
4C
4C
ENDCHAR
STARTCHAR uniE0A2
ENCODING 57506
SWIDTH 602 0
DWIDTH 10 0
BBX 8 16 1 -2
BITMAP
38
64
46
46
46
46
FF
FF
E7
E7
EF
EF
EF
EF
FF
FF
ENDCHAR
STARTCHAR uniE0B0
ENCODING 57520
SWIDTH 602 0
DWIDTH 10 0
BBX 11 19 -1 -4
BITMAP
C000
E000
F000
F800
FC00
FE00
FF00
FF80
FFC0
FFE0
FFC0
FF80
FF00
FE00
FC00
F800
F000
E000
C000
ENDCHAR
STARTCHAR uniE0B1
ENCODING 57521
SWIDTH 602 0
DWIDTH 10 0
BBX 11 21 -1 -5
BITMAP
8000
4000
6000
3000
1800
0C00
0600
0300
0180
00C0
0060
00C0
0180
0300
0600
0C00
1800
3000
6000
C000
8000
ENDCHAR
STARTCHAR uniE0B2
ENCODING 57522
SWIDTH 602 0
DWIDTH 10 0
BBX 10 19 0 -4
BITMAP
0040
00C0
01C0
03C0
07C0
0FC0
1FC0
3FC0
7FC0
FFC0
7FC0
3FC0
1FC0
0FC0
07C0
03C0
01C0
00C0
0040
ENDCHAR
STARTCHAR uniE0B3
ENCODING 57523
SWIDTH 602 0
DWIDTH 10 0
BBX 11 21 0 -5
BITMAP
0040
00E0
0180
0100
0200
0400
0800
1800
3000
6000
C000
6000
3000
1800
0800
0400
0200
0100
0080
00E0
0040
ENDCHAR
STARTCHAR uniFEFF
ENCODING 65279
SWIDTH 602 0
DWIDTH 10 0
BBX 1 1 0 0
BITMAP
00
ENDCHAR
STARTCHAR .notdef
ENCODING -1
SWIDTH 602 0
DWIDTH 10 0
BBX 8 14 1 -2
BITMAP
FF
81
81
81
81
81
81
81
81
81
81
81
81
FF
ENDCHAR
STARTCHAR uni00A1.case
ENCODING -1
SWIDTH 602 0
DWIDTH 10 0
BBX 2 12 4 0
BITMAP
C0
C0
C0
00
80
C0
C0
C0
C0
C0
C0
C0
ENDCHAR
STARTCHAR uni2E18.case
ENCODING -1
SWIDTH 602 0
DWIDTH 10 0
BBX 6 12 2 0
BITMAP
30
30
00
30
30
30
70
F0
B0
B0
FC
78
ENDCHAR
STARTCHAR uni00BF.case
ENCODING -1
SWIDTH 602 0
DWIDTH 10 0
BBX 6 12 2 0
BITMAP
30
30
00
30
30
30
60
C0
80
80
CC
78
ENDCHAR
STARTCHAR c6459
ENCODING -1
SWIDTH 602 0
DWIDTH 10 0
BBX 5 1 2 11
BITMAP
C8
ENDCHAR
STARTCHAR c6460
ENCODING -1
SWIDTH 602 0
DWIDTH 10 0
BBX 3 2 4 10
BITMAP
60
80
ENDCHAR
STARTCHAR c6461
ENCODING -1
SWIDTH 602 0
DWIDTH 10 0
BBX 5 2 2 10
BITMAP
68
98
ENDCHAR
STARTCHAR c6468
ENCODING -1
SWIDTH 602 0
DWIDTH 10 0
BBX 3 2 3 10
BITMAP
C0
60
ENDCHAR
STARTCHAR c6470
ENCODING -1
SWIDTH 602 0
DWIDTH 10 0
BBX 5 2 2 10
BITMAP
30
C8
ENDCHAR
STARTCHAR c6472
ENCODING -1
SWIDTH 602 0
DWIDTH 10 0
BBX 5 2 2 10
BITMAP
C8
30
ENDCHAR
STARTCHAR c6477
ENCODING -1
SWIDTH 602 0
DWIDTH 10 0
BBX 9 3 0 4
BITMAP
0180
1E00
E000
ENDCHAR
STARTCHAR c6478
ENCODING -1
SWIDTH 602 0
DWIDTH 10 0
BBX 5 6 2 6
BITMAP
10
30
50
90
F8
10
ENDCHAR
STARTCHAR c6475
ENCODING -1
SWIDTH 602 0
DWIDTH 10 0
BBX 5 2 2 10
BITMAP
C8
78
ENDCHAR
STARTCHAR c6476
ENCODING -1
SWIDTH 602 0
DWIDTH 10 0
BBX 2 1 4 11
BITMAP
C0
ENDCHAR
STARTCHAR uni0030.subs
ENCODING -1
SWIDTH 602 0
DWIDTH 10 0
BBX 5 7 2 -3
BITMAP
70
48
48
A8
48
48
70
ENDCHAR
STARTCHAR uni0031.subs
ENCODING -1
SWIDTH 602 0
DWIDTH 10 0
BBX 4 7 3 -3
BITMAP
60
E0
60
60
60
60
F0
ENDCHAR
STARTCHAR uni0032.subs
ENCODING -1
SWIDTH 602 0
DWIDTH 10 0
BBX 4 7 3 -3
BITMAP
E0
B0
10
20
40
80
F0
ENDCHAR
STARTCHAR uni0033.subs
ENCODING -1
SWIDTH 602 0
DWIDTH 10 0
BBX 4 7 3 -3
BITMAP
E0
90
10
60
10
90
E0
ENDCHAR
STARTCHAR uni0034.subs
ENCODING -1
SWIDTH 602 0
DWIDTH 10 0
BBX 5 7 2 -3
BITMAP
10
30
30
50
90
F8
10
ENDCHAR
STARTCHAR uni0035.subs
ENCODING -1
SWIDTH 602 0
DWIDTH 10 0
BBX 5 7 2 -3
BITMAP
70
40
70
18
08
98
F0
ENDCHAR
STARTCHAR uni0036.subs
ENCODING -1
SWIDTH 602 0
DWIDTH 10 0
BBX 4 7 3 -3
BITMAP
70
80
F0
90
90
90
F0
ENDCHAR
STARTCHAR uni0037.subs
ENCODING -1
SWIDTH 602 0
DWIDTH 10 0
BBX 5 7 2 -3
BITMAP
F8
08
10
10
20
20
60
ENDCHAR
STARTCHAR uni0038.subs
ENCODING -1
SWIDTH 602 0
DWIDTH 10 0
BBX 5 7 2 -3
BITMAP
70
48
48
70
48
C8
78
ENDCHAR
STARTCHAR uni0039.subs
ENCODING -1
SWIDTH 602 0
DWIDTH 10 0
BBX 5 7 2 -3
BITMAP
70
48
88
C8
78
18
70
ENDCHAR
STARTCHAR _1531
ENCODING -1
SWIDTH 0 0
DWIDTH 0 0
BBX 1 1 0 0
BITMAP
00
ENDCHAR
ENDFONT
